<?xml version="1.0" encoding="UTF-8" standalone="no"?>
<!-- Created with Inkscape (http://www.inkscape.org/) -->

<svg
   xmlns:dc="http://purl.org/dc/elements/1.1/"
   xmlns:cc="http://creativecommons.org/ns#"
   xmlns:rdf="http://www.w3.org/1999/02/22-rdf-syntax-ns#"
   xmlns:svg="http://www.w3.org/2000/svg"
   xmlns="http://www.w3.org/2000/svg"
   xmlns:sodipodi="http://sodipodi.sourceforge.net/DTD/sodipodi-0.dtd"
   xmlns:inkscape="http://www.inkscape.org/namespaces/inkscape"
   width="765"
   height="990"
   id="svg4299"
   version="1.1"
   inkscape:version="0.48.4 r9939"
   sodipodi:docname="Alphabet - 01 - Labyrinth of the Serpent.svg">
  <defs
     id="defs4301">
    <inkscape:path-effect
       effect="spiro"
       id="path-effect3414"
       is_visible="true" />
    <inkscape:path-effect
       effect="spiro"
       id="path-effect4270"
       is_visible="true" />
    <inkscape:path-effect
       effect="spiro"
       id="path-effect3414-4"
       is_visible="true" />
    <inkscape:path-effect
       effect="spiro"
       id="path-effect3414-4-5"
       is_visible="true" />
    <inkscape:path-effect
       effect="spiro"
       id="path-effect3414-7"
       is_visible="true" />
    <inkscape:path-effect
       effect="spiro"
       id="path-effect3414-7-1"
       is_visible="true" />
    <inkscape:path-effect
       effect="spiro"
       id="path-effect3414-4-5-7"
       is_visible="true" />
  </defs>
  <sodipodi:namedview
     id="base"
     pagecolor="#ffffff"
     bordercolor="#666666"
     borderopacity="1.0"
     inkscape:pageopacity="0.0"
     inkscape:pageshadow="2"
     inkscape:zoom="0.98994949"
     inkscape:cx="667.06881"
     inkscape:cy="514.43446"
     inkscape:document-units="px"
     inkscape:current-layer="layer1"
     showgrid="false"
     inkscape:window-width="1855"
     inkscape:window-height="1056"
     inkscape:window-x="65"
     inkscape:window-y="24"
     inkscape:window-maximized="1" />
  <metadata
     id="metadata4304">
    <rdf:RDF>
      <cc:Work
         rdf:about="">
        <dc:format>image/svg+xml</dc:format>
        <dc:type
           rdf:resource="http://purl.org/dc/dcmitype/StillImage" />
        <dc:title />
      </cc:Work>
    </rdf:RDF>
  </metadata>
  <g
     inkscape:label="Layer 1"
     inkscape:groupmode="layer"
     id="layer1"
     transform="translate(0,-62.362183)">
    <path
       style="fill:none;stroke:#000000;stroke-width:1.47141957px;stroke-linecap:butt;stroke-linejoin:miter;stroke-opacity:1"
       d="m 334.68404,376.60719 c 5.05161,-10.40015 20.90716,-25.54007 33.33258,-28.50247 12.42544,-2.96223 32.42569,4.64668 52.32842,6.06176 19.90273,1.41506 31.76631,-3.35316 60.14515,-12.37474 27.35278,-8.41536 60.40717,-15.28896 88.87892,-16.21701 -9.94937,9.06019 -30.62645,7.72356 -58.51687,17.1546 -27.89043,9.43104 -61.83274,25.34408 -95.32948,59.69426 -4.11158,-11.9365 -19.61164,-19.29885 -33.37077,-18.58938 -7.68549,0.39631 -13.53959,10.10309 -17.66702,14.9598 4.06588,-18.11899 2.18551,-23.78357 -9.86404,-26.28639 -10.80688,-2.24462 -11.7965,0.32035 -19.93689,4.09957 z"
       id="path4297"
       inkscape:connector-curvature="0"
       sodipodi:nodetypes="czzcczcscsc" />
    <path
       style="fill:none;stroke:#000000;stroke-width:1.47141957px;stroke-linecap:butt;stroke-linejoin:miter;stroke-opacity:1"
       d="m 652.0589,508.01495 c -6.99631,-1.01119 -51.44805,3.4885 -38.79913,-14.42721 -30.07673,38.56209 -63.67705,-0.16649 -91.305,-22.69813 -10.65474,-11.14522 -37.03579,-26.19969 -46.71752,-33.55694 -50.13047,-29.88495 -74.97982,-31.51925 -102.80782,-24.48769 -10.37631,3.57246 -7.49321,10.52824 2.47257,9.12947 30.51222,-19.96711 127.32969,37.98774 106.1069,69.19961 15.98623,-16.02564 75.12703,17.99203 70.84987,39.37017 15.68218,-17.16998 33.47292,-10.9045 50.78493,1.42809 4.33462,-25.52659 32.11155,-22.48786 49.4152,-23.95737 z"
       id="path4392"
       inkscape:connector-curvature="0"
       sodipodi:nodetypes="cccccccccc" />
    <path
       style="fill:none;stroke:#000000;stroke-width:1.47141957px;stroke-linecap:butt;stroke-linejoin:miter;stroke-opacity:1"
       d="m 415.87164,305.0769 c 16.66676,-12.83693 34.10864,-63.79009 25.50624,-114.23748 -4.93252,15.7372 -1.42564,39.73581 -10.9795,51.29449 -11.41971,13.81594 -20.32596,16.37148 -35.47226,22.47969 -13.83629,5.57994 -26.33898,16.33457 -36.14792,28.20173 -14.5826,17.64261 -13.11082,49.37727 -25.67516,64.57796 6.36311,-1.90929 11.99313,-10.0137 14.18892,-16.34866 3.73927,-10.78813 2.51624,-22.25424 10.13493,-31.47166 9.54623,-11.54945 26.35473,-2.06256 23.47924,14.3052 4.04146,-18.25439 27.07319,-12.72235 34.96551,-18.80127 z"
       id="path4412"
       inkscape:connector-curvature="0"
       sodipodi:nodetypes="scssscsscs" />
    <path
       style="fill:none;stroke:#000000;stroke-width:1.47141957px;stroke-linecap:butt;stroke-linejoin:miter;stroke-opacity:1"
       d="m 354.70262,345.1641 c 15.51327,-12.2399 39.45849,-23.09349 52.46914,-23.8298 8.88662,-0.50292 23.14346,-15.53916 28.85267,-20.48048 30.36608,4.08613 73.89406,-2.07113 89.84458,-23.38329 -0.57729,6.05963 34.75089,21.27865 34.57944,22.0141 -2.22235,9.52887 -28.22599,-2.42829 -28.22599,-2.42829 -13.00837,-3.42694 -56.88707,16.3374 -72.7256,31.92975 -27.06886,-6.0235 -37.31019,2.56473 -64.85927,4.58567 -6.56488,0.4815 -20.74723,5.41586 -28.29175,9.5611 -3.97963,2.18648 -14.47277,4.26375 -11.64322,2.03124 z"
       id="path4434"
       inkscape:connector-curvature="0"
       sodipodi:nodetypes="sscccscsss"
       inkscape:transform-center-x="-8.5997717"
       inkscape:transform-center-y="-25.432863" />
    <path
       style="fill:none;stroke:#000000;stroke-width:1.47141957px;stroke-linecap:butt;stroke-linejoin:miter;stroke-opacity:1"
       d="m 337.93258,429.00157 c 4.76379,4.15912 7.87761,2.40127 11.72083,-2.22136 -0.90841,39.78364 2.08415,51.8443 18.45191,89.56946 3.65451,8.4231 13.08599,21.47598 14.2783,26.38626 -4.22715,-18.54122 -35.74512,-83.66273 -8.12086,-97.42956 5.74841,-2.32583 6.41895,-4.95668 12.19228,-4.18364 -4.84016,-2.87392 -5.70516,-2.00056 -7.80581,-2.3611 -2.95427,-0.50692 -5.05528,2.11953 -7.701,1.8894 -13.80098,-1.20071 -17.44353,-63.05732 -30.79211,-58.83877 7.10701,9.90066 15.51239,38.12917 -2.22354,47.18931 z"
       id="path4454"
       inkscape:connector-curvature="0"
       sodipodi:nodetypes="ccsccccscc" />
    <path
       style="fill:none;stroke:#000000;stroke-width:1.47141957px;stroke-linecap:butt;stroke-linejoin:miter;stroke-opacity:1"
       d="m 338.88552,388.58167 c 5.00147,37.56506 -19.04168,57.98574 -16.9888,90.51977 -4.19544,-20.77972 -8.22295,3.6857 -10.34206,7.92374 -3.14203,-36.70837 32.73178,-63.88037 27.33086,-98.44351 z"
       id="path4478"
       inkscape:connector-curvature="0" />
    <path
       style="fill:none;stroke:#000000;stroke-width:0.98585868px;stroke-linecap:butt;stroke-linejoin:miter;stroke-opacity:1"
       d="m 327.41884,376.02033 c -4.62068,5.71123 -16.97571,12.39212 -25.56543,11.90842 -8.5897,-0.48377 -20.897,-9.21418 -33.89983,-13.94656 -13.00281,-4.73236 -21.44219,-3.94796 -41.33736,-3.60354 -19.14145,0.15214 -41.86845,-1.78161 -60.83187,-6.65471 7.69876,-3.90952 21.22387,0.92124 40.84593,0.2199 19.62206,-0.70133 44.04619,-4.4045 70.43793,-20.03827 1.25721,8.45848 10.61544,16.16599 19.81165,18.35328 5.13678,1.22182 10.20363,-3.88986 13.53218,-6.21721 -4.91533,10.85957 -4.36557,14.86003 3.30462,18.78266 6.87915,3.51802 7.84909,2.06025 13.70218,1.19603 z"
       id="path4297-5"
       inkscape:connector-curvature="0"
       sodipodi:nodetypes="czzcczcscsc" />
    <path
       style="fill:none;stroke:#000000;stroke-width:1.47141957px;stroke-linecap:butt;stroke-linejoin:miter;stroke-opacity:1"
       d="m 252.84234,446.59594 c -16.07187,13.90304 -31.22296,65.91755 -20.38999,115.73203 4.22566,-16.03542 -0.34319,-39.77108 8.68291,-51.93477 10.78888,-14.53912 19.5686,-17.67059 34.4214,-24.75568 13.56813,-6.47237 26.9635,-20.80303 36.23059,-33.29138 13.77705,-18.56612 22.76567,-55.96743 20.74636,-69.43842 0.67579,6.86633 -1.30274,13.43138 -3.21367,19.90007 -3.25418,11.01588 -11.11956,25.79504 -18.3174,35.49494 -9.01888,12.15403 -26.22485,3.77477 -24.08129,-12.75643 -3.22395,18.49099 -26.46832,14.46588 -34.07891,21.04964 z"
       id="path4412-4"
       inkscape:connector-curvature="0"
       sodipodi:nodetypes="scssscsscs" />
    <path
       style="fill:none;stroke:#000000;stroke-width:1.47141957px;stroke-linecap:butt;stroke-linejoin:miter;stroke-opacity:1"
       d="m 328.51623,383.99314 c -14.00136,14.6673 -36.51218,29.34166 -49.32078,32.20144 -8.74861,1.95334 -21.19232,19.18557 -26.29624,25.01619 -30.54379,0.92338 -72.98259,14.15096 -86.40237,37.87864 -0.10595,-6.09839 -36.81142,-15.39304 -36.72384,-16.14978 1.13603,-9.80509 28.23795,-2.21559 28.23795,-2.21559 13.27205,1.26557 54.53619,-25.50135 68.48486,-43.54353 27.4936,1.53604 36.68004,-8.65003 63.74959,-15.16304 6.45065,-1.55194 19.95054,-8.76301 26.96197,-14.10543 3.69841,-2.81796 13.86269,-6.59417 11.30886,-3.9189 z"
       id="path4434-0"
       inkscape:connector-curvature="0"
       sodipodi:nodetypes="sscccscsss" />
    <path
       style="fill:none;stroke:#000000;stroke-width:1.47141957px;stroke-linecap:butt;stroke-linejoin:miter;stroke-opacity:1"
       d="m 325.54948,370.09013 c -6.64786,-13.02963 -15.7275,-32.75343 0.67287,-44.95255 -5.22864,-3.24027 -8.08709,-0.93324 -11.30868,4.339 -4.07196,-39.49272 -8.53682,-50.86762 -29.42932,-85.16651 -4.6648,-7.65809 -15.6186,-18.83642 -17.41058,-23.47232 6.4948,17.55529 45.78601,76.16553 20.19888,94.82539 -5.39184,3.35023 -5.72602,6.07349 -11.52958,6.36501 5.14358,1.95587 5.88955,0.93435 8.01107,0.90665 2.9837,-0.0392 4.73243,-3.01956 7.37653,-3.27585 13.79244,-1.33663 19.21631,43.7575 34.12763,49.5548"
       id="path4454-8"
       inkscape:connector-curvature="0"
       sodipodi:nodetypes="cccsccccsc" />
    <path
       style="fill:none;stroke:#000000;stroke-width:1.47141957px;stroke-linecap:butt;stroke-linejoin:miter;stroke-opacity:1"
       d="m 328.81475,361.86144 c -4.30558,-37.69106 20.10915,-57.45585 18.65839,-90.03731 3.81013,20.88807 8.28904,-3.46221 10.486,-7.64184 2.46245,36.78422 -33.90484,62.97846 -29.14439,97.67915 z"
       id="path4478-7"
       inkscape:connector-curvature="0" />
    <path
       style="fill:none;stroke:#000000;stroke-width:1.48624003px;stroke-linecap:butt;stroke-linejoin:miter;stroke-opacity:1"
       d="m 328.36921,793.11034 c 4.59085,-10.60967 20.09371,-26.7877 32.79892,-30.75716 12.70521,-3.9693 33.92909,1.74954 54.66482,1.4176 20.73573,-0.33194 32.74527,-6.01951 61.62219,-17.29209 27.85034,-10.5911 61.71193,-20.16559 91.19087,-23.52864 -9.75556,9.72117 -31.28971,10.19662 -59.63435,21.82767 -28.34466,11.63103 -62.56264,30.12501 -95.16654,66.6169 -5.01113,-11.32245 -21.55103,-17.18814 -35.7806,-15.30762 -7.94827,1.05042 -13.41493,11.05099 -17.39336,16.15802 3.08601,-18.07568 0.7814,-23.45497 -11.87532,-24.86432 -11.3514,-1.26394 -12.2178,1.33061 -20.42663,5.72964 z"
       id="path4297-4"
       inkscape:connector-curvature="0"
       sodipodi:nodetypes="czzcczcscsc" />
    <path
       style="fill:none;stroke:#000000;stroke-width:1.48624003px;stroke-linecap:butt;stroke-linejoin:miter;stroke-opacity:1"
       d="m 680.6047,812.25863 c -7.13731,1.90003 -49.28067,24.04456 -42.16786,2.40533 -18.0973,47.73083 -62.30971,25.62536 -95.93188,16.03579 -13.68675,-5.96253 -43.89667,-9.16286 -55.52102,-12.02681 -57.78103,-7.25948 -82.55708,1.29363 -107.70376,19.04262 -9.09776,7.49458 -4.2386,12.74068 5.09528,7.41648 23.97715,-30.7624 135.63997,-16.52283 124.04381,20.84661 10.93026,-21.2476 78.7334,-13.8254 80.82173,7.61698 10.29732,-22.1796 29.53012,-23.60515 50.07433,-19.24295 -3.24891,-25.29056 24.80157,-33.73398 41.28937,-42.09405 z"
       id="path4392-1"
       inkscape:connector-curvature="0"
       sodipodi:nodetypes="cccccccccc" />
    <path
       style="fill:none;stroke:#000000;stroke-width:1.48624003px;stroke-linecap:butt;stroke-linejoin:miter;stroke-opacity:1"
       d="m 421.53566,720.18167 c 17.33614,-12.59115 35.47851,-62.56872 26.53063,-112.05021 -5.13063,15.43589 -1.48291,38.975 -11.42048,50.31237 -11.87834,13.55141 -21.14228,16.05802 -36.89689,22.04927 -14.39197,5.47311 -27.39678,16.02183 -37.59967,27.66176 -15.16826,17.30482 -13.63738,48.43184 -26.70631,63.34149 6.61865,-1.87274 12.47479,-9.82197 14.75876,-16.03564 3.88944,-10.58156 2.61729,-21.82812 10.54197,-30.86906 9.92962,-11.32832 27.41318,-2.02307 24.42221,14.0313 4.20376,-17.90488 28.16049,-12.47876 36.36978,-18.44128 z"
       id="path4412-5"
       inkscape:connector-curvature="0"
       sodipodi:nodetypes="scssscsscs" />
    <path
       style="fill:none;stroke:#000000;stroke-width:1.48624003px;stroke-linecap:butt;stroke-linejoin:miter;stroke-opacity:1"
       d="m 369.88003,747.44275 c 19.22058,1.48222 45.51174,-3.11016 57.62941,-10.02246 8.27671,-4.72129 27.53147,-0.11748 34.78849,0.80182 25.84394,-21.10076 67.93587,-41.0649 91.36371,-32.07174 -3.069,-4.85146 22.6026,-38.35684 22.13812,-38.88689 -6.0192,-6.86691 -24.59791,18.44128 -24.59791,18.44128 -10.36701,10.4741 -58.49226,18.99594 -79.41615,14.83312 -22.03766,20.84741 -34.93978,19.43424 -60.79201,33.67525 -6.16051,3.39368 -21.10479,7.39235 -29.6932,8.21831 -4.53022,0.43576 -14.92624,4.74097 -11.42046,5.01131 z"
       id="path4434-9"
       inkscape:connector-curvature="0"
       sodipodi:nodetypes="sscccscsss" />
    <path
       style="fill:none;stroke:#000000;stroke-width:1.48624003px;stroke-linecap:butt;stroke-linejoin:miter;stroke-opacity:1"
       d="m 340.71393,799.15827 c 3.17008,14.57691 8.68446,35.80864 28.1119,30.26775 -1.81279,6.65751 -5.30994,7.49919 -10.89336,6.61465 21.3051,30.54651 25.04653,42.13676 30.92309,83.38628 1.31209,9.21 0.21205,26.16891 1.757,30.86912 -6.06235,-17.55186 -13.49263,-91.0841 -43.57345,-82.18381 -5.98121,2.27468 -7.89771,0.68991 -12.29896,5.41214 2.54012,-5.70424 3.71051,-5.63614 5.27098,-7.41648 2.19465,-2.50375 5.29832,-1.94227 7.37937,-4.00899 10.85537,-10.78096 -12.90812,-46.31671 -5.62238,-62.94066"
       id="path4454-9"
       inkscape:connector-curvature="0"
       sodipodi:nodetypes="cccsccccsc" />
    <path
       style="fill:none;stroke:#000000;stroke-width:1.48624003px;stroke-linecap:butt;stroke-linejoin:miter;stroke-opacity:1"
       d="m 335.09155,794.34745 c 2.72886,37.19069 -23.54373,54.99047 -23.54373,86.99443 -2.99138,-20.70167 -8.76959,2.86189 -11.24476,6.81531 -0.85642,-36.18487 38.1281,-59.51888 34.78849,-93.80974 z"
       id="path4478-9"
       inkscape:connector-curvature="0" />
    <path
       style="fill:none;stroke:#000000;stroke-width:1.48624003px;stroke-linecap:butt;stroke-linejoin:miter;stroke-opacity:1"
       d="m 331.93535,752.55125 c -5.57662,9.97598 -22.53202,24.13099 -35.54065,26.49777 -13.00861,2.36664 -33.5601,-5.95592 -54.20412,-8.20306 -20.64402,-2.24712 -33.12519,1.91403 -62.90664,9.53063 -28.69592,7.06675 -63.27023,12.37585 -92.894852,12.05515 10.62574,-8.45086 32.077142,-6.24715 61.363712,-14.28623 29.2866,-8.03907 65.06687,-22.17028 100.96126,-54.3929 3.90016,11.87787 19.78153,19.76426 34.10598,19.66344 8.00126,-0.0563 14.39033,-9.31798 18.83273,-13.90017 -4.79365,17.58457 -3.0164,23.21827 9.43041,26.19224 11.16315,2.6672 12.27214,0.19577 20.85217,-3.15687 z"
       id="path4297-4-7"
       inkscape:connector-curvature="0"
       sodipodi:nodetypes="czzcczcscsc" />
    <path
       style="fill:none;stroke:#000000;stroke-width:1.48624003px;stroke-linecap:butt;stroke-linejoin:miter;stroke-opacity:1"
       d="m 232.35958,813.46691 c -18.43528,10.36163 -41.24192,57.78697 -37.07217,108.08604 6.57403,-14.70637 5.19571,-38.55874 16.15673,-48.59357 13.10165,-11.99447 22.5498,-13.33482 38.78274,-17.33239 14.82893,-3.65186 28.76363,-12.52152 40.01727,-22.82415 16.73037,-15.31667 18.18085,-46.44871 32.5957,-59.64537 -6.75808,1.039 -13.33842,8.21311 -16.20213,14.10594 -4.87671,10.03519 -4.68604,21.37292 -13.42685,29.37517 -10.95224,10.02682 -27.44322,-1.39596 -22.93704,-16.98305 -5.88845,17.27585 -29.18447,8.90462 -37.91425,13.81138 z"
       id="path4412-5-7"
       inkscape:connector-curvature="0"
       sodipodi:nodetypes="scssscsscs" />
    <path
       style="fill:none;stroke:#000000;stroke-width:1.48624003px;stroke-linecap:butt;stroke-linejoin:miter;stroke-opacity:1"
       d="m 286.31088,792.78797 c -18.96465,-3.86218 -45.53786,-2.56466 -58.24345,2.80048 -8.67827,3.66454 -27.37884,-3.3049 -34.5049,-5.12066 -27.705,17.76325 -71.45275,32.37727 -93.882412,20.52596 2.587472,5.204 -26.13071,35.31945 -25.7196,35.90408 5.32767,7.5741 26.212432,-15.27444 26.212432,-15.27444 11.30545,-9.12333 59.95803,-11.61332 80.3599,-4.8748 23.89717,-17.98444 36.58757,-14.97617 63.64579,-25.91943 6.4479,-2.60785 21.68507,-4.72542 30.30124,-4.47906 4.54486,0.12986 15.29011,-2.85769 11.831,-3.56213 z"
       id="path4434-9-4"
       inkscape:connector-curvature="0"
       sodipodi:nodetypes="sscccscsss" />
    <path
       style="fill:none;stroke:#000000;stroke-width:1.48624003px;stroke-linecap:butt;stroke-linejoin:miter;stroke-opacity:1"
       d="m 320.2416,745.00507 c -1.7593,-14.88413 -5.21348,-36.67484 -25.05439,-33.58142 2.43772,-6.3926 5.99442,-6.79463 11.46015,-5.22143 -18.26148,-33.01256 -20.87392,-44.99883 -22.77668,-86.73322 -0.42483,-9.31825 2.28803,-26.03951 1.20109,-30.90373 4.35028,18.20081 4.7149,92.21888 35.46656,87.11009 6.16282,-1.51779 7.91658,0.29573 12.74257,-3.8514 -3.0697,5.35461 -4.22663,5.14146 -5.9478,6.71726 -2.42067,2.2161 -5.45225,1.27223 -7.71827,3.068 -11.82022,9.36767 8.40863,47.64533 -0.42114,63.26484"
       id="path4454-9-6"
       inkscape:connector-curvature="0"
       sodipodi:nodetypes="cccsccccsc" />
    <path
       style="fill:none;stroke:#000000;stroke-width:1.48624003px;stroke-linecap:butt;stroke-linejoin:miter;stroke-opacity:1"
       d="m 325.37115,750.48602 c 0.83864,-37.30849 28.65453,-51.73712 31.71052,-83.55059 0.99681,20.95023 8.99067,-1.75495 11.82861,-5.37723 -2.60388,36.07595 -43.5845,54.42599 -43.53913,88.92782 z"
       id="path4478-9-4"
       inkscape:connector-curvature="0" />
    <text
       xml:space="preserve"
       style="font-size:36px;font-style:normal;font-variant:normal;font-weight:normal;font-stretch:normal;text-align:start;line-height:125%;letter-spacing:0px;word-spacing:0px;writing-mode:lr-tb;text-anchor:start;fill:#000000;fill-opacity:1;stroke:none;font-family:Droid Sans;-inkscape-font-specification:Droid Sans"
       x="159.6041"
       y="162.41779"
       id="text4611"
       sodipodi:linespacing="125%"><tspan
         sodipodi:role="line"
         id="tspan4613"
         x="159.6041"
         y="162.41779">Labyrinth of the Serpent</tspan></text>
    <g
       id="g3491"
       transform="translate(-14.89975,-12.121831)">
      <path
         sodipodi:nodetypes="csccsc"
         inkscape:connector-curvature="0"
         inkscape:original-d="m 705.94204,580.71227 c -2.15089,3.74353 -7.69648,2.99697 -10.91829,7.59476 -7.77802,11.09986 -14.1458,27.62536 -14.38532,27.37542 l 0.2843,-0.28431 c 0,0 15.72085,-18.36782 35.62258,-17.79921 19.90173,0.56863 17.82777,-0.39665 17.82777,-0.39665"
         inkscape:path-effect="#path-effect3414"
         id="path3412"
         d="m 705.94204,580.71227 c -3.97562,1.99562 -7.66442,4.56155 -10.91829,7.59476 -7.68459,7.16347 -12.84477,16.98335 -14.38532,27.37542 l 0.2843,-0.28431 c 9.68677,-9.37889 22.30626,-15.68435 35.62258,-17.79921 5.88842,-0.93518 11.90358,-1.06901 17.82777,-0.39665"
         style="fill:none;stroke:#000000;stroke-width:0.56290591px;stroke-linecap:butt;stroke-linejoin:miter;stroke-opacity:1" />
      <path
         sodipodi:nodetypes="csccsc"
         inkscape:connector-curvature="0"
         inkscape:original-d="m 655.75258,575.43469 c 2.16656,3.73449 -1.25279,8.16383 1.11812,13.25289 5.72375,12.2859 16.85137,26.0633 16.51515,26.14577 l -0.10409,-0.38836 c 0,0 -8.04657,-22.79858 2.39673,-39.74966 10.44332,-16.9511 8.57037,-15.63764 8.57037,-15.63764"
         inkscape:path-effect="#path-effect3414-4"
         id="path3412-6"
         d="m 655.75258,575.43469 c -0.25955,4.4408 0.11821,8.91835 1.11812,13.25289 2.36146,10.23679 8.28563,19.61558 16.51515,26.14577 l -0.10409,-0.38836 c -3.27896,-13.07844 -2.4299,-27.15995 2.39673,-39.74966 2.13432,-5.56712 5.02599,-10.84332 8.57037,-15.63764"
         style="fill:none;stroke:#000000;stroke-width:0.56290591px;stroke-linecap:butt;stroke-linejoin:miter;stroke-opacity:1" />
      <path
         sodipodi:nodetypes="csccsc"
         inkscape:connector-curvature="0"
         inkscape:original-d="m 625.59346,618.21793 c 4.31744,-0.008 6.44369,5.16687 12.0364,5.65813 13.50178,1.18604 30.99717,-1.56206 30.90048,-1.22965 l -0.38837,-0.10409 c 0,0 -23.76742,-4.43074 -33.22585,-21.95046 -9.45842,-17.51973 -9.25741,-15.24098 -9.25741,-15.24098"
         inkscape:path-effect="#path-effect3414-7"
         id="path3412-7"
         d="m 625.59346,618.21793 c 3.71607,2.44518 7.78263,4.3568 12.0364,5.65813 10.04605,3.07332 21.13041,2.63223 30.90048,-1.22965 l -0.38837,-0.10409 c -12.96574,-3.69956 -24.73616,-11.47562 -33.22585,-21.95046 -3.75411,-4.63193 -6.87759,-9.7743 -9.25741,-15.24098"
         style="fill:none;stroke:#000000;stroke-width:0.56290591px;stroke-linecap:butt;stroke-linejoin:miter;stroke-opacity:1" />
      <path
         sodipodi:nodetypes="csccsc"
         inkscape:connector-curvature="0"
         inkscape:original-d="m 646.11768,664.32207 c 2.15089,-3.74354 7.69648,-2.99696 10.91828,-7.59475 7.77803,-11.09987 14.14579,-27.62538 14.38532,-27.37544 l -0.28429,0.28433 c 0,0 -15.72085,18.36781 -35.62258,17.7992 -19.90173,-0.56863 -17.82777,0.39666 -17.82777,0.39666"
         inkscape:path-effect="#path-effect3414-4-5"
         id="path3412-6-5"
         d="m 646.11768,664.32207 c 3.97562,-1.99562 7.66441,-4.56154 10.91828,-7.59475 7.6846,-7.16348 12.84478,-16.98337 14.38532,-27.37544 l -0.28429,0.28433 c -9.68678,9.37888 -22.30626,15.68433 -35.62258,17.7992 -5.88842,0.93519 -11.90358,1.06902 -17.82777,0.39666"
         style="fill:none;stroke:#000000;stroke-width:0.56290591px;stroke-linecap:butt;stroke-linejoin:miter;stroke-opacity:1" />
      <path
         sodipodi:nodetypes="csccsc"
         inkscape:connector-curvature="0"
         inkscape:original-d="m 696.70187,668.79707 c -2.16604,-3.73479 1.25279,-8.16384 -1.11811,-13.25289 C 689.86,643.25827 678.73238,629.48086 679.0686,629.39839 l 0.10409,0.38839 c 0,0 8.04657,22.79856 -2.39673,39.74966 -10.44332,16.9511 -8.57037,15.63764 -8.57037,15.63764"
         inkscape:path-effect="#path-effect3414-7-1"
         id="path3412-7-7"
         d="m 696.70187,668.79707 c 0.25955,-4.4408 -0.11821,-8.91835 -1.11811,-13.25289 -2.36145,-10.2368 -8.28563,-19.6156 -16.51516,-26.14579 l 0.10409,0.38839 c 3.27896,13.07844 2.4299,27.15995 -2.39673,39.74966 -2.13432,5.56712 -5.02599,10.84332 -8.57037,15.63764"
         style="fill:none;stroke:#000000;stroke-width:0.56290591px;stroke-linecap:butt;stroke-linejoin:miter;stroke-opacity:1" />
      <path
         sodipodi:nodetypes="csccsc"
         inkscape:connector-curvature="0"
         inkscape:original-d="m 726.36711,627.97051 c -4.31744,0.008 -6.44369,-5.16687 -12.03639,-5.65812 -13.50177,-1.18606 -30.99717,1.56206 -30.90048,1.22965 l 0.38837,0.10409 c 0,0 23.76743,4.43076 33.22586,21.95047 9.45842,17.51972 9.2574,15.24097 9.2574,15.24097"
         inkscape:path-effect="#path-effect3414-4-5-7"
         id="path3412-6-5-4"
         d="m 726.36711,627.97051 c -3.71607,-2.44517 -7.78262,-4.3568 -12.03639,-5.65812 -10.04605,-3.07331 -21.13041,-2.63222 -30.90048,1.22965 l 0.38837,0.10409 c 12.96574,3.69956 24.73617,11.47563 33.22586,21.95047 3.7541,4.63193 6.87759,9.77429 9.2574,15.24097"
         style="fill:none;stroke:#000000;stroke-width:0.56290591px;stroke-linecap:butt;stroke-linejoin:miter;stroke-opacity:1" />
    </g>
  </g>
</svg>
