<?xml version="1.0" encoding="UTF-8" standalone="no"?>
<!-- Created with Inkscape (http://www.inkscape.org/) -->

<svg
   xmlns:dc="http://purl.org/dc/elements/1.1/"
   xmlns:cc="http://creativecommons.org/ns#"
   xmlns:rdf="http://www.w3.org/1999/02/22-rdf-syntax-ns#"
   xmlns:svg="http://www.w3.org/2000/svg"
   xmlns="http://www.w3.org/2000/svg"
   xmlns:sodipodi="http://sodipodi.sourceforge.net/DTD/sodipodi-0.dtd"
   xmlns:inkscape="http://www.inkscape.org/namespaces/inkscape"
   width="765"
   height="990"
   id="svg3067"
   version="1.1"
   inkscape:version="0.48.4 r9939"
   sodipodi:docname="Alphabet - 02 - Axis and Kane and Nepenthe.svg">
  <defs
     id="defs3069">
    <inkscape:path-effect
       effect="spiro"
       id="path-effect4270"
       is_visible="true" />
    <inkscape:path-effect
       effect="spiro"
       id="path-effect4270-2"
       is_visible="true" />
  </defs>
  <sodipodi:namedview
     id="base"
     pagecolor="#ffffff"
     bordercolor="#666666"
     borderopacity="1.0"
     inkscape:pageopacity="0.0"
     inkscape:pageshadow="2"
     inkscape:zoom="3.959798"
     inkscape:cx="372.04589"
     inkscape:cy="533.22741"
     inkscape:document-units="px"
     inkscape:current-layer="layer1"
     showgrid="false"
     inkscape:window-width="1855"
     inkscape:window-height="1056"
     inkscape:window-x="65"
     inkscape:window-y="24"
     inkscape:window-maximized="1" />
  <metadata
     id="metadata3072">
    <rdf:RDF>
      <cc:Work
         rdf:about="">
        <dc:format>image/svg+xml</dc:format>
        <dc:type
           rdf:resource="http://purl.org/dc/dcmitype/StillImage" />
      </cc:Work>
    </rdf:RDF>
  </metadata>
  <g
     inkscape:label="Layer 1"
     inkscape:groupmode="layer"
     id="layer1"
     transform="translate(0,-62.362183)">
    <path
       style="fill:none;stroke:#000000;stroke-width:1.26267302px;stroke-linecap:butt;stroke-linejoin:miter;stroke-opacity:1"
       d="m 479.78025,884.32776 c -0.13426,0.72148 0.10364,1.48526 0.55869,2.06101 0.45506,0.57575 1.11031,0.97289 1.80845,1.19909 1.39628,0.45238 2.9064,0.24756 4.3704,0.14289 9.6835,-0.69232 19.0163,3.19275 28.42924,5.56891 3.93284,0.99279 7.96179,1.73845 11.67329,3.3748 1.85575,0.81818 3.62445,1.86041 5.14469,3.20282 1.52025,1.34242 2.78812,2.99341 3.55903,4.86929 1.43723,3.49725 1.02869,7.59851 -0.65731,10.98285 -1.62409,3.26006 -4.40204,5.93063 -7.72356,7.42501 2.43312,0.5169 4.98552,0.46349 7.39489,-0.15473 2.71024,-0.69542 5.19787,-2.08231 7.49059,-3.68619 2.29273,-1.60388 4.41807,-3.4328 6.64186,-5.13098 4.75642,-3.6322 10.02666,-6.69046 15.77575,-8.35312 5.4734,-1.58293 11.30567,-1.86356 16.92606,-0.92812 9.37153,1.55977 17.83134,6.35368 26.29293,10.6734 12.69776,6.48233 25.84964,12.05408 38.45341,18.71731 3.17143,1.67664 6.31948,3.42753 9.67702,4.69086 3.35754,1.26334 6.96831,2.02966 10.53565,1.65131 2.81975,-0.29906 5.55995,-1.32007 7.88789,-2.93905 -13.81838,-3.79357 -27.26767,-8.93028 -40.09671,-15.3142 -24.88601,-12.38365 -47.46043,-29.44665 -73.45587,-39.29072 -1.73806,-0.65818 -3.51419,-1.29621 -5.01963,-2.38602 -0.75273,-0.5449 -1.43137,-1.20196 -1.9442,-1.97689 -0.51282,-0.77494 -0.85583,-1.67129 -0.92404,-2.59804 -0.11012,-1.49618 0.53842,-3.02884 1.689,-3.99157 1.15059,-0.96273 2.77361,-1.33074 4.22691,-0.95844 -1.91001,-1.36289 -4.10924,-2.31838 -6.40889,-2.78445 -4.43448,-0.89874 -9.06056,0.0338 -13.29705,1.6227 -4.23648,1.5889 -8.20004,3.81875 -12.33856,5.6477 -12.80181,5.65754 -27.12414,7.36816 -41.0827,6.34217 -1.1075,-0.0814 -2.24247,-0.17699 -3.31076,0.12624 -0.53414,0.15161 -1.04493,0.40504 -1.45621,0.77806 -0.41128,0.37302 -0.71868,0.87023 -0.82026,1.4161"
       id="path4268"
       inkscape:path-effect="#path-effect4270-2"
       inkscape:original-d="m 479.78025,884.32776 c -0.98599,0.92811 -1.63761,1.59063 6.73754,3.40299 8.37516,1.81249 18.56939,2.3204 28.42924,5.56891 9.85984,3.24839 19.2267,9.43596 20.37701,11.44691 1.15032,2.01095 6.40891,4.79528 -0.65731,10.98285 -7.06623,6.18744 -7.72356,7.42501 -7.72356,7.42501 0,0 2.62929,2.16567 7.39489,-0.15473 4.76559,-2.32028 9.36685,-4.1765 14.13245,-8.81717 4.76559,-4.64068 9.69551,-8.97191 15.77575,-8.35312 6.08023,0.61865 9.53119,-2.62973 16.92606,-0.92812 7.39489,1.7015 10.02419,2.16556 26.29293,10.6734 16.26875,8.50785 30.89419,15.62353 38.45341,18.71731 7.5592,3.09366 10.84582,6.96096 20.21267,6.34217 9.36686,-0.61878 7.88789,-2.93905 7.88789,-2.93905 0,0 -22.67765,-6.4969 -40.09671,-15.3142 -17.41906,-8.81718 -64.58201,-33.87654 -73.45587,-39.29072 -8.87385,-5.41406 -8.87385,-4.95001 -7.88787,-6.96095 0.98599,-2.01095 5.91591,-4.95001 5.91591,-4.95001 0,0 -3.28661,-2.93906 -6.40889,-2.78445 -3.1223,0.15472 -14.53052,4.78499 -25.63561,7.2704 -11.10509,2.48542 -27.78114,2.61895 -41.0827,6.34217 -1.95118,0.54614 -4.90969,1.68263 -5.58723,2.3204 z"
       inkscape:connector-curvature="0"
       sodipodi:nodetypes="szcssccsccscscssscczas" />
    <path
       style="fill:none;stroke:#000000;stroke-width:1.26267302px;stroke-linecap:butt;stroke-linejoin:miter;stroke-opacity:1"
       d="m 439.19055,758.41161 c 16.10834,5.41593 4.60315,-12.99252 -2.30064,-17.63444 29.62308,5.26861 18.88161,73.12724 7.88789,85.85189 15.7736,-41.39306 -25.72134,-70.45201 -59.65208,-87.39878 34.65495,-3.64961 36.47666,13.26786 54.06483,19.18133 z"
       id="path4597"
       inkscape:connector-curvature="0"
       sodipodi:nodetypes="scccs" />
    <path
       style="fill:none;stroke:#000000;stroke-width:1.26267302px;stroke-linecap:butt;stroke-linejoin:miter;stroke-opacity:1"
       d="m 431.95999,923.92781 c 13.68123,-3.34541 24.32095,5.11135 20.54136,-15.15935 -1.72851,1.86762 -2.75782,13.16531 -9.69552,9.89989 -17.3947,-8.187 -4.52716,-20.89793 -12.48916,-35.88748 -8.15683,-15.35646 -10.84582,-24.31979 -10.84582,-43.93152 0,-3.14095 -4.67299,-18.80441 -9.53118,-14.23123 -4.94214,4.65219 9.74686,21.05498 4.2726,28.77192 -10.11704,0 -19.36535,-13.3324 -21.03433,-22.89381 -4.6074,15.18483 10.48543,23.33569 10.84583,36.19706 1.3462,48.04248 9.42214,29.5975 14.13244,51.97519 1.69952,8.07405 -11.63286,11.05035 -16.76173,8.35324 13.10071,7.1087 18.42598,-0.12545 30.56551,-3.09391 z"
       id="path4603"
       inkscape:connector-curvature="0"
       sodipodi:nodetypes="sccsssccsscs" />
    <path
       style="fill:none;stroke:#000000;stroke-width:1.26267302px;stroke-linecap:butt;stroke-linejoin:miter;stroke-opacity:1"
       d="m 463.5115,852.1526 c -11.14974,14.93271 -23.47748,33.07314 -25.30693,48.57207 -2.05084,-11.07154 6.80229,-29.23255 -5.91591,-33.72205 12.96422,-6.65983 20.37701,-51.54347 33.03048,-90.18313 0.0917,16.50768 -23.65868,84.31138 -1.80764,75.33311 z"
       id="path4605"
       inkscape:connector-curvature="0"
       sodipodi:nodetypes="ccccc" />
    <path
       style="fill:none;stroke:#000000;stroke-width:1.26267302px;stroke-linecap:butt;stroke-linejoin:miter;stroke-opacity:1"
       d="m 524.64254,834.82746 c 9.80044,-4.61262 17.83977,-18.11703 22.02033,-25.98747 4.16521,-7.84168 -0.005,-23.78067 1.97197,-32.0205 1.16543,8.10529 7.6404,28.09558 7.55921,34.80483 -0.18509,15.29459 5.74616,47.76365 21.03433,51.66586 -6.78335,-1.75111 -5.53572,-1.01522 -10.1885,-2.47513 -30.3118,-9.51105 -35.25,9.68636 -51.2712,10.20946 -18.75924,0.61254 -33.98722,-4.59461 -47.65593,3.09379 -14.28511,8.03497 -20.25691,28.16111 -26.62158,39.7549 3.698,-43.72069 47.93902,-62.47267 83.15137,-79.04574 z"
       id="path4607"
       inkscape:connector-curvature="0"
       sodipodi:nodetypes="sscscssacs" />
    <text
       xml:space="preserve"
       style="font-size:36px;font-style:normal;font-variant:normal;font-weight:normal;font-stretch:normal;text-align:start;line-height:125%;letter-spacing:0px;word-spacing:0px;writing-mode:lr-tb;text-anchor:start;fill:#000000;fill-opacity:1;stroke:none;font-family:Droid Sans;-inkscape-font-specification:Droid Sans"
       x="125.2589"
       y="847.80627"
       id="text4711"
       sodipodi:linespacing="125%"><tspan
         sodipodi:role="line"
         id="tspan4713"
         x="125.2589"
         y="847.80627">Axis and Kane</tspan></text>
    <text
       xml:space="preserve"
       style="font-size:36px;font-style:normal;font-variant:normal;font-weight:normal;font-stretch:normal;text-align:center;line-height:125%;letter-spacing:0px;word-spacing:0px;writing-mode:lr-tb;text-anchor:middle;fill:#000000;fill-opacity:1;stroke:none;font-family:Droid Sans;-inkscape-font-specification:Droid Sans"
       x="363.04172"
       y="201.81377"
       id="text4829"
       sodipodi:linespacing="125%"><tspan
         sodipodi:role="line"
         id="tspan4831"
         x="363.04172"
         y="201.81377">Nepenthe</tspan><tspan
         sodipodi:role="line"
         x="363.04172"
         y="246.81377"
         id="tspan4833">and the</tspan><tspan
         sodipodi:role="line"
         x="363.04172"
         y="291.81375"
         id="tspan4835">Library</tspan></text>
    <path
       style="fill:none;stroke:#000000;stroke-width:1.22072804px;stroke-linecap:butt;stroke-linejoin:miter;stroke-opacity:1"
       d="m 198.27561,627.83632 c -9.68726,-20.93622 12.84532,-24.95157 37.05782,-31.39015 6.84753,-1.8209 2.04547,-7.45513 10.46339,-8.28351 -23.54935,0 -33.33355,-19.14586 -58.42057,-38.80172 -5.65556,-4.43118 -15.19638,-19.12014 -20.4908,-24.41456 -2.55557,-2.55558 -13.58555,-23.24914 -18.3109,-21.36274 1.20095,0.85783 13.17961,17.26742 6.97558,16.13106 -30.63203,-5.61075 -60.449292,-37.18863 -63.216268,-86.32292 -9.049867,29.24957 3.391952,49.5669 16.567028,68.012 -6.52179,-1.6094 -16.247234,16.09146 -13.515208,16.13104 2.657183,0.0385 21.579538,-11.99048 37.493798,3.92377 13.37151,13.37153 -5.49616,16.47407 -10.89937,5.66767 4.05251,24.93813 42.90969,11.94198 48.39315,33.13404 -18.38628,1.17098 -22.3708,10.65409 -42.28951,13.5152 -14.26977,2.04972 -33.603994,-11.5703 -44.469377,-17.00299 -6.132351,-3.06618 -14.894591,-5.3818 -27.030397,0.43597 33.239508,-5.13732 37.616428,21.28442 57.112624,26.15847 -13.6128,1.14642 -19.263305,13.59562 -26.158453,20.49078 -0.395955,0.39596 10.169885,-4.64467 10.463384,-5.23168 1.965116,-3.93025 8.441559,-6.9756 13.515189,-6.9756 20.92005,0 31.94807,-7.28964 43.59744,17.003 13.11187,-14.18127 34.4289,-4.1674 35.95661,5.5117 1.28003,8.10979 3.41818,13.58667 7.20484,13.67117 z"
       id="path4794"
       inkscape:connector-curvature="0"
       sodipodi:nodetypes="cscsscsccssccssccssscsc" />
    <path
       style="fill:none;stroke:#000000;stroke-width:1.22072804px;stroke-linecap:butt;stroke-linejoin:miter;stroke-opacity:1"
       d="m 200.01952,698.02815 c -10.80883,-12.54502 -7.60258,-7.76432 -8.28352,-15.25907 -4.06621,-44.75424 61.883,-86.66066 88.06679,-112.91735 17.48209,-17.53073 40.65386,-62.90286 46.00654,-92.58922 12.32828,-28.37843 14.74661,-31.4023 21.13352,-56.94995 l 1.30792,16.13104 c 10.59503,-14.40288 50.35538,-30.98505 69.31991,-17.43896 -44.51192,-5.73584 -73.31331,26.27034 -81.52719,49.70107 -8.21388,23.43072 -17.87209,82.80262 -5.66767,113.78928 6.35691,12.7138 12.85642,15.04058 26.59444,16.56703 -29.51394,2.97425 -47.21294,17.72081 -70.19187,29.21027 -8.83968,4.41984 -19.49895,0.81201 -36.18587,4.35975 -7.96117,1.69259 -11.6942,-0.98475 -18.7469,2.61585 -20.70582,10.5709 -48.14196,36.67517 -31.8261,62.78026 z"
       id="path4796"
       inkscape:connector-curvature="0"
       sodipodi:nodetypes="csscccczccsssc" />
    <path
       style="fill:none;stroke:#000000;stroke-width:1.22072804px;stroke-linecap:butt;stroke-linejoin:miter;stroke-opacity:1"
       d="m 216.15055,657.0466 c 34.85604,-42.07306 136.42226,13.15462 162.61842,-39.23769 11.62291,31.82092 56.33606,-3.49364 83.27109,-19.18288 -47.64905,47.54612 -55.38474,28.78232 -95.47837,47.08523 -6.19915,2.82994 -43.73735,8.35348 -49.70107,11.33534 5.76307,14.86276 15.29847,12.65309 29.21028,16.13104 -19.35331,17.11939 -55.39286,-37.05178 -116.40514,-20.05482 7.23341,-0.83689 17.97894,3.17132 22.67067,6.10364 -11.20986,-0.40414 -17.77364,-2.85489 -36.18588,-2.17986 z"
       id="path4798"
       inkscape:connector-curvature="0"
       sodipodi:nodetypes="cccsccccc" />
    <path
       style="fill:none;stroke:#000000;stroke-width:1.22072804px;stroke-linecap:butt;stroke-linejoin:miter;stroke-opacity:1"
       d="m 220.94627,442.11127 c -8.28606,3.8092 3.76192,11.19477 2.61585,41.41755 -0.71009,58.5611 -12.33702,66.89416 -19.61884,69.31991 13.86971,5.35028 19.83645,15.69476 32.26209,29.21029 -5.23036,-7.54983 -7.29743,-21.1345 -9.59143,-30.08223 -2.43938,-9.51478 5.52863,-110.22987 -5.66767,-109.86552 z"
       id="path4800"
       inkscape:connector-curvature="0"
       sodipodi:nodetypes="ccccsc" />
    <path
       style="fill:none;stroke:#000000;stroke-width:1.22072804px;stroke-linecap:butt;stroke-linejoin:miter;stroke-opacity:1"
       d="m 237.07732,516.66288 c 8.51463,-23.66201 58.13638,-86.08287 101.58202,-120.32891 15.54343,-9.27077 33.08125,-36.28716 53.18885,-47.08522 8.54283,-4.27141 20.15,-5.3876 30.5182,-6.53961 -10.74276,4.30218 -22.96547,5.96247 -30.95417,13.95117 -15.73114,15.73115 -62.53257,66.387 -56.67664,93.5165 -35.34302,17.8342 -61.7319,18.71157 -88.06682,78.69335 -7.5218,17.13205 -6.90465,40.68729 -4.57772,55.8047 -6.31982,-15.82211 -12.05708,-48.43861 -5.01372,-68.01198 z"
       id="path4837"
       inkscape:connector-curvature="0"
       sodipodi:nodetypes="scccscscs" />
    <path
       style="fill:none;stroke:#000000;stroke-width:1.22072804px;stroke-linecap:butt;stroke-linejoin:miter;stroke-opacity:1"
       d="m 400.13171,358.84018 c 19.94457,-8.30105 70.73961,3.85446 83.70707,-8.71949 -16.16805,58.06829 16.22072,87.93867 58.42055,105.06982 -51.50921,-0.74782 -67.99967,-59.31982 -86.75889,-71.93577 -9.78622,-6.58143 -26.10546,-20.21098 -55.36873,-24.41456 z"
       id="path4859"
       inkscape:connector-curvature="0"
       sodipodi:nodetypes="cccsc" />
    <path
       transform="matrix(1.220728,0,0,1.220728,-276.93636,-535.17484)"
       sodipodi:type="arc"
       style="fill:#803300"
       id="path4861"
       sodipodi:cx="665.89288"
       sodipodi:cy="826.64789"
       sodipodi:rx="5.1785712"
       sodipodi:ry="6.0714288"
       d="m 671.07145,826.64789 c 0,3.35316 -2.31852,6.07143 -5.17857,6.07143 -2.86004,0 -5.17857,-2.71827 -5.17857,-6.07143 0,-3.35316 2.31853,-6.07143 5.17857,-6.07143 2.86005,0 5.17857,2.71827 5.17857,6.07143 z" />
    <path
       style="fill:none;stroke:#000000;stroke-width:1.22072804px;stroke-linecap:butt;stroke-linejoin:miter;stroke-opacity:1"
       d="m 571.90557,485.05474 c -6.43516,-10.49715 -12.38196,-21.31944 -11.55331,-20.49079 -0.0547,3.92186 -1.29767,6.33611 -4.57773,3.2698 -2.94603,-2.94604 -14.89123,-3.43025 -19.61884,-4.14175 38.73051,17.04041 44.74595,55.58853 54.2788,56.1317 -5.49354,-9.84904 -11.96733,-24.06562 -18.52892,-34.76896 z"
       id="path4863"
       inkscape:connector-curvature="0"
       sodipodi:nodetypes="sccccs" />
    <path
       style="fill:none;stroke:#000000;stroke-width:1.22072804px;stroke-linecap:butt;stroke-linejoin:miter;stroke-opacity:1"
       d="m 525.47432,459.76822 c -1.19211,12.01587 2.52191,22.48281 5.66767,28.77431 17.31113,34.62226 36.77544,70.15967 71.71777,87.63084 -15.76175,-4.06503 -33.65989,-16.25295 -47.7392,-26.81243 4.85945,-7.38932 -5.29012,-16.62547 -14.82313,-30.73618 -6.14407,-9.09445 -8.99154,-15.31318 -17.00298,-23.32462 -3.12499,-3.12499 -9.26205,-4.23803 -13.6242,-2.50687 -0.11133,-19.76671 -0.78364,-30.44022 -8.61049,-42.18051 -2.64166,-3.96248 -6.39362,-7.77351 -7.95654,-12.09828 9.08708,10.05297 19.12398,18.30995 32.3711,21.25374 z"
       id="path4865"
       inkscape:connector-curvature="0"
       sodipodi:nodetypes="csccsscscc" />
    <path
       style="fill:none;stroke:#000000;stroke-width:1.22072804px;stroke-linecap:butt;stroke-linejoin:miter;stroke-opacity:1"
       d="m 397.07989,338.78536 c 7.4642,-4.27544 24.22407,-13.23546 35.74989,-17.00299 16.36892,-5.35064 30.31757,5.76669 39.67366,-19.18288 0.0204,23.06881 34.23545,38.12482 72.37172,47.95717 -23.23868,7.89862 -46.58743,-18.6439 -67.83101,-17.10289 -32.83856,2.38212 -50.22632,-9.24492 -79.96426,5.33159 z"
       id="path4915"
       inkscape:connector-curvature="0"
       sodipodi:nodetypes="csccsc" />
    <path
       style="fill:none;stroke:#000000;stroke-width:1.22072804px;stroke-linecap:butt;stroke-linejoin:miter;stroke-opacity:1"
       d="m 483.40279,344.889 c 9.95221,5.53978 28.04863,8.66731 38.36574,15.69509 13.67453,9.31477 27.01433,23.29034 40.46678,34.99857 10.45239,9.09715 31.5457,37.64228 40.26716,50.34901 20.09594,29.27876 34.96565,45.33896 47.87848,47.18859 -49.06445,-53.26714 -75.49816,-91.13427 -81.09121,-109.42955 -1.06841,-3.49482 -0.51455,-8.46221 2.61583,-10.02741 -3.19409,-2.53052 -6.71918,-0.52575 -10.0274,-2.17987 -4.70024,-2.35011 -43.88004,-18.59353 -44.90534,-19.61883 -4.34174,-4.34174 -27.38485,-5.4293 -33.57004,-6.9756 z"
       id="path4917"
       inkscape:connector-curvature="0"
       sodipodi:nodetypes="cssscscssc" />
    <path
       style="fill:none;stroke:#000000;stroke-width:1.22072804px;stroke-linecap:butt;stroke-linejoin:miter;stroke-opacity:1"
       d="m 575.82935,448.21491 c 19.56198,8.03979 45.8334,26.27067 55.8047,46.21327 6.15076,12.30151 35.08742,10.68988 31.82614,13.95118 -2.86282,2.8628 -19.80142,-0.2534 -24.41456,4.35976 -4.80499,4.80496 0.60273,8.55271 -1.30793,10.46337 -6.14501,6.14501 -28.25244,-42.61711 -34.87794,-50.57302 -7.24886,-8.70445 -13.51766,-13.32212 -27.03041,-24.41456 z"
       id="path4919"
       inkscape:connector-curvature="0"
       sodipodi:nodetypes="csssssc" />
    <path
       style="fill:none;stroke:#000000;stroke-width:1.22072804px;stroke-linecap:butt;stroke-linejoin:miter;stroke-opacity:1"
       d="m 623.35055,457.80636 c 16.57387,-20.78491 40.75615,28.3125 58.42056,15.69507 -1.48347,33.26921 3.57725,70.5497 11.33532,101.582 -26.76739,-27.34962 -16.10301,-111.31572 -69.75588,-117.27707 z"
       id="path4927"
       inkscape:connector-curvature="0" />
  </g>
</svg>
