<?xml version="1.0" encoding="UTF-8" standalone="no"?>
<!-- Created with Inkscape (http://www.inkscape.org/) -->

<svg
   xmlns:dc="http://purl.org/dc/elements/1.1/"
   xmlns:cc="http://creativecommons.org/ns#"
   xmlns:rdf="http://www.w3.org/1999/02/22-rdf-syntax-ns#"
   xmlns:svg="http://www.w3.org/2000/svg"
   xmlns="http://www.w3.org/2000/svg"
   xmlns:sodipodi="http://sodipodi.sourceforge.net/DTD/sodipodi-0.dtd"
   xmlns:inkscape="http://www.inkscape.org/namespaces/inkscape"
   width="990"
   height="765"
   id="svg3097"
   version="1.1"
   inkscape:version="0.48.4 r9939"
   sodipodi:docname="Axis and Kane.svg">
  <defs
     id="defs3099">
    <inkscape:path-effect
       effect="spiro"
       id="path-effect4270-2"
       is_visible="true" />
  </defs>
  <sodipodi:namedview
     id="base"
     pagecolor="#ffffff"
     bordercolor="#666666"
     borderopacity="1.0"
     inkscape:pageopacity="0.0"
     inkscape:pageshadow="2"
     inkscape:zoom="0.35"
     inkscape:cx="375"
     inkscape:cy="520"
     inkscape:document-units="px"
     inkscape:current-layer="layer1"
     showgrid="false"
     inkscape:window-width="976"
     inkscape:window-height="725"
     inkscape:window-x="826"
     inkscape:window-y="75"
     inkscape:window-maximized="0" />
  <metadata
     id="metadata3102">
    <rdf:RDF>
      <cc:Work
         rdf:about="">
        <dc:format>image/svg+xml</dc:format>
        <dc:type
           rdf:resource="http://purl.org/dc/dcmitype/StillImage" />
        <dc:title />
      </cc:Work>
    </rdf:RDF>
  </metadata>
  <g
     inkscape:label="Layer 1"
     inkscape:groupmode="layer"
     id="layer1"
     transform="translate(0,-287.36218)">
    <path
       style="fill:#000000;stroke:#000000;stroke-width:3.11244273000000016px;stroke-linecap:butt;stroke-linejoin:miter;stroke-opacity:1"
       d="m 381.22667,779.77095 c -0.33095,1.77843 0.25546,3.66111 1.37715,5.08032 1.1217,1.41921 2.73686,2.39815 4.45776,2.95571 3.44179,1.11511 7.16417,0.61023 10.77289,0.35222 23.86949,-1.70655 46.87449,7.87004 70.07705,13.72717 9.69432,2.44718 19.62552,4.2852 28.77423,8.31876 4.57436,2.01678 8.93415,4.58582 12.68149,7.89482 3.74735,3.30901 6.8726,7.37865 8.77287,12.00262 3.54272,8.62059 2.53567,18.73004 -1.62026,27.07232 -4.00332,8.03594 -10.85085,14.61879 -19.03828,18.30239 5.99756,1.27414 12.28912,1.14249 18.22813,-0.3814 6.68065,-1.71419 12.81256,-5.13281 18.46405,-9.08632 5.65148,-3.95352 10.89038,-8.46174 16.37193,-12.64769 11.7244,-8.95325 24.71535,-16.49173 38.88664,-20.59013 13.49174,-3.90187 27.86807,-4.59361 41.72213,-2.28778 23.10047,3.84478 43.9536,15.66159 64.8111,26.30954 31.29953,15.9787 63.71841,29.71285 94.78625,46.13748 7.81745,4.13285 15.5773,8.44874 23.8535,11.56281 8.27621,3.11407 17.17664,5.00304 25.97,4.07041 6.95058,-0.73718 13.70506,-3.25392 19.44335,-7.24466 -34.06179,-9.35101 -67.2138,-22.0128 -98.83691,-37.74893 -61.34312,-30.52524 -116.98825,-72.58488 -181.06605,-96.85019 -4.28426,-1.62238 -8.66234,-3.19511 -12.37321,-5.88145 -1.85544,-1.34317 -3.52826,-2.96279 -4.79236,-4.87298 -1.26409,-1.91018 -2.1096,-4.11966 -2.27773,-6.40406 -0.27143,-3.68804 1.32717,-7.46599 4.16332,-9.83908 2.83616,-2.37309 6.83685,-3.28023 10.41918,-2.36252 -4.70811,-3.35947 -10.12913,-5.71472 -15.79768,-6.86357 -10.93084,-2.21537 -22.33396,0.0833 -32.77674,3.99991 -10.44278,3.91656 -20.21281,9.41308 -30.41411,13.92137 -31.556,13.94563 -66.86001,18.16229 -101.26736,15.63322 -2.72995,-0.20066 -5.52762,-0.43629 -8.16091,0.31116 -1.31664,0.37373 -2.5757,0.99842 -3.5895,1.9179 -1.01379,0.91949 -1.77152,2.14507 -2.02192,3.49063"
       id="path4268"
       inkscape:path-effect="#path-effect4270-2"
       inkscape:original-d="m 381.22667,779.77095 c -2.43043,2.28777 -4.03665,3.92085 16.6078,8.38825 20.64447,4.46772 45.77288,5.71971 70.07705,13.72717 24.30414,8.00715 47.39312,23.25929 50.22859,28.2162 2.8355,4.95692 15.79773,11.8202 -1.62026,27.07232 -17.41799,15.25183 -19.03828,18.30239 -19.03828,18.30239 0,0 6.4811,5.3383 18.22813,-0.3814 11.747,-5.71941 23.08894,-10.29492 34.83598,-21.73401 11.747,-11.4391 23.89907,-22.11543 38.88664,-20.59013 14.98755,1.52495 23.49404,-6.48219 41.72213,-2.28778 18.22812,4.19414 24.70925,5.33802 64.8111,26.30954 40.10188,20.97154 76.15305,38.51142 94.78625,46.13748 18.63316,7.62576 26.73455,17.15852 49.8235,15.63322 23.08896,-1.52527 19.44335,-7.24466 19.44335,-7.24466 0,0 -55.89957,-16.01462 -98.83691,-37.74893 -42.93736,-21.73404 -159.1923,-83.50443 -181.06605,-96.85019 -21.87371,-13.34546 -21.87371,-12.2016 -19.4433,-17.15849 2.43042,-4.95693 14.5825,-12.2016 14.5825,-12.2016 0,0 -8.10138,-7.24468 -15.79768,-6.86357 -7.69636,0.38139 -35.81721,11.79483 -63.19085,17.92128 -27.37364,6.12646 -68.47949,6.45561 -101.26736,15.63322 -4.8096,1.3462 -12.10223,4.14762 -13.77233,5.71969 z"
       inkscape:connector-curvature="0"
       sodipodi:nodetypes="szcssccsccscscssscczas" />
    <path
       style="fill:#000000;stroke:#000000;stroke-width:3.11244273000000016px;stroke-linecap:butt;stroke-linejoin:miter;stroke-opacity:1"
       d="m 281.17454,469.39224 c 39.70647,13.35007 11.34659,-32.02609 -5.671,-43.46825 73.01982,12.98693 46.54248,180.25598 19.44337,211.62177 38.88135,-102.03238 -63.40217,-173.66162 -147.0402,-215.4348 85.42317,-8.99615 89.91362,32.7048 133.26783,47.28128 z"
       id="path4597"
       inkscape:connector-curvature="0"
       sodipodi:nodetypes="scccs" />
    <path
       style="fill:#000000;stroke:#000000;stroke-width:3.11244273000000016px;stroke-linecap:butt;stroke-linejoin:miter;stroke-opacity:1"
       d="m 263.35147,877.38363 c 33.72373,-8.24631 59.95026,12.59929 50.6337,-37.36724 -4.26071,4.60362 -6.79793,32.452 -23.8991,24.40287 -42.8773,-20.18066 -11.15929,-51.51264 -30.78533,-88.46134 -20.10628,-37.85311 -26.73455,-59.94739 -26.73455,-108.28959 0,-7.74232 -11.51875,-46.35218 -23.494,-35.07946 -12.1822,11.46748 24.02564,51.89976 10.53179,70.92173 -24.93813,0 -47.73488,-32.86388 -51.84884,-56.4324 -11.35708,37.43005 25.8462,57.52163 26.73457,89.22442 3.31833,118.42297 23.22522,72.95677 34.83594,128.11696 4.18927,19.90223 -28.67457,27.2387 -41.31705,20.59042 32.29278,17.5227 45.41937,-0.30922 75.34287,-7.62637 z"
       id="path4603"
       inkscape:connector-curvature="0"
       sodipodi:nodetypes="sccsssccsscs" />
    <path
       style="fill:#000000;stroke:#000000;stroke-width:3.11244273000000016px;stroke-linecap:butt;stroke-linejoin:miter;stroke-opacity:1"
       d="m 341.12479,700.46036 c -27.4837,36.80858 -57.87113,81.52408 -62.38066,119.72838 -5.05525,-27.29094 16.7674,-72.05716 -14.5825,-83.12362 31.95633,-16.41624 50.22858,-127.05278 81.41892,-222.29812 0.22605,40.69082 -58.31778,207.82446 -4.45576,185.69336 z"
       id="path4605"
       inkscape:connector-curvature="0"
       sodipodi:nodetypes="ccccc" />
    <path
       style="fill:#000000;stroke:#000000;stroke-width:3.11244273000000016px;stroke-linecap:butt;stroke-linejoin:miter;stroke-opacity:1"
       d="m 491.8106,657.75452 c 24.15773,-11.36994 43.97437,-44.65781 54.2793,-64.05816 10.2671,-19.32945 -0.0124,-58.61849 4.86084,-78.92936 2.87274,19.97924 18.8333,69.25458 18.63318,85.79263 -0.45624,37.7006 14.16406,117.73565 51.84886,127.35446 -16.72072,-4.31643 -13.64535,-2.50248 -25.11429,-6.10111 -74.71748,-23.44439 -86.88996,23.87652 -126.38164,25.16595 -46.24084,1.50989 -83.77728,-11.32555 -117.47015,7.62607 -35.21228,19.80592 -49.93254,69.41611 -65.62122,97.99438 9.11544,-107.7699 118.16796,-153.99284 204.96512,-194.84486 z"
       id="path4607"
       inkscape:connector-curvature="0"
       sodipodi:nodetypes="sscscssacs" />
  </g>
</svg>
