<?xml version="1.0" encoding="UTF-8" standalone="no"?>
<!-- Created with Inkscape (http://www.inkscape.org/) -->

<svg
   xmlns:dc="http://purl.org/dc/elements/1.1/"
   xmlns:cc="http://creativecommons.org/ns#"
   xmlns:rdf="http://www.w3.org/1999/02/22-rdf-syntax-ns#"
   xmlns:svg="http://www.w3.org/2000/svg"
   xmlns="http://www.w3.org/2000/svg"
   xmlns:sodipodi="http://sodipodi.sourceforge.net/DTD/sodipodi-0.dtd"
   xmlns:inkscape="http://www.inkscape.org/namespaces/inkscape"
   width="990"
   height="765"
   id="svg3075"
   version="1.1"
   inkscape:version="0.48.4 r9939"
   sodipodi:docname="Bourne.svg">
  <defs
     id="defs3077" />
  <sodipodi:namedview
     id="base"
     pagecolor="#ffffff"
     bordercolor="#666666"
     borderopacity="1.0"
     inkscape:pageopacity="0.0"
     inkscape:pageshadow="2"
     inkscape:zoom="0.49497475"
     inkscape:cx="502.45694"
     inkscape:cy="441.73861"
     inkscape:document-units="px"
     inkscape:current-layer="layer1"
     showgrid="false"
     inkscape:window-width="898"
     inkscape:window-height="819"
     inkscape:window-x="903"
     inkscape:window-y="91"
     inkscape:window-maximized="0" />
  <metadata
     id="metadata3080">
    <rdf:RDF>
      <cc:Work
         rdf:about="">
        <dc:format>image/svg+xml</dc:format>
        <dc:type
           rdf:resource="http://purl.org/dc/dcmitype/StillImage" />
        <dc:title />
      </cc:Work>
    </rdf:RDF>
  </metadata>
  <g
     inkscape:label="Layer 1"
     inkscape:groupmode="layer"
     id="layer1"
     transform="translate(0,-287.36218)">
    <g
       transform="matrix(1.7985384,0.37568371,-0.37568371,1.7985384,-197.09937,-625.41186)"
       id="g3540"
       style="fill:#000000;stroke:#000000">
      <path
         sodipodi:nodetypes="ccccccsccc"
         inkscape:connector-curvature="0"
         id="path3106"
         d="m 515.1778,614.46106 c 1.8458,45.41134 -10.16454,119.38004 -24.54479,156.72683 -14.87527,3.41483 -23.10321,7.42507 -32.52883,15.50417 4.98992,-8.07607 10.63374,-11.99636 19.54479,-15.11902 16.30788,-15.32712 17.37749,-80.26753 -3.12982,-123.27187 -15.88837,-17.10754 -50.85302,-30.45355 -83.08504,-23.48606 -7.52949,-0.49484 -19.29395,3.13152 -12.2481,-3.91433 1.81448,-1.81448 14.94016,3.87393 20.77126,-4.23001 35.26471,-4.66823 103.23802,-4.60883 108.7808,-3.0936 22.65143,-20.70724 16.75566,-14.28451 6.43973,0.88389 z"
         style="fill:#000000;stroke:#000000;stroke-width:1px;stroke-linecap:butt;stroke-linejoin:miter;stroke-opacity:1" />
      <path
         sodipodi:nodetypes="cscsscccc"
         inkscape:connector-curvature="0"
         id="path3110"
         d="m 368.21428,634.68361 c 0.50007,1.60554 -0.57381,8.9792 -7.38293,14.67591 -8.63392,7.2234 -35.72858,41.03658 -31.90277,82.64552 3.45919,-24.25546 11.1558,-45.53107 24.64285,-62.5 9.05306,-11.39025 23.55827,-21.63924 34.46428,-26.78571 12.33781,-5.82213 32.67875,-6.25007 45.17857,-5.89287 4.29163,1.51359 -14.18281,-9.12605 -19.10713,-10.35713 -1.28177,2.37241 -3.09309,4.41141 -5.35715,6.07142 -8.25893,-0.68101 -26.78581,8.17839 -40.53572,2.14286 z"
         style="fill:#000000;stroke:#000000;stroke-width:1px;stroke-linecap:butt;stroke-linejoin:miter;stroke-opacity:1" />
      <path
         sodipodi:nodetypes="cccscssac"
         inkscape:connector-curvature="0"
         id="path3112"
         d="m 427.32143,667.54075 c 0.58534,-17.19248 -31.33646,-13.30409 -44.10714,-5.35714 1.36412,-4.37739 -8.46877,-1.81138 -12.14286,-0.89286 12.19253,-10.6022 38.71591,-12.951 58.39286,-17.85714 4.6465,-1.15853 9.89276,-5.66405 13.92857,-9.10714 4.57152,4.23547 6.48477,8.13886 8.03571,10.17857 3.92857,5.16663 18.99284,4.54799 16.60715,7.67857 -2.80878,3.68575 -14.90503,0.81014 -21.78572,3.39286 -6.98817,2.62306 -13.26661,0.0884 -18.92857,11.96428 z"
         style="fill:#000000;stroke:#000000;stroke-width:1px;stroke-linecap:butt;stroke-linejoin:miter;stroke-opacity:1" />
      <path
         sodipodi:nodetypes="cssssssssssszccc"
         inkscape:connector-curvature="0"
         id="path3499"
         d="m 642.9621,611.4306 c -10.28784,3.17099 -46.68446,27.57466 -80.0546,59.09392 -8.27845,7.81928 -42.00504,44.51368 -47.47717,53.15928 -7.35662,11.62297 -15.65736,23.78289 -15.65736,35.35533 0,3.71917 5.6132,-9.34391 9.84899,-12.75317 5.36008,-4.31417 6.63684,-7.35903 12.87945,-10.48033 2.25505,-1.12753 7.47077,-1.6842 8.71256,-3.91434 7.13918,-12.82129 12.40583,-18.12448 39.39595,-35.22907 2.78944,-1.76777 27.12716,-3.70136 30.30458,-2.39911 3.91665,1.60521 1.82558,-2.00104 0.25253,-2.52539 -6.35499,-2.11833 -11.13814,-1.87855 -17.80394,-1.51522 -9.43367,0.5142 -17.58526,2.03104 -17.29886,0.88387 2.20978,-8.85123 11.3089,-23.61537 22.22336,-34.97652 10.91446,-11.36115 29.09422,-25.48093 38.50577,-33.14149 6.75701,-4.10039 10.30269,-8.26901 9.01834,-0.90047 2.62999,-6.39478 3.88226,-8.91034 7.1504,-10.65729 z"
         style="fill:#000000;stroke:#000000;stroke-width:1px;stroke-linecap:butt;stroke-linejoin:miter;stroke-opacity:1" />
      <path
         sodipodi:nodetypes="csscccc"
         inkscape:connector-curvature="0"
         id="path3501"
         d="m 577.30218,682.64635 c 6.52813,-15.23226 12.53381,-25.44109 20.70813,-30.30458 47.01758,-27.97412 65.3773,-21.10973 101.9431,-1.34191 9.46989,5.11951 29.43833,12.4913 42.00363,17.50436 -34.35725,-8.03617 -71.51205,-32.60942 -122.22845,-19.69798 2.801,4.76093 6.37982,7.80394 9.59645,10.10153 -33.4386,-15.38507 -46.46771,20.0169 -52.02286,23.73858 z"
         style="fill:#000000;stroke:#000000;stroke-width:1px;stroke-linecap:butt;stroke-linejoin:miter;stroke-opacity:1" />
      <path
         sodipodi:nodetypes="cccscccsscsscssc"
         inkscape:connector-curvature="0"
         id="path3503"
         d="m 511.78571,722.8979 c 8.20925,-31.70187 40.81008,-41.41181 37.40066,-56.58702 -7.03183,6.00756 -11.70457,15.61894 -17.35469,14.16099 0,0 -1.76919,-13.83125 18.34689,-42.3954 20.28792,-28.80816 46.25181,-30.88204 46.78572,-27.67857 l 0,0 0,0 c 0,0 -2.23698,-4.77568 0.2884,-10.07898 2.52538,-5.3033 5.93216,-6.81249 7.57615,-10.10153 5.54523,-11.094 -8.78741,-33.84165 -9.84899,-32.07234 0,0 8.70259,17.1272 4.29315,27.77919 -2.89796,7.00067 -25.00223,19.40247 -44.44671,19.95052 -8.88235,0.25035 -5.05374,-6.65945 -6.81853,-15.40482 0,0 -12.85217,29.52926 -19.95052,49.24493 -7.09236,19.69903 -3.40695,34.15684 -5.3033,41.16372 -4.20993,15.55538 -10.96823,42.01931 -10.96823,42.01931 z"
         style="fill:#000000;stroke:#000000;stroke-width:1px;stroke-linecap:butt;stroke-linejoin:miter;stroke-opacity:1" />
      <path
         sodipodi:nodetypes="ccsscssc"
         inkscape:connector-curvature="0"
         id="path3515"
         d="m 510.53572,552.54075 c 13.58566,7.44817 -4.48014,34.59426 2.32143,43.03571 -0.84027,-2.87066 2.46192,-10.46985 4.46427,-12.85713 9.0884,-10.83558 9.14065,-11.15879 17.50001,-14.10715 6.19539,-2.18512 28.13966,-30.19141 25.89286,-48.03571 -2.80651,10.36488 -7.49616,25.16049 -17.67858,34.10714 -3.782,3.32301 -16.22468,10.74253 -18.39285,6.96429 -1.87353,-3.2648 -10.87772,-9.9146 -14.10714,-9.10715 z"
         style="fill:#000000;stroke:#000000;stroke-width:1px;stroke-linecap:butt;stroke-linejoin:miter;stroke-opacity:1" />
      <path
         sodipodi:nodetypes="ccscccccc"
         inkscape:connector-curvature="0"
         id="path3517"
         d="m 377.85715,495.75504 c 1.72101,16.9246 3.58492,32.14703 10.71428,46.78571 8.52891,17.05783 31.0527,44.18707 48.75,53.03572 9.86586,4.93292 21.96725,6.13128 33.39285,5.71428 -15.64207,10.46052 -39.08949,-4.29842 -68.21428,10.89286 3.18952,-5.28056 7.82556,-8.64903 12.14285,-12.14286 -13.2219,-11.96634 -19.42452,-19.74191 -27.14285,-35.17857 -10.3082,-24.1202 -13.86867,-57.41713 -12.67858,-82.23214 3.13736,0.13144 2.58646,10.01886 3.03573,13.125 z"
         style="fill:#000000;stroke:#000000;stroke-width:1px;stroke-linecap:butt;stroke-linejoin:miter;stroke-opacity:1" />
      <path
         sodipodi:nodetypes="cccccscsssc"
         inkscape:connector-curvature="0"
         id="path3519"
         d="m 425.17857,530.93361 c 9.85848,7.58881 14.74515,28.58258 21.60714,34.46429 0.55258,-6.85354 5.58475,-15.36886 6.78572,-18.57143 -4.21274,13.46967 4.38987,25.04556 13.57143,30.35714 -1.5334,-3.6258 -1.10911,-6.52233 1.07143,-11.96429 0.83873,5.27802 1.79963,8.72918 3.92857,13.21429 3.85383,8.11902 15.49726,7.64036 15.89286,27.67857 -2.47558,-6.61199 -6.81897,-9.57019 -13.39286,-12.85714 -8.66263,-4.33132 -15.37675,0.5161 -25.89286,-7.5 -12.75636,-9.72379 -10.73914,-26.83542 -17.14286,-39.64285 -2.34423,-4.68847 -3.99801,-11.77579 -6.42857,-15.17858 z"
         style="fill:#000000;stroke:#000000;stroke-width:1px;stroke-linecap:butt;stroke-linejoin:miter;stroke-opacity:1" />
      <path
         sodipodi:nodetypes="cssscccccc"
         inkscape:connector-curvature="0"
         id="path3521"
         d="m 541.36729,447.15669 c 2.60548,5.36129 -0.79606,23.82116 -3.07378,29.67939 -5.90008,15.17488 -15.91833,26.75064 -23.93908,42.79215 -7.93354,15.86708 -6.55289,19.82035 -16.8934,35.33112 -2.94926,4.42389 -11.8275,17.00553 -13.25762,17.64114 4.45403,-0.19422 4.66035,0.085 7.84971,-1.11104 1.74706,15.22982 5.87392,44.56617 26.3673,28.78064 -26.4702,9.68112 -12.6099,-71.62316 6.31345,-77.36014 -2.95627,-0.41951 -8.59626,4.50395 -11.24475,4.79823 4.49949,-11.36513 41.79772,-59.20086 27.87817,-80.55149 z"
         style="fill:#000000;stroke:#000000;stroke-width:1px;stroke-linecap:butt;stroke-linejoin:miter;stroke-opacity:1" />
    </g>
  </g>
</svg>
