<?xml version="1.0" encoding="UTF-8" standalone="no"?>
<!-- Created with Inkscape (http://www.inkscape.org/) -->

<svg
   xmlns:dc="http://purl.org/dc/elements/1.1/"
   xmlns:cc="http://creativecommons.org/ns#"
   xmlns:rdf="http://www.w3.org/1999/02/22-rdf-syntax-ns#"
   xmlns:svg="http://www.w3.org/2000/svg"
   xmlns="http://www.w3.org/2000/svg"
   xmlns:sodipodi="http://sodipodi.sourceforge.net/DTD/sodipodi-0.dtd"
   xmlns:inkscape="http://www.inkscape.org/namespaces/inkscape"
   width="990"
   height="765"
   id="svg3736"
   version="1.1"
   inkscape:version="0.48.4 r9939"
   sodipodi:docname="Floating School - Outside.svg">
  <defs
     id="defs3738" />
  <sodipodi:namedview
     id="base"
     pagecolor="#ffffff"
     bordercolor="#666666"
     borderopacity="1.0"
     inkscape:pageopacity="0.0"
     inkscape:pageshadow="2"
     inkscape:zoom="0.35"
     inkscape:cx="410.73121"
     inkscape:cy="520"
     inkscape:document-units="px"
     inkscape:current-layer="layer1"
     showgrid="false"
     inkscape:window-width="573"
     inkscape:window-height="520"
     inkscape:window-x="295"
     inkscape:window-y="99"
     inkscape:window-maximized="0" />
  <metadata
     id="metadata3741">
    <rdf:RDF>
      <cc:Work
         rdf:about="">
        <dc:format>image/svg+xml</dc:format>
        <dc:type
           rdf:resource="http://purl.org/dc/dcmitype/StillImage" />
        <dc:title />
      </cc:Work>
    </rdf:RDF>
  </metadata>
  <g
     inkscape:label="Layer 1"
     inkscape:groupmode="layer"
     id="layer1"
     transform="translate(0,-287.36218)">
    <g
       transform="matrix(3.2197686,0,0,3.2197686,-986.96125,-679.16296)"
       id="g3726">
      <path
         sodipodi:nodetypes="cccssscsssc"
         inkscape:connector-curvature="0"
         id="path3523"
         d="m 374.27519,367.70027 c -9.04395,1.2606 -12.15583,8.55721 -14.50231,14.21555 -2.62809,-2.61657 -1.51213,-5.28669 -3.78923,-7.56378 1.70349,21.43512 -4.24065,33.66967 -1.54113,47.73175 0.87989,4.58338 3.18003,9.48879 5.2039,13.08766 14.20279,25.25556 13.87972,36.97705 7.90103,53.03565 -1.29956,3.4906 -9.78462,14.4917 -6.37141,22.08555 2.52512,-13.24233 9.51075,-19.31022 12.78197,-23.79727 25.83623,-35.43883 -15.91956,-60.32464 -13.31781,-84.97296 0.7443,-7.0514 0.52268,-17.37791 5.62044,-25.83901 2.26215,-3.75463 6.52682,-6.36136 8.01455,-7.98314 z"
         style="fill:none;stroke:#000000;stroke-width:0.7296195px;stroke-linecap:butt;stroke-linejoin:miter;stroke-opacity:1" />
      <path
         sodipodi:nodetypes="cccccsc"
         inkscape:connector-curvature="0"
         id="path3654"
         d="m 382.80497,472.93865 c -4.06168,15.16673 -7.02932,22.13773 -13.08223,28.00702 10.9325,-8.70374 19.94205,-24.83926 31.32365,-16.76736 0.75753,-9.10259 9.63912,-15.14936 16.95162,-19.34696 13.92688,-7.64499 27.7725,-3.87434 37.40412,7.92305 -7.04562,-20.76573 -35.68194,-16.95706 -41.64202,-15.66183 -9.87956,2.147 -22.57059,9.76784 -30.95514,15.84608 z"
         style="fill:none;stroke:#000000;stroke-width:0.7296195px;stroke-linecap:butt;stroke-linejoin:miter;stroke-opacity:1" />
      <path
         sodipodi:nodetypes="ccccccssscc"
         inkscape:connector-curvature="0"
         id="path3656"
         d="m 438.08199,489.15325 c 1.36854,-3.6158 1.01751,-5.93305 1.47405,-10.04199 5.80988,-0.53129 7.92061,2.85608 12.71373,3.86939 14.45374,-2.21954 21.39519,-1.28386 36.29858,17.68864 0.21082,-5.96404 -6.10872,-10.6043 -6.81751,-11.0554 3.64871,3.35934 13.01221,1.11108 19.07058,4.97493 -5.09472,-6.42309 -15.15218,-4.58105 -21.7423,-8.75219 -4.24834,-2.68895 -7.23895,-4.21832 -12.06882,-6.63325 -4.92021,-2.46011 -16.40032,-1.26642 -21.00526,-4.42216 -7.24523,-4.96513 -15.22701,-11.21601 -21.18953,-11.42392 13.78246,12.16944 11.49344,13.99704 13.26648,25.79595 z"
         style="fill:none;stroke:#000000;stroke-width:0.7296195px;stroke-linecap:butt;stroke-linejoin:miter;stroke-opacity:1" />
      <path
         sodipodi:nodetypes="ccscsccsscc"
         inkscape:connector-curvature="0"
         id="path3658"
         d="m 394.21283,407.2296 c 0.7311,3.29519 -0.70652,4.50714 0.0131,7.38561 15.34842,-2.13209 26.18996,-7.91435 36.57311,-15.90408 7.16994,-5.51719 14.06917,-3.42806 24.35753,-14.91235 -1.13044,2.50613 -2.75021,7.61427 -6.41384,9.56787 -12.44205,6.63462 -15.44738,15.49984 -27.96127,25.03892 3.10562,-1.4601 3.00254,0.41146 6.4169,-0.44213 -4.42027,2.94063 -6.39966,5.99954 -9.96249,9.56237 -2.67586,2.67586 -13.44878,1.9351 -17.16656,3.17436 -15.31085,5.10362 -12.24719,18.71789 -12.63805,33.22375 -6.80961,-18.61494 -6.51379,-32.04147 6.78157,-56.69432 z"
         style="fill:none;stroke:#000000;stroke-width:0.7296195px;stroke-linecap:butt;stroke-linejoin:miter;stroke-opacity:1" />
      <path
         sodipodi:nodetypes="sscssssscs"
         inkscape:connector-curvature="0"
         id="path3660"
         d="m 456.59979,447.05058 c -5.18013,-1.1261 -13.08012,-5.90176 -20.54462,-5.80409 -11.31584,0.14808 -20.99594,8.16033 -31.18546,8.93645 4.38462,-2.65243 12.02326,-6.11856 14.87874,-13.63499 1.1608,-3.05554 0.36906,-7.16454 1.56618,-11.42393 0.0568,-0.20185 2.40896,-0.34476 2.30321,-0.0921 -0.62128,1.48427 2.78144,7.06273 7.4624,8.93645 2.30474,0.92256 5.92245,0.87902 7.09388,1.75044 6.78811,5.04957 24.02964,10.51529 32.65952,10.22625 -3.4736,1.32982 -10.00922,2.02392 -14.23385,1.10554 z"
         style="fill:none;stroke:#000000;stroke-width:0.7296195px;stroke-linecap:butt;stroke-linejoin:miter;stroke-opacity:1" />
      <path
         sodipodi:nodetypes="csssscccc"
         inkscape:connector-curvature="0"
         id="path3664"
         d="m 439.41664,401.77597 c 2.45967,7.30604 -11.24418,23.68997 -8.72938,27.23045 1.43373,2.01849 8.2373,-5.4237 11.33516,-6.51446 17.6485,-6.21412 38.69576,2.62781 42.2137,3.64809 9.64402,2.79697 30.13117,16.5057 36.2204,24.62466 4.34948,5.79931 10.98609,20.30027 17.19816,23.06119 -6.08774,-12.12515 -10.23819,-15.58758 -21.23713,-39.8685 -10.90856,-3.93212 -22.08973,-9.46368 -33.7449,-12.37747 -17.53116,-5.98896 -30.49121,-13.82353 -43.25601,-19.80396 z"
         style="fill:none;stroke:#000000;stroke-width:0.7296195px;stroke-linecap:butt;stroke-linejoin:miter;stroke-opacity:1" />
      <path
         sodipodi:nodetypes="cssccsszsccc"
         inkscape:connector-curvature="0"
         id="path3666"
         d="m 496.09243,422.23137 c 6.32878,0.20752 23.44326,2.25787 27.23045,-1.1726 3.17891,-2.87948 11.24702,-5.38476 11.72603,-5.60243 6.96001,-3.16273 10.17441,-8.05272 16.41643,-10.03227 10.68461,-3.56153 11.98622,2.62795 19.93425,-6.64475 0.20681,2.00551 -0.8817,4.24141 -2.86637,5.60244 -6.08358,4.17193 -9.30038,3.3189 -15.24383,4.42983 -4.38448,0.81952 -5.86129,4.4725 -9.18822,5.9002 -3.32693,1.4277 -9.51824,6.07403 -7.3585,11.68884 1.11681,2.90346 4.95764,6.22297 7.68706,6.90533 -6.84383,-0.55646 -8.41703,-4.15631 -14.72269,-5.73273 -8.31499,-4.08084 -19.18548,1.66912 -33.61461,-5.34186 z"
         style="fill:none;stroke:#000000;stroke-width:0.7296195px;stroke-linecap:butt;stroke-linejoin:miter;stroke-opacity:1" />
      <path
         sodipodi:nodetypes="ccccc"
         inkscape:connector-curvature="0"
         id="path3724"
         d="m 445.47727,400.05617 c 33.32969,3.30301 39.63955,-44.8156 54.04316,-74.24621 -4.10932,22.89659 -20.27548,57.2444 -21.08692,71.08949 3.97792,3.12717 10.04171,1.92393 13.63705,0.12626 -6.34151,8.90553 -43.14203,11.34402 -46.59329,3.03046 z"
         style="fill:none;stroke:#000000;stroke-width:1px;stroke-linecap:butt;stroke-linejoin:miter;stroke-opacity:1" />
    </g>
  </g>
</svg>
