<?xml version="1.0" encoding="UTF-8" standalone="no"?>
<!-- Created with Inkscape (http://www.inkscape.org/) -->

<svg
   xmlns:dc="http://purl.org/dc/elements/1.1/"
   xmlns:cc="http://creativecommons.org/ns#"
   xmlns:rdf="http://www.w3.org/1999/02/22-rdf-syntax-ns#"
   xmlns:svg="http://www.w3.org/2000/svg"
   xmlns="http://www.w3.org/2000/svg"
   xmlns:sodipodi="http://sodipodi.sourceforge.net/DTD/sodipodi-0.dtd"
   xmlns:inkscape="http://www.inkscape.org/namespaces/inkscape"
   width="990"
   height="765"
   id="svg3930"
   version="1.1"
   inkscape:version="0.48.4 r9939"
   sodipodi:docname="Floating School - Aloft.svg">
  <defs
     id="defs3932" />
  <sodipodi:namedview
     id="base"
     pagecolor="#ffffff"
     bordercolor="#666666"
     borderopacity="1.0"
     inkscape:pageopacity="0.0"
     inkscape:pageshadow="2"
     inkscape:zoom="0.7"
     inkscape:cx="417.74051"
     inkscape:cy="600.40538"
     inkscape:document-units="px"
     inkscape:current-layer="layer1"
     showgrid="false"
     inkscape:window-width="1855"
     inkscape:window-height="1056"
     inkscape:window-x="65"
     inkscape:window-y="24"
     inkscape:window-maximized="1" />
  <metadata
     id="metadata3935">
    <rdf:RDF>
      <cc:Work
         rdf:about="">
        <dc:format>image/svg+xml</dc:format>
        <dc:type
           rdf:resource="http://purl.org/dc/dcmitype/StillImage" />
        <dc:title />
      </cc:Work>
    </rdf:RDF>
  </metadata>
  <g
     inkscape:label="Layer 1"
     inkscape:groupmode="layer"
     id="layer1"
     transform="translate(0,-287.36218)">
    <g
       transform="matrix(-0.82317503,-2.0984219,2.0984219,-0.82317503,256.28316,1684.6362)"
       id="g3922"
       style="fill:#000000;stroke:#000000">
      <path
         sodipodi:nodetypes="ccccsscc"
         inkscape:connector-curvature="0"
         id="path3822"
         d="m 362.67857,401.46932 c 11.67376,-18.10266 22.61033,-2.88545 41.78572,-21.78571 -57.57957,26.40462 -0.91431,-26.09102 9.28571,-52.85715 -3.59251,-30.9351 -5.81836,-50.02862 4.82143,-68.66071 -12.9733,15.30495 -15.91341,43.37492 -21.5242,55.03698 -2.36604,4.91781 -2.67763,16.745 -4.55992,21.78572 -4.78519,12.81458 -6.36857,21.74614 -13.02302,38.26658 -4.21613,15.51673 -19.83547,20.32907 -16.07143,27.85715"
         style="fill:#000000;stroke:#000000;stroke-width:1px;stroke-linecap:butt;stroke-linejoin:miter;stroke-opacity:1" />
      <path
         sodipodi:nodetypes="ccccccscccc"
         inkscape:connector-curvature="0"
         id="path3824"
         d="m 299.01786,370.48718 c 1.04395,-3.37347 7.66205,-7.00214 11.60714,-10.35715 7.32558,-12.9996 25.12292,-33.16874 35.05865,-36.08674 11.38017,-2.61429 29.85308,11.63157 32.08607,20.72961 3.72883,-6.36238 4.80349,-12.22038 8.58861,-22.91208 1.71022,13.89217 -8.39002,19.42727 -8.32261,46.92993 -4.87882,-11.79544 -4.65917,-14.81206 -9.38135,-20.74492 -17.84479,-22.41993 -44.79543,-3.99197 -53.58938,11.89928 -13.07716,23.57884 -13.30967,31.2984 -19.88642,41.16707 4.65134,-19.81677 13.38677,-29.41117 14.10714,-36.58548 -1.53315,1.37976 -6.35017,3.0968 -10.26785,5.96048 z"
         style="fill:#000000;stroke:#000000;stroke-width:1px;stroke-linecap:butt;stroke-linejoin:miter;stroke-opacity:1" />
      <path
         sodipodi:nodetypes="ccccscccccc"
         inkscape:connector-curvature="0"
         id="path3832"
         d="m 307.23214,296.11218 c 16.53072,-23.3248 59.58024,-37.43922 72.99104,-0.0446 -0.0953,-3.01518 0.0642,-7.2566 -1.11604,-10.58037 0.92262,-1.36904 3.3631,-1.75595 4.28572,-3.12499 -1.3883,-1.17349 -3.06581,-0.26777 -4.51678,-1.38702 -10.68092,-8.239 -23.33359,-16.98163 -46.46536,-20.93441 -3.28368,8.69376 -37.34878,36.50414 -55.53572,46.42857 4.19279,-2.16932 9.68522,-3.72654 12.94643,-5.35714 -2.17416,2.37068 -3.59297,5.53015 -4.55357,7.76786 4.24775,-5.12515 14.89343,-15.59992 21.96428,-12.76786 z"
         style="fill:#000000;stroke:#000000;stroke-width:1px;stroke-linecap:butt;stroke-linejoin:miter;stroke-opacity:1" />
      <path
         sodipodi:nodetypes="ccccscccc"
         inkscape:connector-curvature="0"
         id="path3912"
         d="m 396.07143,300.39789 c 0.91125,-2.56816 1.39974,-4.63821 2.67857,-6.42857 -5.79896,-5.0144 -5.424,-21.54109 -4.01786,-31.07142 -23.66579,-24.30236 -24.45271,-61.90034 -14.375,-88.75 -5.10784,4.56047 -7.33844,22.39975 -8.21428,25.71428 -4.81606,18.22589 10.39721,40.63451 -15.62501,51.42857 5.31298,-1.31001 10.00709,-1.07143 15.80358,-1.07143 0.0553,6.90213 -1.83981,14.39716 -4.91072,18.92858 17.63831,-0.35144 25.21397,17.46299 28.66072,31.24999 z"
         style="fill:#000000;stroke:#000000;stroke-width:1px;stroke-linecap:butt;stroke-linejoin:miter;stroke-opacity:1" />
      <path
         sodipodi:nodetypes="cccccccccsscsscccscccssccsc"
         inkscape:connector-curvature="0"
         id="path3914"
         d="m 285.17857,198.43361 c -4.28775,-4.99816 -1.21635,-19.68217 -4.28571,-16.87501 2.59871,-16.95516 23.34592,-40.59771 33.74999,-36.25 1.73612,-1.14606 3.19438,-2.86678 3.92858,-5.80356 12.49244,4.69012 42.72535,2.82404 54.28571,-9.46429 -0.091,7.80803 3.28577,11.97708 7.76786,15.17858 1.64599,1.4465 3.69069,7.69897 4.55357,9.99999 0.80608,2.88231 3.25773,3.61004 5.53572,4.46429 -5.74396,-11.19854 -7.51246,-27.06995 -18.75,-35.53572 3.1566,0.383 6.22108,-0.11808 7.67856,-3.30357 1.63153,-3.5659 1.39544,-6.92428 2.76787,-9.01785 7.41869,-11.31686 16.45761,-9.68972 27.23214,-15.892863 -10.12529,9.064253 -20.26906,8.919413 -22.99982,18.459393 -8.70217,30.40112 15.27822,52.91512 19.27674,68.63116 3.25038,12.77551 7.69788,39.51676 8.09808,49.4273 3.3622,-0.70956 7.68826,-7.57742 8.83928,-11.16071 1.0039,7.14027 -5.11507,12.74752 -8.83928,17.32143 -0.22867,7.47124 -2.28951,19.77027 -4.37501,24.28572 -6.28488,13.6078 -8.51574,7.0209 -7.23213,27.49999 -5.57941,-13.86374 1.04039,-29.21125 1.96428,-31.96428 1.385,-5.9976 -0.77209,-33.18205 -4.81079,-43.54437 -4.26482,-15.78232 1.75903,-40.58382 -15.01063,-55.83063 -4.46241,-4.05718 0.70078,-10.35011 -14.36442,-10.59806 -7.49376,-0.12333 -15.96374,2.50128 -16.26059,16.40163 -5.10811,-20.59722 -37.39693,-20.71398 -43.03571,-6.25 -6.17717,-14.94972 -22.122,11.58519 -25.53571,20.71428 -2.11065,5.64439 0.37173,15.40162 -0.35715,19.28572"
         style="fill:#000000;stroke:#000000;stroke-width:1px;stroke-linecap:butt;stroke-linejoin:miter;stroke-opacity:1" />
      <path
         sodipodi:nodetypes="cccccsccccccccc"
         inkscape:connector-curvature="0"
         id="path3918"
         d="m 450.71428,205.04075 c 10.01994,-4.48096 23.00407,-3.19245 31.07143,-3.03572 27.49549,1.74512 42.04936,21.94463 55.53572,-4.64285 1.68373,6.98726 -5.72125,10.5276 -1.42857,15.53572 -18.59739,1.97888 -42.02745,-7.47748 -48.75,3.39285 -10.18741,-9.13941 -10.80989,-9.2743 -13.39286,-9.28571 -20.4273,-0.0903 -43.25805,19.60399 -45,29.10714 8.41563,1.15529 14.07646,-4.00869 19.46429,-7.85714 0.42961,1.21215 2.32311,1.60882 2.85714,2.14285 -15.69161,6.19146 -16.68324,23.56451 -19.82143,40.53572 0.48693,-8.2569 1.52509,-23.38083 4.64286,-31.42857 -11.5745,2.25914 -13.77399,6.09541 -19.64286,13.75 2.73458,-14.40036 14.72239,-38.04078 27.85714,-46.25 0.67342,-4.81175 -1.29168,-7.98909 1.33929,-14.28571 2.71013,4.43625 0.66966,10.02232 5.26785,12.32142 z"
         style="fill:#000000;stroke:#000000;stroke-width:1px;stroke-linecap:butt;stroke-linejoin:miter;stroke-opacity:1" />
    </g>
  </g>
</svg>
