<?xml version="1.0" encoding="UTF-8" standalone="no"?>
<!-- Created with Inkscape (http://www.inkscape.org/) -->

<svg
   xmlns:dc="http://purl.org/dc/elements/1.1/"
   xmlns:cc="http://creativecommons.org/ns#"
   xmlns:rdf="http://www.w3.org/1999/02/22-rdf-syntax-ns#"
   xmlns:svg="http://www.w3.org/2000/svg"
   xmlns="http://www.w3.org/2000/svg"
   xmlns:sodipodi="http://sodipodi.sourceforge.net/DTD/sodipodi-0.dtd"
   xmlns:inkscape="http://www.inkscape.org/namespaces/inkscape"
   width="990"
   height="765"
   id="svg3261"
   version="1.1"
   inkscape:version="0.48.4 r9939"
   sodipodi:docname="Labyrinth of the Serpent - Alternate.svg">
  <defs
     id="defs3263" />
  <sodipodi:namedview
     id="base"
     pagecolor="#ffffff"
     bordercolor="#666666"
     borderopacity="1.0"
     inkscape:pageopacity="0.0"
     inkscape:pageshadow="2"
     inkscape:zoom="0.98994949"
     inkscape:cx="627.91599"
     inkscape:cy="408.70822"
     inkscape:document-units="px"
     inkscape:current-layer="layer1"
     showgrid="false"
     showguides="true"
     inkscape:guide-bbox="true"
     inkscape:window-width="1855"
     inkscape:window-height="1056"
     inkscape:window-x="65"
     inkscape:window-y="24"
     inkscape:window-maximized="1">
    <sodipodi:guide
       orientation="0,1"
       position="-1,1"
       id="guide3319" />
  </sodipodi:namedview>
  <metadata
     id="metadata3266">
    <rdf:RDF>
      <cc:Work
         rdf:about="">
        <dc:format>image/svg+xml</dc:format>
        <dc:type
           rdf:resource="http://purl.org/dc/dcmitype/StillImage" />
        <dc:title></dc:title>
      </cc:Work>
    </rdf:RDF>
  </metadata>
  <g
     inkscape:label="Layer 1"
     inkscape:groupmode="layer"
     id="layer1"
     transform="translate(0,-287.36218)">
    <path
       style="fill:none;stroke:#000000;stroke-width:2.28588963px;stroke-linecap:butt;stroke-linejoin:miter;stroke-opacity:1"
       d="m 407.15109,666.70229 c 7.84781,-16.15691 32.47983,-39.67718 51.78305,-44.27935 19.30326,-4.60191 50.37418,7.21874 81.2936,9.4171 30.91943,2.19834 49.34982,-5.20922 93.4371,-19.22449 42.49328,-13.07348 93.84416,-23.7518 138.07578,-25.19355 -15.45661,14.07524 -47.57901,11.99875 -90.90752,26.65013 -43.32853,14.65137 -96.05882,39.3727 -148.0969,92.73663 -6.38745,-18.54368 -30.46721,-29.98128 -51.84238,-28.8791 -11.93962,0.61567 -21.03412,15.69542 -27.44619,23.24045 6.31645,-28.14834 3.39525,-36.94842 -15.32405,-40.83661 -16.78878,-3.48708 -18.32618,0.49767 -30.97249,6.36879 z"
       id="path4297"
       inkscape:connector-curvature="0"
       sodipodi:nodetypes="czzcczcscsc" />
    <path
       style="fill:none;stroke:#000000;stroke-width:2.28588963px;stroke-linecap:butt;stroke-linejoin:miter;stroke-opacity:1"
       d="m 900.20143,870.84776 c -10.86896,-1.57091 -79.92593,5.41948 -60.27549,-22.41306 -46.72501,59.90724 -98.924,-0.25864 -141.84476,-35.26215 -16.55243,-17.3144 -57.53609,-40.70192 -72.57692,-52.1316 -77.87903,-46.42707 -116.48316,-48.966 -159.7147,-38.04229 -16.11988,5.54992 -11.6409,16.35591 3.8412,14.18288 47.40155,-31.01944 197.81008,59.01497 164.83991,107.50345 24.83504,-24.89626 116.71185,27.9511 110.06717,61.16261 24.36269,-26.67402 52.00108,-16.94043 78.89575,2.21858 6.73395,-39.65625 49.88615,-34.9355 76.76784,-37.21842 z"
       id="path4392"
       inkscape:connector-curvature="0"
       sodipodi:nodetypes="cccccccccc" />
    <path
       style="fill:none;stroke:#000000;stroke-width:2.28588963px;stroke-linecap:butt;stroke-linejoin:miter;stroke-opacity:1"
       d="m 533.2782,555.57807 c 25.89225,-19.94252 52.98868,-99.09961 39.62462,-177.47098 -7.6628,24.44816 -2.21477,61.73064 -17.05694,79.68736 -17.74083,21.46343 -31.57693,25.43353 -55.10711,34.9228 -21.49505,8.66858 -40.91831,25.37619 -56.15676,43.81214 -22.65446,27.40827 -20.36801,76.70891 -39.88705,100.32359 9.88526,-2.96613 18.63165,-15.55655 22.04287,-25.39808 5.80905,-16.75965 3.90904,-34.57256 15.74488,-48.89207 14.83033,-17.94238 40.94278,-3.20424 36.47563,22.22351 6.27852,-28.35868 42.05893,-19.76451 54.31986,-29.20827 z"
       id="path4412"
       inkscape:connector-curvature="0"
       sodipodi:nodetypes="scssscsscs" />
    <path
       style="fill:none;stroke:#000000;stroke-width:2.28588963px;stroke-linecap:butt;stroke-linejoin:miter;stroke-opacity:1"
       d="m 438.25049,617.85461 c 24.10028,-19.01502 61.29982,-35.87636 81.51221,-37.02024 13.8056,-0.7813 35.95398,-24.1405 44.82339,-31.81697 47.17452,6.34791 114.7964,-3.21756 139.57596,-36.32657 -0.89683,9.4138 53.98644,33.05696 53.72009,34.1995 -3.45248,14.80335 -43.84983,-3.77242 -43.84983,-3.77242 -20.20885,-5.32384 -88.37559,25.38059 -112.98117,49.60372 -42.0522,-9.35766 -57.96238,3.98438 -100.76061,7.12397 -10.19872,0.74802 -32.23138,8.41368 -43.95199,14.85342 -6.18246,3.39676 -22.48384,6.62385 -18.08805,3.15559 z"
       id="path4434"
       inkscape:connector-curvature="0"
       sodipodi:nodetypes="sscccscsss"
       inkscape:transform-center-x="-13.359976"
       inkscape:transform-center-y="-39.510634" />
    <path
       style="fill:none;stroke:#000000;stroke-width:2.28588963px;stroke-linecap:butt;stroke-linejoin:miter;stroke-opacity:1"
       d="m 412.19778,748.09836 c 7.40068,6.4613 12.23808,3.73044 18.20862,-3.45094 -1.41124,61.80495 3.23779,80.5415 28.66554,139.14855 5.67738,13.08551 20.32944,33.36351 22.18172,40.99176 -6.56699,-28.80428 -55.531,-129.97229 -12.61597,-151.35943 8.93031,-3.61324 9.97201,-7.70033 18.94103,-6.49939 -7.51932,-4.46472 -8.86312,-3.10793 -12.12653,-3.66804 -4.58954,-0.78751 -7.85352,3.29275 -11.96371,2.93524 -21.4402,-1.86534 -27.09899,-97.96124 -47.83637,-91.40761 11.04093,15.38094 24.09891,59.23469 -3.45433,73.30986 z"
       id="path4454"
       inkscape:connector-curvature="0"
       sodipodi:nodetypes="ccsccccscc" />
    <path
       style="fill:none;stroke:#000000;stroke-width:2.28588963px;stroke-linecap:butt;stroke-linejoin:miter;stroke-opacity:1"
       d="m 413.6782,685.30496 c 7.76992,58.35833 -29.58176,90.0824 -26.39256,140.62489 -6.51773,-32.28185 -12.77457,5.72583 -16.06666,12.30974 -4.88123,-57.02744 50.84969,-99.23986 42.45922,-152.93463 z"
       id="path4478"
       inkscape:connector-curvature="0" />
    <path
       style="fill:none;stroke:#000000;stroke-width:1.5315578px;stroke-linecap:butt;stroke-linejoin:miter;stroke-opacity:1"
       d="m 395.8644,665.79058 c -7.17835,8.87255 -26.37222,19.25149 -39.71658,18.50005 -13.34432,-0.75155 -32.46404,-14.31447 -52.66429,-21.66635 -20.20021,-7.35185 -33.31102,-6.13326 -64.21869,-5.5982 -29.73676,0.23636 -65.04376,-2.76777 -94.50394,-10.33827 11.96023,-6.07354 32.97185,1.43117 63.45524,0.34162 30.4834,-1.08953 68.42694,-6.8425 109.42721,-31.12998 1.95311,13.14047 16.49137,25.11429 30.77793,28.51231 7.98013,1.89813 15.85161,-6.043 21.0226,-9.6586 -7.63609,16.87063 -6.78203,23.08545 5.13382,29.17936 10.68694,5.46534 12.19377,3.20065 21.2867,1.85806 z"
       id="path4297-5"
       inkscape:connector-curvature="0"
       sodipodi:nodetypes="czzcczcscsc" />
    <path
       style="fill:none;stroke:#000000;stroke-width:2.28588963px;stroke-linecap:butt;stroke-linejoin:miter;stroke-opacity:1"
       d="m 280.00782,775.43168 c -24.96809,21.59875 -48.50571,102.40468 -31.6764,179.79281 6.56468,-24.91145 -0.53315,-61.78544 13.48913,-80.68206 16.76082,-22.58691 30.40035,-27.45173 53.47457,-38.45861 21.07845,-10.055 41.88852,-32.31806 56.28519,-51.71905 21.40302,-28.84296 35.36708,-86.9469 32.23003,-107.87444 1.04985,10.66703 -2.02385,20.86601 -4.99253,30.91529 -5.05545,17.11347 -17.27453,40.07329 -28.45657,55.14234 -14.01107,18.88161 -40.741,5.86421 -37.41093,-19.81746 -5.00849,28.72625 -41.11924,22.47314 -52.94249,32.70118 z"
       id="path4412-4"
       inkscape:connector-curvature="0"
       sodipodi:nodetypes="scssscsscs" />
    <path
       style="fill:none;stroke:#000000;stroke-width:2.28588963px;stroke-linecap:butt;stroke-linejoin:miter;stroke-opacity:1"
       d="m 397.56923,678.17656 c -21.75149,22.78604 -56.72265,45.58305 -76.62115,50.0258 -13.5912,3.03456 -32.92284,29.80529 -40.85192,38.86332 -47.45059,1.43449 -113.3804,21.98389 -134.22839,58.84548 -0.1646,-9.47401 -57.187531,-23.9135 -57.051471,-25.08912 1.76485,-15.23247 43.868411,-3.44197 43.868411,-3.44197 20.61849,1.96609 84.72343,-39.61703 106.39307,-67.64604 42.71204,2.38628 56.98342,-13.43806 99.03669,-23.55619 10.02126,-2.41098 30.9937,-13.61357 41.88614,-21.91317 5.74558,-4.37777 21.53606,-10.24422 17.56862,-6.08811 z"
       id="path4434-0"
       inkscape:connector-curvature="0"
       sodipodi:nodetypes="sscccscsss" />
    <path
       style="fill:none;stroke:#000000;stroke-width:2.28588963px;stroke-linecap:butt;stroke-linejoin:miter;stroke-opacity:1"
       d="m 392.9603,656.57786 c -10.32763,-20.24188 -24.43309,-50.88333 1.04532,-69.83499 -8.12283,-5.03385 -12.56351,-1.44981 -17.56833,6.74075 -6.3259,-61.35299 -13.26218,-79.02421 -45.71924,-132.30845 -7.24689,-11.89705 -24.26391,-29.26288 -27.0478,-36.46488 10.08984,27.27262 71.12979,118.32519 31.3795,147.31378 -8.37637,5.20468 -8.89553,9.43533 -17.91151,9.88822 7.99069,3.03849 9.14957,1.45154 12.44541,1.4085 4.63526,-0.0609 7.35196,-4.69096 11.45964,-5.08912 21.42692,-2.07649 29.85305,67.97845 53.01818,76.98471"
       id="path4454-8"
       inkscape:connector-curvature="0"
       sodipodi:nodetypes="cccsccccsc" />
    <path
       style="fill:none;stroke:#000000;stroke-width:2.28588963px;stroke-linecap:butt;stroke-linejoin:miter;stroke-opacity:1"
       d="m 398.03299,643.79437 c -6.68884,-58.55407 31.2401,-89.2592 28.98631,-139.87537 5.91913,32.45018 12.87724,-5.37864 16.29028,-11.8718 3.82548,57.14527 -52.67208,97.83872 -45.27659,151.74717 z"
       id="path4478-7"
       inkscape:connector-curvature="0" />
  </g>
</svg>
