<?xml version="1.0" encoding="UTF-8" standalone="no"?>
<!-- Created with Inkscape (http://www.inkscape.org/) -->

<svg
   xmlns:dc="http://purl.org/dc/elements/1.1/"
   xmlns:cc="http://creativecommons.org/ns#"
   xmlns:rdf="http://www.w3.org/1999/02/22-rdf-syntax-ns#"
   xmlns:svg="http://www.w3.org/2000/svg"
   xmlns="http://www.w3.org/2000/svg"
   xmlns:sodipodi="http://sodipodi.sourceforge.net/DTD/sodipodi-0.dtd"
   xmlns:inkscape="http://www.inkscape.org/namespaces/inkscape"
   width="990"
   height="765"
   id="svg3186"
   version="1.1"
   inkscape:version="0.48.4 r9939"
   sodipodi:docname="Labyrinth of the Serpent.svg">
  <defs
     id="defs3188" />
  <sodipodi:namedview
     id="base"
     pagecolor="#ffffff"
     bordercolor="#666666"
     borderopacity="1.0"
     inkscape:pageopacity="0.0"
     inkscape:pageshadow="2"
     inkscape:zoom="0.98994949"
     inkscape:cx="451.86025"
     inkscape:cy="410.63116"
     inkscape:document-units="pt"
     inkscape:current-layer="layer1"
     showgrid="false"
     units="pt"
     inkscape:window-width="1855"
     inkscape:window-height="1056"
     inkscape:window-x="65"
     inkscape:window-y="24"
     inkscape:window-maximized="1">
    <sodipodi:guide
       position="0,0"
       orientation="0,990"
       id="guide3372" />
    <sodipodi:guide
       position="990,0"
       orientation="-765,0"
       id="guide3374" />
    <sodipodi:guide
       position="990,765"
       orientation="0,-990"
       id="guide3376" />
    <sodipodi:guide
       position="90,90"
       orientation="1,0"
       id="guide3378" />
  </sodipodi:namedview>
  <metadata
     id="metadata3191">
    <rdf:RDF>
      <cc:Work
         rdf:about="">
        <dc:format>image/svg+xml</dc:format>
        <dc:type
           rdf:resource="http://purl.org/dc/dcmitype/StillImage" />
        <dc:title />
      </cc:Work>
    </rdf:RDF>
  </metadata>
  <g
     inkscape:label="Layer 1"
     inkscape:groupmode="layer"
     id="layer1"
     transform="translate(0,-287.36218)">
    <path
       style="fill:none;stroke:#000000;stroke-width:2.04712987px;stroke-linecap:butt;stroke-linejoin:miter;stroke-opacity:1"
       d="m 423.75858,668.8415 c 6.32338,-14.61364 27.67684,-36.89707 45.17685,-42.36455 17.50001,-5.46727 46.73354,2.40979 75.29469,1.95258 28.56116,-0.45721 45.10296,-8.2912 84.87769,-23.81792 38.36074,-14.58806 85.0013,-27.77585 125.60525,-32.40808 -13.4372,13.38983 -43.09809,14.04471 -82.13966,30.06518 -39.04161,16.02045 -86.17306,41.49384 -131.08129,91.75735 -6.90227,-15.59542 -29.68414,-23.67475 -49.28379,-21.08454 -10.94785,1.44683 -18.47756,15.2215 -23.95741,22.25587 4.25064,-24.89723 1.07629,-32.30661 -16.35693,-34.24783 -15.63528,-1.74093 -16.82865,1.83277 -28.1354,7.89194 z"
       id="path4297-4"
       inkscape:connector-curvature="0"
       sodipodi:nodetypes="czzcczcscsc" />
    <path
       style="fill:none;stroke:#000000;stroke-width:2.04712987px;stroke-linecap:butt;stroke-linejoin:miter;stroke-opacity:1"
       d="m 908.92366,695.21613 c -9.83085,2.61708 -67.87863,33.1187 -58.08152,3.31308 -24.92701,65.74389 -85.82467,35.29607 -132.13546,22.08751 -18.85197,-8.21272 -60.46277,-12.62082 -76.47401,-16.56559 -79.58692,-9.99912 -113.71316,1.78183 -148.34991,26.22908 -12.53115,10.32295 -5.8382,17.54887 7.01818,10.21538 33.02585,-42.37178 186.82892,-22.75836 170.8565,28.71388 15.05522,-29.2662 108.44648,-19.04295 111.32292,10.49154 14.18341,-30.54993 40.67444,-32.51346 68.9718,-26.50502 -4.47501,-34.83492 34.16139,-46.46479 56.8715,-57.97986 z"
       id="path4392-1"
       inkscape:connector-curvature="0"
       sodipodi:nodetypes="cccccccccc" />
    <path
       style="fill:none;stroke:#000000;stroke-width:2.04712987px;stroke-linecap:butt;stroke-linejoin:miter;stroke-opacity:1"
       d="m 552.08497,568.3904 c 23.8786,-17.34291 48.86769,-86.18143 36.54298,-154.33666 -7.06687,21.26121 -2.04254,53.68371 -15.73044,69.29967 -16.36108,18.66556 -29.12113,22.11813 -50.82134,30.37041 -19.82334,7.5386 -37.73601,22.06828 -51.78935,38.10099 -20.89259,23.83546 -18.78397,66.70945 -36.78497,87.24583 9.11646,-2.57949 17.18264,-13.52867 20.32855,-22.0873 5.35727,-14.57492 3.60502,-30.0658 14.52039,-42.51869 13.67694,-15.60349 37.75859,-2.78655 33.63887,19.32655 5.79021,-24.66197 38.78793,-17.1881 50.09531,-25.4008 z"
       id="path4412-5"
       inkscape:connector-curvature="0"
       sodipodi:nodetypes="scssscsscs" />
    <path
       style="fill:none;stroke:#000000;stroke-width:2.04712987px;stroke-linecap:butt;stroke-linejoin:miter;stroke-opacity:1"
       d="m 480.9351,605.93949 c 26.47421,2.0416 62.68735,-4.2839 79.37808,-13.80482 11.40025,-6.50305 37.92153,-0.16181 47.91727,1.10442 35.59714,-29.06394 93.57407,-56.56232 125.84331,-44.17524 -4.22721,-6.68235 31.13256,-52.83227 30.49279,-53.56235 -8.29078,-9.45841 -33.88088,25.4008 -33.88088,25.4008 -14.2794,14.42691 -80.56656,26.16479 -109.38688,20.43097 -30.35442,28.71498 -48.12565,26.7685 -83.73421,46.3839 -8.48541,4.67441 -29.06949,10.18213 -40.89907,11.3198 -6.23987,0.60021 -20.55923,6.53016 -15.73041,6.90252 z"
       id="path4434-9"
       inkscape:connector-curvature="0"
       sodipodi:nodetypes="sscccscsss" />
    <path
       style="fill:none;stroke:#000000;stroke-width:2.04712987px;stroke-linecap:butt;stroke-linejoin:miter;stroke-opacity:1"
       d="m 440.76206,677.17185 c 4.36643,20.07807 11.96187,49.3224 38.721,41.69045 -2.49692,9.16997 -7.31385,10.32929 -15.00439,9.11094 29.3454,42.07441 34.4988,58.03868 42.59311,114.85529 1.80726,12.68575 0.29207,36.04476 2.42007,42.51877 -8.35021,-24.17573 -18.58459,-125.45818 -60.01757,-113.19902 -8.23844,3.13311 -10.87821,0.95027 -16.94044,7.45461 3.49873,-7.85695 5.11081,-7.76315 7.26019,-10.21537 3.02288,-3.44864 7.29784,-2.67526 10.16426,-5.52194 14.95206,-14.84956 -17.7795,-63.79609 -7.74421,-86.69373"
       id="path4454-9"
       inkscape:connector-curvature="0"
       sodipodi:nodetypes="cccsccccsc" />
    <path
       style="fill:none;stroke:#000000;stroke-width:2.04712987px;stroke-linecap:butt;stroke-linejoin:miter;stroke-opacity:1"
       d="m 433.01785,670.54548 c 3.7587,51.22603 -32.42886,75.74324 -32.42886,119.82512 -4.12029,-28.51424 -12.07913,3.94193 -15.4884,9.38733 -1.17962,-49.84062 52.5172,-81.98062 47.91726,-129.21245 z"
       id="path4478-9"
       inkscape:connector-curvature="0" />
    <path
       style="fill:none;stroke:#000000;stroke-width:2.04712987px;stroke-linecap:butt;stroke-linejoin:miter;stroke-opacity:1"
       d="m 432.62862,621.92692 c -5.91515,14.58838 -26.66708,36.83487 -44.0414,42.29494 -17.37434,5.45988 -46.88626,-2.39912 -75.48536,-1.93885 -28.59909,0.4603 -44.94558,8.28255 -84.34566,23.78693 -38.01054,14.56719 -84.35588,27.73777 -124.89943,32.36723 13.0768,-13.36771 42.77194,-14.02545 81.42339,-30.02259 38.6515,-15.99713 85.13589,-41.43139 128.68143,-91.61114 7.36234,15.5666 30.41689,23.62835 49.97722,21.04013 10.92589,-1.44569 18.07362,-15.19679 23.36129,-22.21934 -3.54347,24.85329 -0.15073,32.24899 17.36938,34.18436 15.71322,1.73569 16.80612,-1.83179 27.95914,-7.88167 z"
       id="path4297-4-7"
       inkscape:connector-curvature="0"
       sodipodi:nodetypes="czzcczcscsc" />
    <path
       style="fill:none;stroke:#000000;stroke-width:2.04712987px;stroke-linecap:butt;stroke-linejoin:miter;stroke-opacity:1"
       d="m 306.95658,722.21585 c -23.42341,17.31514 -46.48095,86.03394 -32.17758,154.06561 6.46912,-21.22416 0.505,-53.58798 13.76909,-69.17789 15.8545,-18.63437 28.53822,-22.08253 50.04033,-30.323 19.64234,-7.52781 37.16994,-22.03394 50.78814,-38.03991 20.24564,-23.79567 16.90241,-66.59271 34.34603,-87.09479 -9.05868,2.5761 -16.82495,13.50681 -19.7308,22.05057 -4.94843,14.54957 -2.74834,30.01251 -13.32571,42.44462 -13.25344,15.57746 -37.74612,2.78672 -34.25383,-19.28739 -5.09258,24.61863 -38.36383,17.16263 -49.45567,25.36218 z"
       id="path4412-5-7"
       inkscape:connector-curvature="0"
       sodipodi:nodetypes="scssscsscs" />
    <path
       style="fill:none;stroke:#000000;stroke-width:2.04712987px;stroke-linecap:butt;stroke-linejoin:miter;stroke-opacity:1"
       d="m 377.15568,684.72421 c -26.58014,-2.03432 -62.67644,4.28479 -79.12368,13.79096 -11.23392,6.49297 -37.98468,0.16669 -48.03466,-1.09592 -34.82639,29.01685 -92.11754,56.47393 -124.80008,44.11341 4.4266,6.66981 -29.671503,52.74204 -29.009633,53.47073 8.577143,9.44033 33.212243,-25.36001 33.212243,-25.36001 13.89074,-14.40304 79.95945,-26.12897 108.99591,-20.40934 29.58432,-28.66776 47.44321,-26.72719 82.55231,-46.31234 8.36638,-4.66724 28.82916,-10.16792 40.64723,-11.30515 6.23379,-0.59999 20.40852,-6.5213 15.56036,-6.89234 z"
       id="path4434-9-4"
       inkscape:connector-curvature="0"
       sodipodi:nodetypes="sscccscsss" />
    <path
       style="fill:none;stroke:#000000;stroke-width:2.04712987px;stroke-linecap:butt;stroke-linejoin:miter;stroke-opacity:1"
       d="m 415.35559,613.61378 c -4.95065,-20.04155 -13.39921,-49.23255 -39.98709,-41.6106 2.23813,-9.15393 7.0304,-10.31182 14.76966,-9.09669 -30.60573,-41.99515 -36.22666,-57.93017 -45.96654,-114.64408 -2.17466,-12.6628 -1.32738,-35.98024 -3.64502,-42.44236 9.05918,24.13131 22.21947,125.23123 63.37459,112.98836 8.16323,-3.12864 10.87036,-0.95007 16.75672,-7.44361 -3.27943,7.84338 -4.89711,7.74998 -6.9799,10.1981 -2.92929,3.44289 -7.23408,2.67148 -10.02391,5.51345 -14.5525,14.82505 19.64277,63.6796 10.24687,86.53763"
       id="path4454-9-6"
       inkscape:connector-curvature="0"
       sodipodi:nodetypes="cccsccccsc" />
    <path
       style="fill:none;stroke:#000000;stroke-width:2.04712987px;stroke-linecap:butt;stroke-linejoin:miter;stroke-opacity:1"
       d="m 423.30386,620.22723 c -5.23601,-51.13388 30.3124,-75.6122 29.04688,-119.61521 4.94624,28.46267 11.98756,-3.93653 15.24659,-9.37266 2.61259,49.75131 -50.25756,81.84114 -44.29347,128.98787 z"
       id="path4478-9-4"
       inkscape:connector-curvature="0" />
  </g>
</svg>
