<?xml version="1.0" encoding="UTF-8" standalone="no"?>
<!-- Created with Inkscape (http://www.inkscape.org/) -->

<svg
   xmlns:dc="http://purl.org/dc/elements/1.1/"
   xmlns:cc="http://creativecommons.org/ns#"
   xmlns:rdf="http://www.w3.org/1999/02/22-rdf-syntax-ns#"
   xmlns:svg="http://www.w3.org/2000/svg"
   xmlns="http://www.w3.org/2000/svg"
   xmlns:xlink="http://www.w3.org/1999/xlink"
   xmlns:sodipodi="http://sodipodi.sourceforge.net/DTD/sodipodi-0.dtd"
   xmlns:inkscape="http://www.inkscape.org/namespaces/inkscape"
   width="765"
   height="990"
   id="svg3288"
   version="1.1"
   inkscape:version="0.48.4 r9939"
   sodipodi:docname="Layout - Back.svg">
  <defs
     id="defs3290">
    <inkscape:path-effect
       effect="spiro"
       id="path-effect4060"
       is_visible="true" />
    <inkscape:path-effect
       effect="spiro"
       id="path-effect3513"
       is_visible="true" />
    <inkscape:path-effect
       effect="spiro"
       id="path-effect3509"
       is_visible="true" />
    <inkscape:path-effect
       effect="spiro"
       id="path-effect4270"
       is_visible="true" />
    <inkscape:path-effect
       effect="spiro"
       id="path-effect4252"
       is_visible="true" />
  </defs>
  <sodipodi:namedview
     id="base"
     pagecolor="#ffffff"
     bordercolor="#666666"
     borderopacity="1.0"
     inkscape:pageopacity="0.0"
     inkscape:pageshadow="2"
     inkscape:zoom="2.8"
     inkscape:cx="518.03103"
     inkscape:cy="684.24152"
     inkscape:document-units="px"
     inkscape:current-layer="layer1"
     showgrid="false"
     inkscape:snap-global="false"
     inkscape:window-width="1855"
     inkscape:window-height="1056"
     inkscape:window-x="65"
     inkscape:window-y="24"
     inkscape:window-maximized="1" />
  <metadata
     id="metadata3293">
    <rdf:RDF>
      <cc:Work
         rdf:about="">
        <dc:format>image/svg+xml</dc:format>
        <dc:type
           rdf:resource="http://purl.org/dc/dcmitype/StillImage" />
        <dc:title />
      </cc:Work>
    </rdf:RDF>
  </metadata>
  <g
     inkscape:label="Layer 1"
     inkscape:groupmode="layer"
     id="layer1"
     transform="translate(0,-62.362183)">
    <image
       y="138.88199"
       x="68.23111"
       id="image3210"
       xlink:href="file:///home/drake/Pictures/Tattoo/source/P1010050.jpg"
       height="843.43823"
       width="624.49249" />
    <g
       id="g3532"
       transform="matrix(0.6181662,0,0,0.6181662,-38.061601,178.28718)"
       style="fill:#1a1a1a;stroke:#1a1a1a">
      <path
         sodipodi:nodetypes="czzcczcscsc"
         inkscape:connector-curvature="0"
         id="path4297"
         d="m 255.53571,1177.0943 c 3.29928,-6.6834 14.44065,-16.8745 23.57144,-19.375 9.1308,-2.5004 24.38366,1.1021 39.28571,0.893 14.90205,-0.2091 23.53288,-3.7919 44.28572,-10.8929 20.01507,-6.6717 44.35022,-12.703 65.53571,-14.8215 -7.01098,6.1237 -22.48683,6.4232 -42.85714,13.75 -20.37032,7.3268 -44.96159,18.9768 -68.39287,41.9643 -3.60133,-7.1324 -15.48798,-10.8274 -25.71428,-9.6428 -5.71214,0.6617 -9.64084,6.9614 -12.5,10.1785 2.21781,-11.3865 0.56156,-14.7751 -8.53438,-15.6629 -8.15786,-0.7962 -8.78051,0.8382 -14.67991,3.6093 z"
         style="fill:#1a1a1a;stroke:#1a1a1a;stroke-width:1px;stroke-linecap:butt;stroke-linejoin:miter;stroke-opacity:1" />
      <path
         sodipodi:nodetypes="cccccccccc"
         inkscape:connector-curvature="0"
         id="path4392"
         d="m 510.12704,1183.4295 c -5.12934,1.1969 -35.41631,15.1465 -30.30458,1.5152 -13.0059,30.0673 -44.77982,16.1423 -68.94291,10.1015 -9.83619,-3.756 -31.54701,-5.772 -39.90103,-7.5761 -41.52521,-4.573 -59.33089,0.8149 -77.40294,11.9956 -6.53824,4.7211 -3.04613,8.0258 3.6618,4.6719 17.23155,-19.3783 97.47973,-10.4083 89.14597,13.132 7.8552,-13.3846 56.58296,-8.7091 58.08377,4.7982 7.40033,-13.9717 21.22227,-14.8697 35.98668,-12.1218 -2.33488,-15.9314 17.82403,-21.2502 29.67324,-26.5165 z"
         style="fill:#1a1a1a;stroke:#1a1a1a;stroke-width:1px;stroke-linecap:butt;stroke-linejoin:miter;stroke-opacity:1" />
      <path
         sodipodi:nodetypes="scssscsscs"
         inkscape:connector-curvature="0"
         id="path4412"
         d="m 322.4912,1131.154 c 12.45887,-7.9316 25.49716,-39.4142 19.06663,-70.5843 -3.6872,9.7236 -1.06571,24.5517 -8.20749,31.6935 -8.53655,8.5365 -15.19422,10.1155 -26.51651,13.8896 -10.34301,3.4477 -19.68912,10.0927 -27.02158,17.4251 -10.9009,10.9009 -9.80071,30.5089 -19.1929,39.901 4.7566,-1.1797 8.9652,-6.1872 10.60661,-10.1014 2.79521,-6.6657 1.88096,-13.7503 7.57615,-19.4455 7.13607,-7.1361 19.7009,-1.2744 17.55139,8.8388 3.0211,-11.2789 20.23797,-7.8608 26.1377,-11.6168 z"
         style="fill:#1a1a1a;stroke:#1a1a1a;stroke-width:1px;stroke-linecap:butt;stroke-linejoin:miter;stroke-opacity:1" />
      <path
         sodipodi:nodetypes="sscccscsss"
         inkscape:connector-curvature="0"
         id="path4434"
         d="m 285.36809,1148.3267 c 13.81317,0.9337 32.70771,-1.9592 41.41626,-6.3135 5.94818,-2.9741 19.7859,-0.074 25.00127,0.5051 18.57314,-13.2921 48.82315,-25.8682 65.65992,-20.2031 -2.20558,-3.0561 16.24371,-24.1623 15.9099,-24.4962 -4.32579,-4.3257 -17.67766,11.6168 -17.67766,11.6168 -7.45041,6.598 -42.03636,11.9662 -57.07363,9.3439 -15.8377,13.1325 -25.11,12.2423 -43.6891,21.2132 -4.42734,2.1378 -15.16728,4.6567 -21.33947,5.177 -3.25571,0.2745 -10.72697,2.9865 -8.20749,3.1568 z"
         style="fill:#1a1a1a;stroke:#1a1a1a;stroke-width:1px;stroke-linecap:butt;stroke-linejoin:miter;stroke-opacity:1" />
      <path
         sodipodi:nodetypes="cccsccccsc"
         inkscape:connector-curvature="0"
         id="path4454"
         d="m 264.40743,1180.9041 c 2.27823,9.1825 6.24122,22.5571 20.20305,19.0667 -1.30279,4.1938 -3.81607,4.724 -7.82868,4.1668 15.31123,19.2423 18.00007,26.5434 22.22335,52.5279 0.94295,5.8017 0.15239,16.4847 1.26269,19.4455 -4.3568,-11.0565 -9.69668,-57.377 -31.31472,-51.7704 -4.29849,1.4329 -5.67581,0.4346 -8.83884,3.4093 1.8255,-3.5933 2.66662,-3.5504 3.78807,-4.6719 1.57722,-1.5772 3.80772,-1.2235 5.3033,-2.5254 7.80138,-6.7913 -9.27662,-29.1765 -4.04061,-39.6485"
         style="fill:#1a1a1a;stroke:#1a1a1a;stroke-width:1px;stroke-linecap:butt;stroke-linejoin:miter;stroke-opacity:1" />
      <path
         inkscape:connector-curvature="0"
         id="path4478"
         d="m 260.36682,1177.8736 c 1.96114,23.4277 -16.92006,34.6404 -16.92006,54.8008 -2.1498,-13.0407 -6.3024,1.8028 -8.08122,4.2932 -0.61548,-22.7941 27.40134,-37.493 25.00128,-59.094 z"
         style="fill:#1a1a1a;stroke:#1a1a1a;stroke-width:1px;stroke-linecap:butt;stroke-linejoin:miter;stroke-opacity:1" />
    </g>
    <g
       id="g3525"
       transform="matrix(0.6181662,0,0,0.6181662,-38.061601,178.28718)"
       style="fill:#008000;stroke:#008000">
      <path
         sodipodi:nodetypes="szcssccsccscscssscczas"
         inkscape:connector-curvature="0"
         inkscape:original-d="m 347.36621,1064.7366 c -0.75762,0.7576 -1.25831,1.2984 5.17702,2.7778 6.43533,1.4795 14.26841,1.8941 21.84456,4.5458 7.57614,2.6516 14.77348,7.7024 15.65736,9.3439 0.88389,1.6415 4.9245,3.9143 -0.50507,8.9651 -5.42957,5.0507 -5.93465,6.0609 -5.93465,6.0609 0,0 2.0203,1.7678 5.68211,-0.1263 3.6618,-1.894 7.19733,-3.4092 10.85914,-7.1973 3.6618,-3.7881 7.44987,-7.3236 12.12183,-6.8185 4.67195,0.505 7.32361,-2.1466 13.00571,-0.7576 5.68211,1.3889 7.70242,1.7677 20.20305,8.7125 12.50064,6.9448 23.73859,12.7532 29.54697,15.2786 5.80837,2.5253 8.33375,5.6821 15.53109,5.177 7.19734,-0.5051 6.06092,-2.3991 6.06092,-2.3991 0,0 -17.42513,-5.3033 -30.80965,-12.5007 -13.38452,-7.1973 -49.62376,-27.6528 -56.44229,-32.0723 -6.81852,-4.4194 -6.81852,-4.0406 -6.06091,-5.6821 0.75762,-1.6415 4.54569,-4.0406 4.54569,-4.0406 0,0 -2.52538,-2.3991 -4.92449,-2.2729 -2.39912,0.1263 -11.16501,3.9059 -19.69798,5.9347 -8.53297,2.0288 -21.34657,2.1378 -31.56727,5.177 -1.49926,0.4458 -3.77253,1.3735 -4.29314,1.8941 z"
         inkscape:path-effect="#path-effect4270"
         id="path4268"
         d="m 347.36621,1064.7366 c -0.1038,0.5587 0.074,1.1499 0.41859,1.6018 0.34459,0.4518 0.84362,0.771 1.37909,0.9613 1.07093,0.3805 2.24385,0.263 3.37934,0.2147 7.4673,-0.3174 14.641,2.5533 21.84456,4.5458 3.04321,0.8418 6.15361,1.5411 8.99932,2.9092 1.42286,0.684 2.77347,1.5357 3.93332,2.6067 1.15986,1.0711 2.12627,2.3671 2.72472,3.828 1.16874,2.8531 0.8404,6.191 -0.50507,8.9651 -1.25566,2.589 -3.37269,4.751 -5.93465,6.0609 1.86794,0.411 3.83428,0.3673 5.68211,-0.1263 2.1162,-0.5653 4.04076,-1.7 5.79672,-3.0094 1.75595,-1.3094 3.3672,-2.8008 5.06242,-4.1879 3.61094,-2.9547 7.65861,-5.4589 12.12183,-6.8185 4.19234,-1.2771 8.68839,-1.511 13.00571,-0.7576 7.26039,1.2669 13.72872,5.1909 20.20305,8.7125 9.7411,5.2984 19.88847,9.831 29.54697,15.2786 2.4191,1.3644 4.81705,2.7908 7.39543,3.8231 2.57839,1.0323 5.37544,1.6619 8.13566,1.3539 2.18506,-0.2438 4.30097,-1.0813 6.06092,-2.3991 -10.63699,-3.1722 -20.9695,-7.3645 -30.80965,-12.5007 -19.19941,-10.0213 -36.50704,-23.6089 -56.44229,-32.0723 -1.34657,-0.5717 -2.72198,-1.1297 -3.87822,-2.0259 -0.57812,-0.4482 -1.09675,-0.98 -1.48658,-1.5989 -0.38984,-0.6189 -0.64798,-1.3274 -0.69611,-2.0573 -0.0769,-1.1658 0.41119,-2.3561 1.28443,-3.1323 0.87325,-0.7762 2.11248,-1.1213 3.26126,-0.9083 -1.44463,-1.112 -3.14103,-1.895 -4.92449,-2.2729 -3.42345,-0.7254 -7.00744,0.051 -10.25607,1.3524 -3.24863,1.3011 -6.26562,3.1135 -9.44191,4.5823 -9.77211,4.5189 -20.81189,5.6634 -31.56727,5.177 -0.85717,-0.039 -1.73529,-0.085 -2.55469,0.1697 -0.40969,0.1273 -0.79971,0.3312 -1.1131,0.6242 -0.31339,0.293 -0.54698,0.6784 -0.62535,1.1002"
         style="fill:#008000;stroke:#008000;stroke-width:1px;stroke-linecap:butt;stroke-linejoin:miter;stroke-opacity:1" />
      <path
         sodipodi:nodetypes="scccs"
         inkscape:connector-curvature="0"
         id="path4597"
         d="m 316.17775,961.95353 c 12.37739,4.42093 3.53699,-10.60556 -1.76777,-14.39467 22.76189,4.30067 14.50832,59.69244 6.06092,70.07934 12.12018,-33.78841 -19.76385,-57.5087 -45.83568,-71.34204 26.6283,-2.97911 28.02807,10.83031 41.54253,15.65737 z"
         style="fill:#008000;stroke:#008000;stroke-width:1px;stroke-linecap:butt;stroke-linejoin:miter;stroke-opacity:1" />
      <path
         sodipodi:nodetypes="sccsssccsscs"
         inkscape:connector-curvature="0"
         id="path4603"
         d="m 310.62191,1097.0614 c 10.51243,-2.7308 18.68782,4.1723 15.78364,-12.3743 -1.32816,1.5245 -2.11906,10.7466 -7.44988,8.0811 -13.3658,-6.6829 -3.47859,-17.0586 -9.59646,-29.2943 -6.26758,-12.5352 -8.33375,-19.8518 -8.33375,-35.8605 0,-2.5639 -3.59065,-15.3497 -7.32361,-11.6167 -3.79746,3.7975 7.48933,17.1868 3.283,23.486 -7.77377,0 -14.88002,-10.883 -16.16244,-18.6878 -3.54025,12.3951 8.05684,19.0485 8.33376,29.547 1.0344,39.2162 7.23982,24.1599 10.85914,42.4264 1.30588,6.5907 -8.9385,9.0202 -12.87944,6.8186 10.06637,5.8027 14.15822,-0.1024 23.48604,-2.5255 z"
         style="fill:#008000;stroke:#008000;stroke-width:1px;stroke-linecap:butt;stroke-linejoin:miter;stroke-opacity:1" />
      <path
         sodipodi:nodetypes="ccccc"
         inkscape:connector-curvature="0"
         id="path4605"
         d="m 334.86557,1038.4726 c -8.56728,12.1893 -18.03971,26.997 -19.44543,39.6485 -1.57583,-9.0375 5.22677,-23.862 -4.54569,-27.5267 9.9615,-5.4363 15.65736,-42.074 25.38008,-73.61485 0.0705,13.47492 -18.17894,68.82185 -1.38896,61.49305 z"
         style="fill:#008000;stroke:#008000;stroke-width:1px;stroke-linecap:butt;stroke-linejoin:miter;stroke-opacity:1" />
      <path
         sodipodi:nodetypes="sscscssacs"
         inkscape:connector-curvature="0"
         id="path4607"
         d="m 381.83766,1024.3304 c 7.5305,-3.7652 13.70779,-14.7886 16.92006,-21.2131 3.20048,-6.40102 -0.004,-19.41173 1.51523,-26.13775 0.8955,6.6162 5.87076,22.93391 5.80837,28.41055 -0.14222,12.4847 4.41526,38.9886 16.16244,42.1739 -5.21222,-1.4294 -4.25356,-0.8287 -7.82868,-2.0204 -23.29109,-7.7637 -27.08552,7.9068 -39.39595,8.3338 -14.41429,0.5 -26.11522,-3.7505 -36.61803,2.5254 -10.97645,6.5588 -15.56508,22.9874 -20.45559,32.4512 2.84148,-35.6884 36.83556,-50.9953 63.89215,-64.5236 z"
         style="fill:#008000;stroke:#008000;stroke-width:1px;stroke-linecap:butt;stroke-linejoin:miter;stroke-opacity:1" />
    </g>
    <path
       sodipodi:type="arc"
       style="fill:#800000;stroke:#800000"
       id="path4861"
       sodipodi:cx="665.89288"
       sodipodi:cy="826.64789"
       sodipodi:rx="5.1785712"
       sodipodi:ry="6.0714288"
       d="m 671.07145,826.64789 c 0,3.35316 -2.31852,6.07143 -5.17857,6.07143 -2.86004,0 -5.17857,-2.71827 -5.17857,-6.07143 0,-3.35316 2.31853,-6.07143 5.17857,-6.07143 2.86005,0 5.17857,2.71827 5.17857,6.07143 z"
       transform="matrix(0.6181662,0,0,0.6181662,-38.061601,178.28718)" />
    <g
       id="g3114"
       style="fill:#800000;stroke:#800000"
       transform="matrix(0.6181662,0,0,0.6181662,-38.061601,178.28718)">
      <path
         sodipodi:nodetypes="cscsscsccssccssccssscsc"
         inkscape:connector-curvature="0"
         id="path4794"
         d="m 389.28571,952.71933 c -7.93564,-17.1506 10.52268,-20.43991 30.35715,-25.71429 5.60938,-1.49165 1.67562,-6.10712 8.57143,-6.78571 -19.29123,0 -27.30628,-15.68397 -47.85715,-31.78572 -4.63294,-3.62995 -12.44862,-15.6629 -16.78572,-20 -2.09348,-2.09349 -11.12906,-19.04531 -14.99999,-17.5 0.9838,0.70272 10.79652,14.14518 5.71428,13.21429 -25.09325,-4.59623 -49.51905,-30.4643 -51.78571,-70.71429 -7.4135,23.96076 2.77863,40.60437 13.57143,55.71429 -5.34254,-1.31839 -13.30946,13.18186 -11.07143,13.21428 2.17672,0.0315 17.6776,-9.8224 30.71429,3.21429 10.95372,10.95373 -4.50236,13.49528 -8.92858,4.64286 3.31975,20.4289 35.1509,9.78267 39.64286,27.14285 -15.06173,0.95925 -18.32578,8.72765 -34.64286,11.07143 -11.68956,1.67909 -27.52783,-9.4782 -36.42857,-13.92857 -5.02352,-2.51176 -12.2014,-4.40868 -22.14285,0.35714 27.22925,-4.20841 30.81475,17.43584 46.78571,21.42858 -11.15138,0.93913 -15.78018,11.13731 -21.42857,16.78571 -0.32436,0.32436 8.331,-3.80484 8.57143,-4.28571 1.60979,-3.21959 6.91518,-5.71429 11.07142,-5.71429 17.13735,0 26.17132,-5.97155 35.71429,13.92857 10.74103,-11.61706 28.20358,-3.41386 29.45506,4.51509 1.04858,6.64341 2.80011,11.12998 5.90208,11.1992 z"
         style="fill:#800000;stroke:#800000;stroke-width:1px;stroke-linecap:butt;stroke-linejoin:miter;stroke-opacity:1" />
      <path
         sodipodi:nodetypes="csscccczccsssc"
         inkscape:connector-curvature="0"
         id="path4796"
         d="m 390.71429,1010.2193 c -8.85441,-10.27667 -6.2279,-6.3604 -6.78572,-12.49997 -3.33097,-36.66193 50.69352,-70.99097 72.14285,-92.50001 14.32103,-14.36088 33.30296,-51.52897 37.68779,-75.84754 10.09912,-23.24714 12.08017,-25.72424 17.31222,-46.65245 l 1.07143,13.21428 c 8.67927,-11.7986 41.25029,-25.38244 56.78571,-14.28571 -36.46342,-4.6987 -60.05704,21.52023 -66.78571,40.71429 -6.72867,19.19405 -14.64052,67.83052 -4.64286,93.21428 5.20747,10.41493 10.53176,12.32099 21.78572,13.57143 -24.17733,2.43646 -38.67605,14.51659 -57.50001,23.92857 -7.24132,3.62066 -15.97321,0.66518 -29.64286,3.57143 -6.52166,1.38654 -9.57969,-0.80669 -15.35714,2.14286 -16.96187,8.65951 -39.4371,30.04369 -26.07142,51.42854 z"
         style="fill:#800000;stroke:#800000;stroke-width:1px;stroke-linecap:butt;stroke-linejoin:miter;stroke-opacity:1" />
      <path
         sodipodi:nodetypes="cccsccccc"
         inkscape:connector-curvature="0"
         id="path4798"
         d="m 403.92857,976.6479 c 28.55348,-34.46555 111.75483,10.77605 133.21429,-32.14286 9.52129,26.06717 46.14956,-2.86193 68.21429,-15.71429 -39.03331,38.94898 -45.37026,23.57799 -78.21429,38.57143 -5.07824,2.31824 -35.82891,6.84303 -40.71429,9.28572 4.72101,12.17533 12.53225,10.3652 23.92858,13.21428 -15.85391,14.02392 -45.37691,-30.3522 -95.35715,-16.42857 5.92549,-0.68557 14.72805,2.59789 18.57143,5 -9.18293,-0.33107 -14.55986,-2.33868 -29.64286,-1.78571 z"
         style="fill:#800000;stroke:#800000;stroke-width:1px;stroke-linecap:butt;stroke-linejoin:miter;stroke-opacity:1" />
      <path
         sodipodi:nodetypes="ccccsc"
         inkscape:connector-curvature="0"
         id="path4800"
         d="m 407.85714,800.57647 c -6.7878,3.12043 3.0817,9.17057 2.14286,33.92856 -0.58169,47.97228 -10.10628,54.79858 -16.07143,56.78572 11.36184,4.38286 16.24969,12.85688 26.42857,23.92858 -4.28462,-6.1847 -5.97793,-17.31303 -7.85714,-24.64286 -1.9983,-7.79435 4.52896,-90.29847 -4.64286,-90 z"
         style="fill:#800000;stroke:#800000;stroke-width:1px;stroke-linecap:butt;stroke-linejoin:miter;stroke-opacity:1" />
      <path
         sodipodi:nodetypes="ccccscccc"
         inkscape:connector-curvature="0"
         id="path4837"
         d="m 421.07143,861.6479 c 9.21273,-18.42546 47.62435,-70.51765 83.21429,-98.57143 12.73292,-7.59446 27.09961,-29.72584 43.57142,-38.57143 6.99814,-3.49907 16.50654,-4.41343 25,-5.35714 -8.80029,3.52428 -18.81293,4.88436 -25.35714,11.42857 -12.88669,12.88669 -51.22564,54.38312 -46.42856,76.60715 -28.95241,14.60948 -48.57343,16.25396 -72.14287,64.46428 -4.08348,14.77341 -5.65617,33.33035 -3.74999,45.71428 -5.17709,-12.96121 -7.53161,-39.02121 -4.10715,-55.71428 z"
         style="fill:#800000;stroke:#800000;stroke-width:1px;stroke-linecap:butt;stroke-linejoin:miter;stroke-opacity:1" />
      <path
         sodipodi:nodetypes="cccsc"
         inkscape:connector-curvature="0"
         id="path4859"
         d="m 554.64286,732.36218 c 16.33826,-6.80008 57.94871,3.15751 68.57143,-7.14286 -13.24459,47.56857 13.28775,72.03789 47.85714,86.07144 -42.19548,-0.6126 -55.70419,-48.5938 -71.07143,-58.92858 -8.01671,-5.3914 -21.38516,-16.5565 -45.35714,-20 z"
         style="fill:#800000;stroke:#800000;stroke-width:1px;stroke-linecap:butt;stroke-linejoin:miter;stroke-opacity:1" />
      <path
         sodipodi:nodetypes="sccccs"
         inkscape:connector-curvature="0"
         id="path4863"
         d="m 695.35714,835.75504 c -5.27158,-8.59909 -10.1431,-17.46453 -9.46428,-16.78571 -0.0448,3.21272 -1.06303,5.19043 -3.75,2.67856 -2.41334,-2.41334 -12.19865,-2.81 -16.07143,-3.39285 31.72739,13.95922 36.65514,45.5372 44.46429,45.98215 -4.50022,-8.06817 -9.80344,-19.71415 -15.17858,-28.48215 z"
         style="fill:#800000;stroke:#800000;stroke-width:1px;stroke-linecap:butt;stroke-linejoin:miter;stroke-opacity:1" />
      <path
         sodipodi:nodetypes="csccsscscc"
         inkscape:connector-curvature="0"
         id="path4865"
         d="m 657.32143,815.04075 c -0.97655,9.8432 2.06591,18.41754 4.64286,23.57143 14.18099,28.36198 30.12583,57.47363 58.75,71.78572 -12.91176,-3.33 -27.57362,-13.31414 -39.10715,-21.96429 3.98078,-6.05321 -4.33358,-13.61931 -12.14286,-25.17857 -5.03312,-7.45002 -7.36572,-12.5443 -13.92856,-19.10714 -2.55994,-2.55994 -7.58732,-3.47172 -11.16072,-2.05358 -0.0912,-16.19256 -0.64194,-24.93612 -7.05357,-34.55357 -2.164,-3.246 -5.23754,-6.36793 -6.51786,-9.91071 7.44398,8.23522 15.66604,14.9992 26.51786,17.41071 z"
         style="fill:#800000;stroke:#800000;stroke-width:1px;stroke-linecap:butt;stroke-linejoin:miter;stroke-opacity:1" />
      <path
         sodipodi:nodetypes="csccsc"
         inkscape:connector-curvature="0"
         id="path4915"
         d="m 552.14286,715.93361 c 6.11455,-3.50237 19.84395,-10.84227 29.28571,-13.92857 13.40915,-4.38315 24.83565,4.72398 32.5,-15.71429 0.0167,18.89758 28.04511,31.23121 59.28571,39.28571 -19.03674,6.47042 -38.16365,-15.27277 -55.56603,-14.0104 -26.9008,1.95139 -41.14457,-7.57329 -65.50539,4.36755 z"
         style="fill:#800000;stroke:#800000;stroke-width:1px;stroke-linecap:butt;stroke-linejoin:miter;stroke-opacity:1" />
      <path
         sodipodi:nodetypes="csscscssc"
         inkscape:connector-curvature="0"
         id="path4917"
         d="m 622.85714,720.93361 c 8.15268,4.53809 22.97697,7.10011 31.42857,12.85715 11.20195,7.63051 23.23412,13.06545 32.85715,27.49999 15.38199,23.073 57.54,78.92857 72.5,81.07143 -40.19278,-43.63555 -61.84683,-74.65567 -66.42857,-89.64286 -0.87522,-2.8629 -0.42151,-6.9321 2.14285,-8.21429 -2.61655,-2.07296 -5.50424,-0.43068 -8.21428,-1.78571 -3.85036,-1.92517 -35.9458,-15.23151 -36.78571,-16.07142 -3.55668,-3.55668 -22.43321,-4.44759 -27.50001,-5.71429 z"
         style="fill:#800000;stroke:#800000;stroke-width:1px;stroke-linecap:butt;stroke-linejoin:miter;stroke-opacity:1" />
      <path
         sodipodi:nodetypes="csssssc"
         inkscape:connector-curvature="0"
         id="path4919"
         d="m 698.57143,805.57647 c 16.02485,6.58606 37.54596,21.52049 45.71428,37.85714 5.0386,10.07719 28.74303,8.75697 26.07144,11.42857 -2.34517,2.34516 -16.22099,-0.20758 -20,3.57144 -3.93616,3.93615 0.49375,7.00624 -1.07143,8.57142 -5.03389,5.03389 -23.14393,-34.91122 -28.57143,-41.42857 -5.93814,-7.13054 -16.92475,-10.91326 -22.14286,-20 z"
         style="fill:#800000;stroke:#800000;stroke-width:1px;stroke-linecap:butt;stroke-linejoin:miter;stroke-opacity:1" />
      <path
         inkscape:connector-curvature="0"
         id="path4927"
         d="m 737.50001,813.43362 c 13.57703,-17.02665 33.38675,23.19313 47.85714,12.85714 -1.21523,27.25358 2.93043,57.79314 9.28571,83.21428 -21.9274,-22.40435 -13.19132,-91.18798 -57.14285,-96.07142 z"
         style="fill:#800000;stroke:#800000;stroke-width:1px;stroke-linecap:butt;stroke-linejoin:miter;stroke-opacity:1" />
    </g>
    <g
       id="g3540"
       style="fill:#000080;stroke:#000080"
       transform="matrix(0.6181662,0,0,0.6181662,-38.061601,178.28718)">
      <path
         sodipodi:nodetypes="ccccccsccc"
         inkscape:connector-curvature="0"
         id="path3106"
         d="m 515.1778,614.46106 c 1.8458,45.41134 -10.16454,119.38004 -24.54479,156.72683 -14.87527,3.41483 -23.10321,7.42507 -32.52883,15.50417 4.98992,-8.07607 10.63374,-11.99636 19.54479,-15.11902 16.30788,-15.32712 17.37749,-80.26753 -3.12982,-123.27187 -15.88837,-17.10754 -50.85302,-30.45355 -83.08504,-23.48606 -7.52949,-0.49484 -19.29395,3.13152 -12.2481,-3.91433 1.81448,-1.81448 14.94016,3.87393 20.77126,-4.23001 35.26471,-4.66823 103.23802,-4.60883 108.7808,-3.0936 22.65143,-20.70724 16.75566,-14.28451 6.43973,0.88389 z"
         style="fill:#000080;stroke:#000080;stroke-width:1px;stroke-linecap:butt;stroke-linejoin:miter;stroke-opacity:1" />
      <path
         sodipodi:nodetypes="cscsscccc"
         inkscape:connector-curvature="0"
         id="path3110"
         d="m 368.21428,634.68361 c 0.50007,1.60554 -0.57381,8.9792 -7.38293,14.67591 -8.63392,7.2234 -35.72858,41.03658 -31.90277,82.64552 3.45919,-24.25546 11.1558,-45.53107 24.64285,-62.5 9.05306,-11.39025 23.55827,-21.63924 34.46428,-26.78571 12.33781,-5.82213 32.67875,-6.25007 45.17857,-5.89287 4.29163,1.51359 -14.18281,-9.12605 -19.10713,-10.35713 -1.28177,2.37241 -3.09309,4.41141 -5.35715,6.07142 -8.25893,-0.68101 -26.78581,8.17839 -40.53572,2.14286 z"
         style="fill:#000080;stroke:#000080;stroke-width:1px;stroke-linecap:butt;stroke-linejoin:miter;stroke-opacity:1" />
      <path
         sodipodi:nodetypes="cccscssac"
         inkscape:connector-curvature="0"
         id="path3112"
         d="m 427.32143,667.54075 c 0.58534,-17.19248 -31.33646,-13.30409 -44.10714,-5.35714 1.36412,-4.37739 -8.46877,-1.81138 -12.14286,-0.89286 12.19253,-10.6022 38.71591,-12.951 58.39286,-17.85714 4.6465,-1.15853 9.89276,-5.66405 13.92857,-9.10714 4.57152,4.23547 6.48477,8.13886 8.03571,10.17857 3.92857,5.16663 18.99284,4.54799 16.60715,7.67857 -2.80878,3.68575 -14.90503,0.81014 -21.78572,3.39286 -6.98817,2.62306 -13.26661,0.0884 -18.92857,11.96428 z"
         style="fill:#000080;stroke:#000080;stroke-width:1px;stroke-linecap:butt;stroke-linejoin:miter;stroke-opacity:1" />
      <path
         sodipodi:nodetypes="cssssssssssszccc"
         inkscape:connector-curvature="0"
         id="path3499"
         d="m 642.9621,611.4306 c -10.28784,3.17099 -46.68446,27.57466 -80.0546,59.09392 -8.27845,7.81928 -42.00504,44.51368 -47.47717,53.15928 -7.35662,11.62297 -15.65736,23.78289 -15.65736,35.35533 0,3.71917 5.6132,-9.34391 9.84899,-12.75317 5.36008,-4.31417 6.63684,-7.35903 12.87945,-10.48033 2.25505,-1.12753 7.47077,-1.6842 8.71256,-3.91434 7.13918,-12.82129 12.40583,-18.12448 39.39595,-35.22907 2.78944,-1.76777 27.12716,-3.70136 30.30458,-2.39911 3.91665,1.60521 1.82558,-2.00104 0.25253,-2.52539 -6.35499,-2.11833 -11.13814,-1.87855 -17.80394,-1.51522 -9.43367,0.5142 -17.58526,2.03104 -17.29886,0.88387 2.20978,-8.85123 11.3089,-23.61537 22.22336,-34.97652 10.91446,-11.36115 29.09422,-25.48093 38.50577,-33.14149 6.75701,-4.10039 10.30269,-8.26901 9.01834,-0.90047 2.62999,-6.39478 3.88226,-8.91034 7.1504,-10.65729 z"
         style="fill:#000080;stroke:#000080;stroke-width:1px;stroke-linecap:butt;stroke-linejoin:miter;stroke-opacity:1" />
      <path
         sodipodi:nodetypes="csscccc"
         inkscape:connector-curvature="0"
         id="path3501"
         d="m 577.30218,682.64635 c 6.52813,-15.23226 12.53381,-25.44109 20.70813,-30.30458 47.01758,-27.97412 65.3773,-21.10973 101.9431,-1.34191 9.46989,5.11951 29.43833,12.4913 42.00363,17.50436 -34.35725,-8.03617 -71.51205,-32.60942 -122.22845,-19.69798 2.801,4.76093 6.37982,7.80394 9.59645,10.10153 -33.4386,-15.38507 -46.46771,20.0169 -52.02286,23.73858 z"
         style="fill:#000080;stroke:#000080;stroke-width:1px;stroke-linecap:butt;stroke-linejoin:miter;stroke-opacity:1" />
      <path
         sodipodi:nodetypes="cccscccsscsscssc"
         inkscape:connector-curvature="0"
         id="path3503"
         d="m 511.78571,722.8979 c 8.20925,-31.70187 40.81008,-41.41181 37.40066,-56.58702 -7.03183,6.00756 -11.70457,15.61894 -17.35469,14.16099 0,0 -1.76919,-13.83125 18.34689,-42.3954 20.28792,-28.80816 46.25181,-30.88204 46.78572,-27.67857 l 0,0 0,0 c 0,0 -2.23698,-4.77568 0.2884,-10.07898 2.52538,-5.3033 5.93216,-6.81249 7.57615,-10.10153 5.54523,-11.094 -8.78741,-33.84165 -9.84899,-32.07234 0,0 8.70259,17.1272 4.29315,27.77919 -2.89796,7.00067 -25.00223,19.40247 -44.44671,19.95052 -8.88235,0.25035 -5.05374,-6.65945 -6.81853,-15.40482 0,0 -12.85217,29.52926 -19.95052,49.24493 -7.09236,19.69903 -3.40695,34.15684 -5.3033,41.16372 -4.20993,15.55538 -10.96823,42.01931 -10.96823,42.01931 z"
         style="fill:#000080;stroke:#000080;stroke-width:1px;stroke-linecap:butt;stroke-linejoin:miter;stroke-opacity:1" />
      <path
         sodipodi:nodetypes="ccsscssc"
         inkscape:connector-curvature="0"
         id="path3515"
         d="m 510.53572,552.54075 c 13.58566,7.44817 -4.48014,34.59426 2.32143,43.03571 -0.84027,-2.87066 2.46192,-10.46985 4.46427,-12.85713 9.0884,-10.83558 9.14065,-11.15879 17.50001,-14.10715 6.19539,-2.18512 28.13966,-30.19141 25.89286,-48.03571 -2.80651,10.36488 -7.49616,25.16049 -17.67858,34.10714 -3.782,3.32301 -16.22468,10.74253 -18.39285,6.96429 -1.87353,-3.2648 -10.87772,-9.9146 -14.10714,-9.10715 z"
         style="fill:#000080;stroke:#000080;stroke-width:1px;stroke-linecap:butt;stroke-linejoin:miter;stroke-opacity:1" />
      <path
         sodipodi:nodetypes="ccscccccc"
         inkscape:connector-curvature="0"
         id="path3517"
         d="m 377.85715,495.75504 c 1.72101,16.9246 3.58492,32.14703 10.71428,46.78571 8.52891,17.05783 31.0527,44.18707 48.75,53.03572 9.86586,4.93292 21.96725,6.13128 33.39285,5.71428 -15.64207,10.46052 -39.08949,-4.29842 -68.21428,10.89286 3.18952,-5.28056 7.82556,-8.64903 12.14285,-12.14286 -13.2219,-11.96634 -19.42452,-19.74191 -27.14285,-35.17857 -10.3082,-24.1202 -13.86867,-57.41713 -12.67858,-82.23214 3.13736,0.13144 2.58646,10.01886 3.03573,13.125 z"
         style="fill:#000080;stroke:#000080;stroke-width:1px;stroke-linecap:butt;stroke-linejoin:miter;stroke-opacity:1" />
      <path
         sodipodi:nodetypes="cccccscsssc"
         inkscape:connector-curvature="0"
         id="path3519"
         d="m 425.17857,530.93361 c 9.85848,7.58881 14.74515,28.58258 21.60714,34.46429 0.55258,-6.85354 5.58475,-15.36886 6.78572,-18.57143 -4.21274,13.46967 4.38987,25.04556 13.57143,30.35714 -1.5334,-3.6258 -1.10911,-6.52233 1.07143,-11.96429 0.83873,5.27802 1.79963,8.72918 3.92857,13.21429 3.85383,8.11902 15.49726,7.64036 15.89286,27.67857 -2.47558,-6.61199 -6.81897,-9.57019 -13.39286,-12.85714 -8.66263,-4.33132 -15.37675,0.5161 -25.89286,-7.5 -12.75636,-9.72379 -10.73914,-26.83542 -17.14286,-39.64285 -2.34423,-4.68847 -3.99801,-11.77579 -6.42857,-15.17858 z"
         style="fill:#000080;stroke:#000080;stroke-width:1px;stroke-linecap:butt;stroke-linejoin:miter;stroke-opacity:1" />
      <path
         sodipodi:nodetypes="cssscccccc"
         inkscape:connector-curvature="0"
         id="path3521"
         d="m 541.36729,447.15669 c 2.60548,5.36129 -0.79606,23.82116 -3.07378,29.67939 -5.90008,15.17488 -15.91833,26.75064 -23.93908,42.79215 -7.93354,15.86708 -6.55289,19.82035 -16.8934,35.33112 -2.94926,4.42389 -11.8275,17.00553 -13.25762,17.64114 4.45403,-0.19422 4.66035,0.085 7.84971,-1.11104 1.74706,15.22982 5.87392,44.56617 26.3673,28.78064 -26.4702,9.68112 -12.6099,-71.62316 6.31345,-77.36014 -2.95627,-0.41951 -8.59626,4.50395 -11.24475,4.79823 4.49949,-11.36513 41.79772,-59.20086 27.87817,-80.55149 z"
         style="fill:#000080;stroke:#000080;stroke-width:1px;stroke-linecap:butt;stroke-linejoin:miter;stroke-opacity:1" />
    </g>
    <g
       id="g3693"
       style="fill:#800080;stroke:#800080"
       transform="matrix(0.6181662,0,0,0.6181662,-38.061601,178.28718)">
      <path
         sodipodi:nodetypes="cccccccccssc"
         inkscape:connector-curvature="0"
         id="path3668"
         d="m 879.28571,311.11219 c 4.68573,34.01589 39.86073,54.50248 77.32143,50.89285 -25.36382,10.65186 -46.16626,6.6723 -61.96428,-7.5 28.36564,39.76042 16.74065,46.86573 34.64285,61.42857 -6.98323,-1.00186 -8.08112,-1.33691 -9.64285,-2.5 -1.94928,12.9062 -9.71372,27.33249 -17.3302,32.45023 -3.27311,6.82001 -0.3589,6.25117 -2.49123,8.08548 -14.21351,0.69033 -11.40489,-5.17143 -41.25,12.67858 12.64241,-15.47883 30.91151,-19.06214 40.71428,-41.42857 4.84986,-4.84986 7.6331,-42.62819 3.57143,-50 -7.18626,-13.04284 -13.00322,-26.01139 -19.46429,-39.28571 -3.21772,-6.61084 -3.10996,-16.14756 -4.10714,-24.82143 z"
         style="fill:#800080;stroke:#800080;stroke-width:1px;stroke-linecap:butt;stroke-linejoin:miter;stroke-opacity:1" />
      <path
         sodipodi:nodetypes="cccsc"
         inkscape:connector-curvature="0"
         id="path3670"
         d="m 788.42406,233.63354 c 14.78466,9.33759 29.15467,25.39112 46.71956,29.29443 9.89873,26.51076 55.46291,79.5826 64.64976,120.20815 -3.59631,-8.22014 -22.90244,-51.96903 -49.49747,-84.0952 -16.73284,-20.21288 -60.06213,-63.88722 -61.87185,-65.40738 z"
         style="fill:#800080;stroke:#800080;stroke-width:1px;stroke-linecap:butt;stroke-linejoin:miter;stroke-opacity:1" />
      <path
         sodipodi:nodetypes="cccccsscc"
         inkscape:connector-curvature="0"
         id="path3685"
         d="m 878.39286,349.50505 c 0.85535,-1.35687 2.31614,-1.73814 2.5,-3.39286 0.76471,20.3685 5.34053,40.228 15.89286,43.39286 2.69801,-1.37148 3.2733,-1.66464 3.92857,-4.28572 0.64589,9.27117 -1.47936,14.04162 -9.10715,16.78571 -4.02842,-3.284 -7.45519,-2.23456 -11.60713,-12.14285 -3.53685,-8.44043 -1.99199,-17.48831 -3.92857,-26.25001 -5.88226,-26.61388 -20.75923,-41.35051 -47.85715,-42.76785 18.68427,-6.44408 41.18506,10.3158 50.17857,28.66072 z"
         style="fill:#800080;stroke:#800080;stroke-width:1px;stroke-linecap:butt;stroke-linejoin:miter;stroke-opacity:1" />
      <path
         sodipodi:nodetypes="cscccccsccccscccsccc"
         inkscape:connector-curvature="0"
         id="path3689"
         d="m 810,369.1479 c 2.62454,9.66376 47.10648,23.98001 52.32143,18.03571 7.61771,-8.6831 -29.00017,-34.37574 -40.71428,-36.78571 11.91713,1.24823 19.44397,3.85321 30.89285,11.96428 -8.52026,-7.22431 -14.53748,-14.76592 -15.89285,-26.96428 3.42689,13.79907 21.94773,24.74394 27.67856,35.35714 5.82597,11.65194 11.94617,20.08178 19.28572,30.35714 -7.10509,-1.97748 -8.58917,-5.77158 -12.14286,-5.53571 -5.19608,0.34488 -14.84323,1.41356 -18.39285,0.89285 15.95444,8.41523 30.77427,27.84381 35.71428,38.92858 -7.94498,-8.57002 -34.69396,-32.41232 -35.17857,-10.17858 -0.23002,-3.28315 -1.95479,-8.68724 -1.69643,-10.53571 -6.10227,4.12807 -8.71912,4.64713 -12.23214,8.57143 -7.16456,8.00333 -15,25.43483 -15,36.42857 1.22222,-14.32697 4.23197,-33.30938 8.57143,-45.17857 1.1322,-3.43997 -5.92847,-6.39283 -8.92857,-7.14285 4.97365,-1.18033 17.06272,-1.18001 22.85713,-3.03572 13.49714,-4.32259 -6.08044,-10.88958 -14.10713,-10.35715 -22.25218,-1.36655 -47.54098,20.50532 -53.57143,38.92858 3.22468,-27.37255 33.56783,-36.4609 30.53571,-63.75 z"
         style="fill:#800080;stroke:#800080;stroke-width:1px;stroke-linecap:butt;stroke-linejoin:miter;stroke-opacity:1" />
    </g>
    <g
       id="g3726"
       style="fill:#668000;stroke:#668000"
       transform="matrix(0.84724468,0,0,0.84724468,25.231407,140.25934)">
      <path
         sodipodi:nodetypes="cccssscsssc"
         inkscape:connector-curvature="0"
         id="path3523"
         d="m 374.27519,367.70027 c -9.04395,1.2606 -12.15583,8.55721 -14.50231,14.21555 -2.62809,-2.61657 -1.51213,-5.28669 -3.78923,-7.56378 1.70349,21.43512 -4.24065,33.66967 -1.54113,47.73175 0.87989,4.58338 3.18003,9.48879 5.2039,13.08766 14.20279,25.25556 13.87972,36.97705 7.90103,53.03565 -1.29956,3.4906 -9.78462,14.4917 -6.37141,22.08555 2.52512,-13.24233 9.51075,-19.31022 12.78197,-23.79727 25.83623,-35.43883 -15.91956,-60.32464 -13.31781,-84.97296 0.7443,-7.0514 0.52268,-17.37791 5.62044,-25.83901 2.26215,-3.75463 6.52682,-6.36136 8.01455,-7.98314 z"
         style="fill:#668000;stroke:#668000;stroke-width:0.7296195px;stroke-linecap:butt;stroke-linejoin:miter;stroke-opacity:1" />
      <path
         sodipodi:nodetypes="cccccsc"
         inkscape:connector-curvature="0"
         id="path3654"
         d="m 382.80497,472.93865 c -4.06168,15.16673 -7.02932,22.13773 -13.08223,28.00702 10.9325,-8.70374 19.94205,-24.83926 31.32365,-16.76736 0.75753,-9.10259 9.63912,-15.14936 16.95162,-19.34696 13.92688,-7.64499 27.7725,-3.87434 37.40412,7.92305 -7.04562,-20.76573 -35.68194,-16.95706 -41.64202,-15.66183 -9.87956,2.147 -22.57059,9.76784 -30.95514,15.84608 z"
         style="fill:#668000;stroke:#668000;stroke-width:0.7296195px;stroke-linecap:butt;stroke-linejoin:miter;stroke-opacity:1" />
      <path
         sodipodi:nodetypes="ccccccssscc"
         inkscape:connector-curvature="0"
         id="path3656"
         d="m 438.08199,489.15325 c 1.36854,-3.6158 1.01751,-5.93305 1.47405,-10.04199 5.80988,-0.53129 7.92061,2.85608 12.71373,3.86939 14.45374,-2.21954 21.39519,-1.28386 36.29858,17.68864 0.21082,-5.96404 -6.10872,-10.6043 -6.81751,-11.0554 3.64871,3.35934 13.01221,1.11108 19.07058,4.97493 -5.09472,-6.42309 -15.15218,-4.58105 -21.7423,-8.75219 -4.24834,-2.68895 -7.23895,-4.21832 -12.06882,-6.63325 -4.92021,-2.46011 -16.40032,-1.26642 -21.00526,-4.42216 -7.24523,-4.96513 -15.22701,-11.21601 -21.18953,-11.42392 13.78246,12.16944 11.49344,13.99704 13.26648,25.79595 z"
         style="fill:#668000;stroke:#668000;stroke-width:0.7296195px;stroke-linecap:butt;stroke-linejoin:miter;stroke-opacity:1" />
      <path
         sodipodi:nodetypes="ccscsccsscc"
         inkscape:connector-curvature="0"
         id="path3658"
         d="m 394.21283,407.2296 c 0.7311,3.29519 -0.70652,4.50714 0.0131,7.38561 15.34842,-2.13209 26.18996,-7.91435 36.57311,-15.90408 7.16994,-5.51719 14.06917,-3.42806 24.35753,-14.91235 -1.13044,2.50613 -2.75021,7.61427 -6.41384,9.56787 -12.44205,6.63462 -15.44738,15.49984 -27.96127,25.03892 3.10562,-1.4601 3.00254,0.41146 6.4169,-0.44213 -4.42027,2.94063 -6.39966,5.99954 -9.96249,9.56237 -2.67586,2.67586 -13.44878,1.9351 -17.16656,3.17436 -15.31085,5.10362 -12.24719,18.71789 -12.63805,33.22375 -6.80961,-18.61494 -6.51379,-32.04147 6.78157,-56.69432 z"
         style="fill:#668000;stroke:#668000;stroke-width:0.7296195px;stroke-linecap:butt;stroke-linejoin:miter;stroke-opacity:1" />
      <path
         sodipodi:nodetypes="sscssssscs"
         inkscape:connector-curvature="0"
         id="path3660"
         d="m 456.59979,447.05058 c -5.18013,-1.1261 -13.08012,-5.90176 -20.54462,-5.80409 -11.31584,0.14808 -20.99594,8.16033 -31.18546,8.93645 4.38462,-2.65243 12.02326,-6.11856 14.87874,-13.63499 1.1608,-3.05554 0.36906,-7.16454 1.56618,-11.42393 0.0568,-0.20185 2.40896,-0.34476 2.30321,-0.0921 -0.62128,1.48427 2.78144,7.06273 7.4624,8.93645 2.30474,0.92256 5.92245,0.87902 7.09388,1.75044 6.78811,5.04957 24.02964,10.51529 32.65952,10.22625 -3.4736,1.32982 -10.00922,2.02392 -14.23385,1.10554 z"
         style="fill:#668000;stroke:#668000;stroke-width:0.7296195px;stroke-linecap:butt;stroke-linejoin:miter;stroke-opacity:1" />
      <path
         sodipodi:nodetypes="csssscccc"
         inkscape:connector-curvature="0"
         id="path3664"
         d="m 439.41664,401.77597 c 2.45967,7.30604 -11.24418,23.68997 -8.72938,27.23045 1.43373,2.01849 8.2373,-5.4237 11.33516,-6.51446 17.6485,-6.21412 38.69576,2.62781 42.2137,3.64809 9.64402,2.79697 30.13117,16.5057 36.2204,24.62466 4.34948,5.79931 10.98609,20.30027 17.19816,23.06119 -6.08774,-12.12515 -10.23819,-15.58758 -21.23713,-39.8685 -10.90856,-3.93212 -22.08973,-9.46368 -33.7449,-12.37747 -17.53116,-5.98896 -30.49121,-13.82353 -43.25601,-19.80396 z"
         style="fill:#668000;stroke:#668000;stroke-width:0.7296195px;stroke-linecap:butt;stroke-linejoin:miter;stroke-opacity:1" />
      <path
         sodipodi:nodetypes="cssccsszsccc"
         inkscape:connector-curvature="0"
         id="path3666"
         d="m 496.09243,422.23137 c 6.32878,0.20752 23.44326,2.25787 27.23045,-1.1726 3.17891,-2.87948 11.24702,-5.38476 11.72603,-5.60243 6.96001,-3.16273 10.17441,-8.05272 16.41643,-10.03227 10.68461,-3.56153 11.98622,2.62795 19.93425,-6.64475 0.20681,2.00551 -0.8817,4.24141 -2.86637,5.60244 -6.08358,4.17193 -9.30038,3.3189 -15.24383,4.42983 -4.38448,0.81952 -5.86129,4.4725 -9.18822,5.9002 -3.32693,1.4277 -9.51824,6.07403 -7.3585,11.68884 1.11681,2.90346 4.95764,6.22297 7.68706,6.90533 -6.84383,-0.55646 -8.41703,-4.15631 -14.72269,-5.73273 -8.31499,-4.08084 -19.18548,1.66912 -33.61461,-5.34186 z"
         style="fill:#668000;stroke:#668000;stroke-width:0.7296195px;stroke-linecap:butt;stroke-linejoin:miter;stroke-opacity:1" />
      <path
         sodipodi:nodetypes="ccccc"
         inkscape:connector-curvature="0"
         id="path3724"
         d="m 445.47727,400.05617 c 33.32969,3.30301 39.63955,-44.8156 54.04316,-74.24621 -4.10932,22.89659 -20.27548,57.2444 -21.08692,71.08949 3.97792,3.12717 10.04171,1.92393 13.63705,0.12626 -6.34151,8.90553 -43.14203,11.34402 -46.59329,3.03046 z"
         style="fill:#668000;stroke:#668000;stroke-width:1px;stroke-linecap:butt;stroke-linejoin:miter;stroke-opacity:1" />
    </g>
    <g
       id="g3922"
       style="fill:#a02c2c;stroke:#a02c2c"
       transform="matrix(0.84724468,0,0,0.84724468,25.231407,140.25934)">
      <path
         sodipodi:nodetypes="ccccsscc"
         inkscape:connector-curvature="0"
         id="path3822"
         d="m 362.67857,401.46932 c 11.67376,-18.10266 22.61033,-2.88545 41.78572,-21.78571 -57.57957,26.40462 -0.91431,-26.09102 9.28571,-52.85715 -3.59251,-30.9351 -5.81836,-50.02862 4.82143,-68.66071 -12.9733,15.30495 -15.91341,43.37492 -21.5242,55.03698 -2.36604,4.91781 -2.67763,16.745 -4.55992,21.78572 -4.78519,12.81458 -6.36857,21.74614 -13.02302,38.26658 -4.21613,15.51673 -19.83547,20.32907 -16.07143,27.85715"
         style="fill:#a02c2c;stroke:#a02c2c;stroke-width:1px;stroke-linecap:butt;stroke-linejoin:miter;stroke-opacity:1" />
      <path
         sodipodi:nodetypes="ccccccscccc"
         inkscape:connector-curvature="0"
         id="path3824"
         d="m 299.01786,370.48718 c 1.04395,-3.37347 7.66205,-7.00214 11.60714,-10.35715 7.32558,-12.9996 25.12292,-33.16874 35.05865,-36.08674 11.38017,-2.61429 29.85308,11.63157 32.08607,20.72961 3.72883,-6.36238 4.80349,-12.22038 8.58861,-22.91208 1.71022,13.89217 -8.39002,19.42727 -8.32261,46.92993 -4.87882,-11.79544 -4.65917,-14.81206 -9.38135,-20.74492 -17.84479,-22.41993 -44.79543,-3.99197 -53.58938,11.89928 -13.07716,23.57884 -13.30967,31.2984 -19.88642,41.16707 4.65134,-19.81677 13.38677,-29.41117 14.10714,-36.58548 -1.53315,1.37976 -6.35017,3.0968 -10.26785,5.96048 z"
         style="fill:#a02c2c;stroke:#a02c2c;stroke-width:1px;stroke-linecap:butt;stroke-linejoin:miter;stroke-opacity:1" />
      <path
         sodipodi:nodetypes="ccccscccccc"
         inkscape:connector-curvature="0"
         id="path3832"
         d="m 307.23214,296.11218 c 16.53072,-23.3248 59.58024,-37.43922 72.99104,-0.0446 -0.0953,-3.01518 0.0642,-7.2566 -1.11604,-10.58037 0.92262,-1.36904 3.3631,-1.75595 4.28572,-3.12499 -1.3883,-1.17349 -3.06581,-0.26777 -4.51678,-1.38702 -10.68092,-8.239 -23.33359,-16.98163 -46.46536,-20.93441 -3.28368,8.69376 -37.34878,36.50414 -55.53572,46.42857 4.19279,-2.16932 9.68522,-3.72654 12.94643,-5.35714 -2.17416,2.37068 -3.59297,5.53015 -4.55357,7.76786 4.24775,-5.12515 14.89343,-15.59992 21.96428,-12.76786 z"
         style="fill:#a02c2c;stroke:#a02c2c;stroke-width:1px;stroke-linecap:butt;stroke-linejoin:miter;stroke-opacity:1" />
      <path
         sodipodi:nodetypes="ccccscccc"
         inkscape:connector-curvature="0"
         id="path3912"
         d="m 396.07143,300.39789 c 0.91125,-2.56816 1.39974,-4.63821 2.67857,-6.42857 -5.79896,-5.0144 -5.424,-21.54109 -4.01786,-31.07142 -23.66579,-24.30236 -24.45271,-61.90034 -14.375,-88.75 -5.10784,4.56047 -7.33844,22.39975 -8.21428,25.71428 -4.81606,18.22589 10.39721,40.63451 -15.62501,51.42857 5.31298,-1.31001 10.00709,-1.07143 15.80358,-1.07143 0.0553,6.90213 -1.83981,14.39716 -4.91072,18.92858 17.63831,-0.35144 25.21397,17.46299 28.66072,31.24999 z"
         style="fill:#a02c2c;stroke:#a02c2c;stroke-width:1px;stroke-linecap:butt;stroke-linejoin:miter;stroke-opacity:1" />
      <path
         sodipodi:nodetypes="cccccccccsscsscccscccssccsc"
         inkscape:connector-curvature="0"
         id="path3914"
         d="m 285.17857,198.43361 c -4.28775,-4.99816 -1.21635,-19.68217 -4.28571,-16.87501 2.59871,-16.95516 23.34592,-40.59771 33.74999,-36.25 1.73612,-1.14606 3.19438,-2.86678 3.92858,-5.80356 12.49244,4.69012 42.72535,2.82404 54.28571,-9.46429 -0.091,7.80803 3.28577,11.97708 7.76786,15.17858 1.64599,1.4465 3.69069,7.69897 4.55357,9.99999 0.80608,2.88231 3.25773,3.61004 5.53572,4.46429 -5.74396,-11.19854 -7.51246,-27.06995 -18.75,-35.53572 3.1566,0.383 6.22108,-0.11808 7.67856,-3.30357 1.63153,-3.5659 1.39544,-6.92428 2.76787,-9.01785 7.41869,-11.31686 16.45761,-9.68972 27.23214,-15.892863 -10.12529,9.064253 -20.26906,8.919413 -22.99982,18.459393 -8.70217,30.40112 15.27822,52.91512 19.27674,68.63116 3.25038,12.77551 7.69788,39.51676 8.09808,49.4273 3.3622,-0.70956 7.68826,-7.57742 8.83928,-11.16071 1.0039,7.14027 -5.11507,12.74752 -8.83928,17.32143 -0.22867,7.47124 -2.28951,19.77027 -4.37501,24.28572 -6.28488,13.6078 -8.51574,7.0209 -7.23213,27.49999 -5.57941,-13.86374 1.04039,-29.21125 1.96428,-31.96428 1.385,-5.9976 -0.77209,-33.18205 -4.81079,-43.54437 -4.26482,-15.78232 1.75903,-40.58382 -15.01063,-55.83063 -4.46241,-4.05718 0.70078,-10.35011 -14.36442,-10.59806 -7.49376,-0.12333 -15.96374,2.50128 -16.26059,16.40163 -5.10811,-20.59722 -37.39693,-20.71398 -43.03571,-6.25 -6.17717,-14.94972 -22.122,11.58519 -25.53571,20.71428 -2.11065,5.64439 0.37173,15.40162 -0.35715,19.28572"
         style="fill:#a02c2c;stroke:#a02c2c;stroke-width:1px;stroke-linecap:butt;stroke-linejoin:miter;stroke-opacity:1" />
      <path
         sodipodi:nodetypes="cccccsccccccccc"
         inkscape:connector-curvature="0"
         id="path3918"
         d="m 450.71428,205.04075 c 10.01994,-4.48096 23.00407,-3.19245 31.07143,-3.03572 27.49549,1.74512 42.04936,21.94463 55.53572,-4.64285 1.68373,6.98726 -5.72125,10.5276 -1.42857,15.53572 -18.59739,1.97888 -42.02745,-7.47748 -48.75,3.39285 -10.18741,-9.13941 -11.6737,-8.66963 -14.25667,-8.68104 -20.4273,-0.0903 -42.39424,18.99932 -44.13619,28.50247 8.41563,1.15529 14.07646,-4.00869 19.46429,-7.85714 0.42961,1.21215 2.32311,1.60882 2.85714,2.14285 -15.69161,6.19146 -16.68324,23.56451 -19.82143,40.53572 0.48693,-8.2569 1.52509,-23.38083 4.64286,-31.42857 -11.5745,2.25914 -13.77399,6.09541 -19.64286,13.75 2.73458,-14.40036 14.72239,-38.04078 27.85714,-46.25 0.67342,-4.81175 -1.29168,-7.98909 1.33929,-14.28571 2.71013,4.43625 0.66966,10.02232 5.26785,12.32142 z"
         style="fill:#a02c2c;stroke:#a02c2c;stroke-width:1px;stroke-linecap:butt;stroke-linejoin:miter;stroke-opacity:1" />
    </g>
    <text
       xml:space="preserve"
       style="font-size:25.49288368px;font-style:normal;font-variant:normal;font-weight:normal;font-stretch:normal;text-align:center;line-height:125%;letter-spacing:0px;word-spacing:0px;writing-mode:lr-tb;text-anchor:middle;fill:#800000;fill-opacity:1;stroke:#ffffff;stroke-width:0.84724462;font-family:Droid Sans;-inkscape-font-specification:Droid Sans"
       x="210.22429"
       y="378.90326"
       id="text4007"
       sodipodi:linespacing="125%"><tspan
         sodipodi:role="line"
         id="tspan4009"
         x="210.22429"
         y="378.90326"
         style="stroke-width:0.84724462">Floating</tspan><tspan
         sodipodi:role="line"
         x="210.22429"
         y="410.76938"
         id="tspan4011"
         style="stroke-width:0.84724462">School</tspan><tspan
         sodipodi:role="line"
         x="210.22429"
         y="442.63547"
         id="tspan4013"
         style="stroke-width:0.84724462">(aloft)</tspan></text>
    <text
       xml:space="preserve"
       style="font-size:30.50080681px;font-style:normal;font-variant:normal;font-weight:normal;font-stretch:normal;text-align:center;line-height:125%;letter-spacing:0px;word-spacing:0px;writing-mode:lr-tb;text-anchor:middle;fill:#668000;fill-opacity:1;stroke:#ffffff;stroke-width:0.84724462;font-family:Droid Sans;-inkscape-font-specification:Droid Sans"
       x="483.12491"
       y="594.10217"
       id="text4015"
       sodipodi:linespacing="125%"><tspan
         sodipodi:role="line"
         id="tspan4017"
         x="483.12491"
         y="594.10217"
         style="stroke-width:0.84724462">Floating</tspan><tspan
         sodipodi:role="line"
         x="483.12491"
         y="632.22821"
         id="tspan4019"
         style="stroke-width:0.84724462">School</tspan><tspan
         sodipodi:role="line"
         x="483.12491"
         y="670.35419"
         id="tspan4021"
         style="stroke-width:0.84724462">(inside)</tspan></text>
    <text
       xml:space="preserve"
       style="font-size:30.50080681px;font-style:normal;font-variant:normal;font-weight:normal;font-stretch:normal;text-align:start;line-height:125%;letter-spacing:0px;word-spacing:0px;writing-mode:lr-tb;text-anchor:start;fill:#000080;fill-opacity:1;stroke:#ffffff;stroke-width:0.84724462;font-family:Droid Sans;-inkscape-font-specification:Droid Sans"
       x="83.428963"
       y="556.44495"
       id="text4023"
       sodipodi:linespacing="125%"><tspan
         sodipodi:role="line"
         id="tspan4025"
         x="83.428963"
         y="556.44495"
         style="stroke-width:0.84724462">Bourne</tspan></text>
    <text
       xml:space="preserve"
       style="font-size:30.50080681px;font-style:normal;font-variant:normal;font-weight:normal;font-stretch:normal;text-align:center;line-height:125%;letter-spacing:0px;word-spacing:0px;writing-mode:lr-tb;text-anchor:middle;fill:#800000;fill-opacity:1;stroke:#ffffff;stroke-width:0.84724462;font-family:Droid Sans;-inkscape-font-specification:Droid Sans"
       x="490.02481"
       y="772.974"
       id="text4027"
       sodipodi:linespacing="125%"><tspan
         sodipodi:role="line"
         id="tspan4029"
         x="490.02481"
         y="772.974"
         style="stroke-width:0.84724462">Nepenthe and</tspan><tspan
         sodipodi:role="line"
         x="490.02481"
         y="811.10004"
         id="tspan4031"
         style="stroke-width:0.84724462">the Library</tspan></text>
    <text
       xml:space="preserve"
       style="font-size:30.50080681px;font-style:normal;font-variant:normal;font-weight:normal;font-stretch:normal;text-align:start;line-height:125%;letter-spacing:0px;word-spacing:0px;writing-mode:lr-tb;text-anchor:start;fill:#008000;fill-opacity:1;stroke:none;font-family:Droid Sans;-inkscape-font-specification:Droid Sans"
       x="298.67435"
       y="862.40991"
       id="text4033"
       sodipodi:linespacing="125%"><tspan
         sodipodi:role="line"
         id="tspan4035"
         x="298.67435"
         y="862.40991">Axis and Kane</tspan></text>
    <text
       xml:space="preserve"
       style="font-size:30.50080681px;font-style:normal;font-variant:normal;font-weight:normal;font-stretch:normal;text-align:center;line-height:125%;letter-spacing:0px;word-spacing:0px;writing-mode:lr-tb;text-anchor:middle;fill:#000000;fill-opacity:1;stroke:none;font-family:Droid Sans;-inkscape-font-specification:Droid Sans"
       x="385.85928"
       y="922.74713"
       id="text4037"
       sodipodi:linespacing="125%"><tspan
         sodipodi:role="line"
         id="tspan4039"
         x="385.85928"
         y="922.74713">Labyrinth of</tspan><tspan
         sodipodi:role="line"
         x="385.85928"
         y="960.87317"
         id="tspan4041">the Serpent</tspan></text>
    <text
       xml:space="preserve"
       style="font-size:30.50080681px;font-style:normal;font-variant:normal;font-weight:normal;font-stretch:normal;text-align:start;line-height:125%;letter-spacing:0px;word-spacing:0px;writing-mode:lr-tb;text-anchor:start;fill:#800080;fill-opacity:1;stroke:#ffffff;stroke-width:0.81968033;font-family:Droid Sans;-inkscape-font-specification:Droid Sans"
       x="524.7431"
       y="535.65442"
       id="text4043"
       sodipodi:linespacing="125%"><tspan
         sodipodi:role="line"
         id="tspan4045"
         x="524.7431"
         y="535.65442"
         style="stroke-width:0.81968033">Gavin</tspan><tspan
         sodipodi:role="line"
         x="524.7431"
         y="573.7804"
         id="tspan4047"
         style="stroke-width:0.81968033">and</tspan><tspan
         sodipodi:role="line"
         x="524.7431"
         y="611.90643"
         id="tspan4049"
         style="stroke-width:0.81968033">Vevay</tspan></text>
    <g
       id="g4080"
       style="fill:#000000;stroke:#000000"
       transform="matrix(0.81968031,0,0,0.81968031,47.079503,153.94762)">
      <path
         sodipodi:nodetypes="cccscscsscscscccsccccc"
         inkscape:connector-curvature="0"
         id="path4063"
         d="m 448.00266,385.40896 c -0.15528,-18.97484 5.57429,-16.87116 2.52538,-25.00127 11.10235,2.49529 13.90754,-5.67852 14.77348,-14.89976 -0.85357,-14.66908 -13.68873,-30.32513 -29.67323,-32.07234 -16.45623,-1.79877 -22.23921,22.84651 -22.22336,23.23351 -3.71069,-16.94822 14.05629,-21.05274 11.11168,-31.06219 -0.58615,-1.99245 -2.7688,-3.49905 -3.283,-5.55584 1.93774,6.10255 17.62285,4.12287 20.96067,4.29315 5.32227,0.27151 12.13967,6.64642 16.0412,10.54796 7.35064,7.35064 13.29791,26.64894 10.4753,37.93936 0.59066,3.05754 8.52028,-14.70256 -0.25253,-34.21892 -4.04692,-9.00295 -14.37679,-34.18711 -15.78364,-48.48731 1.73971,-10.77792 2.3246,-25.72249 4.92449,-36.23923 3.24854,-13.14055 10.73288,-22.09709 10.73288,-22.09709 -2.75171,7.88281 -4.46531,17.46678 3.40926,20.20306 -7.09395,-1.31485 -12.74663,1.97173 -10.94333,12.45613 -0.96428,11.00811 10.19487,61.86184 16.75171,75.93221 0.64026,1.37394 7.18331,-2.62361 7.57614,-3.40926 -0.57517,3.95508 -2.41918,4.29559 -6.06091,11.74302 -2.58502,4.01393 -3.6065,21.56321 -5.80838,26.1377 -2.16899,-1.14061 -10.5453,4.34493 -15.28855,12.98841 -4.54586,-0.86389 -8.32069,9.09405 -9.96526,17.5687 z"
         style="fill:#000000;stroke:#000000;stroke-width:1px;stroke-linecap:butt;stroke-linejoin:miter;stroke-opacity:1" />
      <path
         sodipodi:nodetypes="ccscc"
         inkscape:connector-curvature="0"
         id="path4065"
         d="m 445.89286,207.63003 c 10.68423,-6.00329 17.54333,-4.42868 24.28571,-3.21428 -5.95701,3.378 -11.86636,9.99734 -13.08527,12.29767 -5.23079,9.87157 -5.30225,23.07181 -6.28972,35.82733 -1.49064,-11.77649 1.8505,-38.56487 -4.91072,-44.91072 z"
         style="fill:#000000;stroke:#000000;stroke-width:1px;stroke-linecap:butt;stroke-linejoin:miter;stroke-opacity:1" />
      <path
         sodipodi:nodetypes="cccccsc"
         inkscape:connector-curvature="0"
         id="path4067"
         d="m 471.23616,184.64114 c -6.48114,0.66692 -10.83711,-1.85348 -26.8953,5.55584 -5.97792,-13.67794 11.27733,-56.7481 -0.12628,-59.599 11.57349,1.20584 37.1494,1.50618 31.8557,-31.562907 3.22785,0.662836 2.61465,25.245237 2.99457,28.784987 -15.0357,7.65007 -18.63438,3.81744 -21.71829,9.97526 -10.19821,20.36336 -3.65296,36.15465 13.8896,46.84582 z"
         style="fill:#000000;stroke:#000000;stroke-width:1px;stroke-linecap:butt;stroke-linejoin:miter;stroke-opacity:1" />
      <path
         sodipodi:nodetypes="cssssscccc"
         inkscape:connector-curvature="0"
         id="path4071"
         d="m 481.07143,162.00504 c -0.78064,-4.38827 18.7222,-4.3435 18.21429,-5.71429 -2.02626,-5.46868 -34.68751,-17.68048 -37.5,-17.67857 -1.02754,7e-4 2.00817,0.53571 3.03571,0.53571 3.01388,0 6.21538,-1.37527 9.28572,-2.14285 7.34993,-1.83749 8.12582,-5.98297 13.03571,-10.89286 14.54965,-14.54965 -1.4137,-39.030886 -14.10714,-46.964288 23.1833,8.61933 36.17081,46.745918 9.82142,63.214278 10.02185,6.22924 18.92445,15.57449 33.21429,18.75001 -11.37866,1.66844 -28.21512,-6.08886 -35,0.89286 z"
         style="fill:#000000;stroke:#000000;stroke-width:1px;stroke-linecap:butt;stroke-linejoin:miter;stroke-opacity:1" />
    </g>
    <text
       xml:space="preserve"
       style="font-size:29.50849152px;font-style:normal;font-variant:normal;font-weight:normal;font-stretch:normal;text-align:start;line-height:125%;letter-spacing:0px;word-spacing:0px;writing-mode:lr-tb;text-anchor:start;fill:#000000;fill-opacity:1;stroke:#ffffff;stroke-width:0.81968033;font-family:Droid Sans;-inkscape-font-specification:Droid Sans"
       x="379.91238"
       y="168.37653"
       id="text4086"
       sodipodi:linespacing="125%"><tspan
         sodipodi:role="line"
         id="tspan4088"
         x="379.91238"
         y="168.37653"
         style="stroke-width:0.81968033">Tessera</tspan><tspan
         sodipodi:role="line"
         x="379.91238"
         y="205.26213"
         id="tspan3219"
         style="stroke-width:0.81968033">(visible)</tspan></text>
    <path
       style="fill:#ffd42a;stroke:#000000;stroke-width:1px;stroke-linecap:butt;stroke-linejoin:miter;stroke-opacity:1"
       d="m 475,268.57143 c -3.74034,-2.05324 -12.56998,-5.72979 -11.78572,-6.07143 4.09729,-1.78488 21.81236,9.5096 27.85715,8.92858 6.04479,-0.58102 17.50582,0.014 33.03571,-1.25 2.76638,-0.22516 10.13552,-5.95636 27.14286,-2.50001 18.59537,3.77909 27.35808,28.28327 30.35714,40.89286 -4.51182,-17.05172 -16.42422,-37.66801 -39.82143,-36.60714 -1.29768,0.0588 -11.89662,-1.29659 -14.46429,4.82143 -2.56767,6.11802 -20.81605,19.18335 -41.78571,-1.78572 -2.63616,-2.63609 -6.79537,-4.37532 -10.53571,-6.42857 z"
       id="path4052"
       inkscape:connector-curvature="0"
       transform="translate(0,62.362183)"
       sodipodi:nodetypes="zszsscszsz" />
    <path
       style="fill:#ffd42a;stroke:#000000;stroke-width:1px;stroke-linecap:butt;stroke-linejoin:miter;stroke-opacity:1"
       d="m 562.32143,264.46429 c 1.40033,4.02811 3.66789,8.04874 6.7857,11.07143 12.87371,12.48092 14.29003,15.43786 17.5,29.99999 1.86288,8.451 -7.48226,19.19062 -0.35713,26.96429 -1.4786,-8.74354 -0.16644,-14.8749 6.42856,-19.46428 3.51195,-2.44392 -0.002,-11.78391 3.57144,-15.35714 1.34014,-1.34015 5.11345,1.48949 6.78571,1.07142 -2.95509,-0.32479 -2.52026,-2.8774 -5,-3.92857 -2.40985,-1.02154 -4.68691,-0.41651 -6.96429,-1.78571 -4.6145,-2.77433 -4.11722,-6.99963 -12.67856,-11.25 -3.17693,-1.57722 -9.64544,-7.85972 -12.14286,-10.35714 -1.99863,-1.99863 -2.92688,-5.88485 -4.28572,-8.21429"
       id="path4054"
       inkscape:connector-curvature="0"
       transform="translate(0,62.362183)"
       sodipodi:nodetypes="csscsscssssc" />
    <path
       style="fill:#ffd42a;stroke:#000000;stroke-width:1px;stroke-linecap:butt;stroke-linejoin:miter;stroke-opacity:1"
       d="m 490.44643,266.16072 c 1.45857,-3.77165 8.25777,-6.49496 11.69642,-8.21428 8.9998,-0.70323 5.7893,-10.53535 14.46429,-20.53573 3.59825,-3.95712 29.62432,1.72406 33.48214,3.57143 3.16698,1.51655 10.92487,1.31402 10.98215,1.42857 1.17964,2.35928 -1.69591,2.49895 -2.58929,4.28571 1.69262,5.45963 -2.55185,8.80294 -2.94643,9.10714 -4.78818,3.69147 -10.28001,3.79069 -11.96429,-2.94642 3.86448,2.08685 5.28147,4.12282 9.55358,1.16072 3.43924,-2.38462 -2.46447,-8.43333 -4.37501,-10.35714 -1.81872,-1.83137 -21.69619,-7.92472 -25.62499,-3.83929 -3.89643,2.63136 -10.63717,10.742 -12.85715,15.625 1.71489,6.85954 21.36753,2.42469 23.48215,-3.21428 1.32463,4.47812 -2.10644,5.57536 -4.91072,7.67857 -5.14518,3.85888 -12.54438,6.02684 -19.46428,4.64286 -1.42812,-0.28563 -2.1631,-1.67917 -3.30357,-1.96429 -4.26387,-1.06597 -6.1489,-0.474 -10.17858,0.625 -3.67397,1.00199 -5.54804,2.03189 -5.44642,2.94643 z"
       id="path4056"
       inkscape:connector-curvature="0"
       transform="translate(0,62.362183)"
       sodipodi:nodetypes="cccsccscsscccssssc" />
    <path
       style="fill:#ffd42a;stroke:#000000;stroke-width:1px;stroke-linecap:butt;stroke-linejoin:miter;stroke-opacity:1"
       d="m 536.42857,289.28572 c 3.86099,-2.49282 8.49336,-3.77196 13.08643,-3.61358 4.59307,0.15839 9.12632,1.75359 12.80642,4.50644 5.20159,3.89098 8.52886,9.91025 10.14295,16.20239 1.6141,6.29214 1.64464,12.88349 1.23493,19.36642 -0.52338,8.28151 -1.74735,16.50682 -2.27073,24.78833 -0.57976,9.17352 -0.30173,18.42876 -1.78572,27.5 -1.44028,8.80402 -4.54707,17.33247 -9.10714,25 l 5.17857,-5.53572 -8.57143,19.28572 c 7.35443,-13.42606 12.95263,-27.8128 16.60716,-42.67857 1.5336,-6.2383 2.72643,-12.56035 3.57141,-18.92858 l 4.46429,-1.07142 -3.21428,-38.57143 c -1.44538,-7.49318 -4.51212,-14.66936 -8.92858,-20.89285 -4.93008,-6.94726 -11.54078,-12.69302 -19.10714,-16.60715 l 3.92857,6.07143 c -2.86545,-0.66828 -5.88455,-0.66828 -8.75,0 -3.49681,0.81552 -6.75421,2.63215 -9.28571,5.17857"
       id="path4058"
       inkscape:path-effect="#path-effect4060"
       inkscape:original-d="m 536.42857,289.28572 c 0,0 21.24999,-3.03571 25.89285,0.89286 4.03399,3.41337 12.46928,13.35343 11.37788,35.56881 -0.52441,10.67438 -1.49807,20.77213 -2.27073,24.78833 -6.05896,31.49398 -7.56993,16.18342 -1.78572,27.5 6.36015,12.44337 -8.79391,24.90102 -9.10714,25 l 5.17857,-5.53572 -8.57143,19.28572 c 0,0 11.87588,-22.19497 16.60716,-42.67857 4.30237,-18.62673 3.57141,-18.92858 3.57141,-18.92858 l 4.46429,-1.07142 c -1.78648,-12.94984 -24.45317,-28.60637 -3.21428,-38.57143 0,0 1.04791,-27.89078 -8.92858,-20.89285 -18.42703,12.92549 -27.02911,-0.76322 -19.10714,-16.60715 l 3.92857,6.07143 c 0,0 -2.5,-1.96429 -8.75,0 -6.25,1.96428 -9.28571,5.17857 -9.28571,5.17857 z"
       inkscape:connector-curvature="0"
       transform="translate(0,62.362183)"
       sodipodi:nodetypes="csssscccscccsccsc" />
    <text
       xml:space="preserve"
       style="font-size:29.50849151999999975px;font-style:normal;font-variant:normal;font-weight:normal;font-stretch:normal;text-align:start;line-height:125%;letter-spacing:0px;word-spacing:0px;writing-mode:lr-tb;text-anchor:start;fill:#d4aa00;fill-opacity:1;stroke:#ffffff;stroke-width:0.81968032999999996;font-family:Droid Sans;-inkscape-font-specification:Droid Sans"
       x="604.38702"
       y="225.91452"
       id="text4086-6"
       sodipodi:linespacing="125%"><tspan
         sodipodi:role="line"
         id="tspan4088-3"
         x="604.38702"
         y="225.91452"
         style="stroke-width:0.81968032999999996;fill:#d4aa00">Tessera</tspan><tspan
         sodipodi:role="line"
         x="604.38702"
         y="262.80014"
         id="tspan3219-6"
         style="stroke-width:0.81968032999999996;fill:#d4aa00">and the</tspan><tspan
         sodipodi:role="line"
         x="604.38702"
         y="299.68576"
         style="stroke-width:0.81968032999999996;fill:#d4aa00"
         id="tspan4696">Forest</tspan></text>
    <path
       style="fill:#ffd42a;stroke:#000000;stroke-width:1px;stroke-linecap:butt;stroke-linejoin:miter;stroke-opacity:1"
       d="m 512.39988,238.19397 c 10.75789,-22.97783 45.33672,-0.74528 63.6396,5.3033 6.41348,2.11947 16.14388,3.78807 22.98098,3.78807 -21.66573,1.10021 -78.72187,-43.19439 -86.62058,-9.09137 z"
       id="path4700"
       inkscape:connector-curvature="0"
       transform="translate(0,62.362183)"
       sodipodi:nodetypes="cscc" />
    <path
       style="fill:#ffd42a;stroke:#000000;stroke-width:1px;stroke-linecap:butt;stroke-linejoin:miter;stroke-opacity:1"
       d="m 506.84404,251.57849 c -0.46237,-9.89922 4.30704,-20.28199 4.29315,-29.04189 11.99864,-1.63163 25.11599,0.69536 33.58757,-6.56599 -10.60235,10.42923 -35.74375,2.91586 -47.22463,1.76777 4.09701,2.14643 9.66789,3.77759 9.09137,7.82868 -1.00368,7.05272 -24.92704,42.45398 -33.84011,36.87057 16.88372,5.69004 19.68058,-14.40178 34.09265,-10.85914 z"
       id="path4702"
       inkscape:connector-curvature="0"
       transform="translate(0,62.362183)"
       sodipodi:nodetypes="ccccscc" />
    <path
       style="fill:#ffd42a;stroke:#000000;stroke-width:1px;stroke-linecap:butt;stroke-linejoin:miter;stroke-opacity:1"
       d="m 603.56615,293.24728 c 13.87446,18.62296 10.92487,49.30551 -16.92006,52.2754 3.14467,1.81675 7.25708,1.23566 8.46003,0.75761 -1.69522,2.52579 -4.10103,5.64863 -4.67195,11.61675 11.51447,-28.08862 25.39156,-7.74244 24.74873,-35.10279 -0.20364,-8.66703 -5.63919,-28.3089 -11.61675,-29.54697 z"
       id="path4708"
       inkscape:connector-curvature="0"
       transform="translate(0,62.362183)"
       sodipodi:nodetypes="ccccsc" />
    <path
       style="fill:#ffd42a;stroke:#000000;stroke-width:1px;stroke-linecap:butt;stroke-linejoin:miter;stroke-opacity:1"
       d="m 602.55599,354.36151 c 10.91041,-0.92241 13.22715,-14.23275 14.64722,-22.03396 0.17911,2.88807 -3.20389,16.9832 1.32582,17.04633 -3.68191,3.99857 -4.76888,10.6765 -5.74524,14.58408 -2.67241,10.69551 -1.46825,17.49252 -1.6415,25.75889 -0.19792,9.44364 4.49166,24.68161 12.12183,26.5165 -14.36651,-0.51091 -16.73124,-31.94894 -16.03617,-44.19416 0.17302,-3.0481 0.71412,-8.76494 1.6415,-11.6799 -2.21483,-1.48606 -3.17087,-4.03366 -6.31346,-5.99778 z"
       id="path4714"
       inkscape:connector-curvature="0"
       transform="translate(0,62.362183)"
       sodipodi:nodetypes="cccsscscc" />
    <path
       style="fill:#ffd42a;stroke:#000000;stroke-width:1px;stroke-linecap:butt;stroke-linejoin:miter;stroke-opacity:1"
       d="m 599.77807,353.6039 c -0.21894,5.86579 1.63865,10.81538 5.17704,13.8896 -9.60711,2.56824 -22.20067,4.91344 -27.65293,13.63705 4.3136,-13.06618 16.38712,-5.47132 22.47589,-27.52665 z"
       id="path4716"
       inkscape:connector-curvature="0"
       transform="translate(0,62.362183)"
       sodipodi:nodetypes="cccc" />
    <path
       style="fill:#ffd42a;stroke:#000000;stroke-width:1px;stroke-linecap:butt;stroke-linejoin:miter;stroke-opacity:1"
       d="m 601.86151,390.97954 c 7.60045,7.41582 2.95856,19.17269 -6.56599,29.6101 10.55577,-20.42688 -17.53631,4.67872 -7.1342,15.59422 -1.31015,-0.4762 -6.18344,-4.06995 -3.59867,-10.03839 -2.22422,1.64328 -2.3613,4.58413 -2.46225,8.27063 -2.53318,-17.3572 21.92099,-20.55449 19.76111,-43.43656 z"
       id="path4722"
       inkscape:connector-curvature="0"
       transform="translate(0,62.362183)"
       sodipodi:nodetypes="cccccc" />
  </g>
</svg>
