<?xml version="1.0" encoding="UTF-8" standalone="no"?>
<!-- Created with Inkscape (http://www.inkscape.org/) -->

<svg
   xmlns:dc="http://purl.org/dc/elements/1.1/"
   xmlns:cc="http://creativecommons.org/ns#"
   xmlns:rdf="http://www.w3.org/1999/02/22-rdf-syntax-ns#"
   xmlns:svg="http://www.w3.org/2000/svg"
   xmlns="http://www.w3.org/2000/svg"
   xmlns:sodipodi="http://sodipodi.sourceforge.net/DTD/sodipodi-0.dtd"
   xmlns:inkscape="http://www.inkscape.org/namespaces/inkscape"
   width="990"
   height="765"
   id="svg3016"
   version="1.1"
   inkscape:version="0.48.4 r9939"
   sodipodi:docname="Nepenthe and the Library.svg">
  <defs
     id="defs3018" />
  <sodipodi:namedview
     id="base"
     pagecolor="#ffffff"
     bordercolor="#666666"
     borderopacity="1.0"
     inkscape:pageopacity="0.0"
     inkscape:pageshadow="2"
     inkscape:zoom="0.35"
     inkscape:cx="375"
     inkscape:cy="520"
     inkscape:document-units="px"
     inkscape:current-layer="layer1"
     showgrid="false"
     inkscape:window-width="854"
     inkscape:window-height="597"
     inkscape:window-x="947"
     inkscape:window-y="83"
     inkscape:window-maximized="0" />
  <metadata
     id="metadata3021">
    <rdf:RDF>
      <cc:Work
         rdf:about="">
        <dc:format>image/svg+xml</dc:format>
        <dc:type
           rdf:resource="http://purl.org/dc/dcmitype/StillImage" />
        <dc:title />
      </cc:Work>
    </rdf:RDF>
  </metadata>
  <g
     inkscape:label="Layer 1"
     inkscape:groupmode="layer"
     id="layer1"
     transform="translate(0,-287.36218)">
    <path
       style="fill:none;stroke:#000000;stroke-width:1.72304261px;stroke-linecap:butt;stroke-linejoin:miter;stroke-opacity:1"
       d="m 207.40712,684.69977 c 3.67469,-32.35327 33.79268,-20.66771 67.71399,-10.67215 9.59327,2.82683 7.93506,-7.49 18.69411,-2.31436 -28.39886,-17.2736 -26.1543,-47.53893 -41.98976,-89.64401 -3.56991,-9.49207 -4.30102,-34.20418 -6.80224,-44.47237 -1.20729,-4.95638 0.67017,-38.00192 -6.41195,-39.19312 0.81904,1.91538 3.22793,30.49063 -3.42018,24.56955 -32.82455,-29.23497 -45.61946,-89.18681 -12.91592,-150.46888 -32.36825,28.63477 -32.26719,62.26219 -29.90858,94.16968 -6.68431,-6.7246 -31.39622,7.48771 -28.1306,9.53941 3.17613,1.99546 34.81848,1.36905 42.33674,32.23373 6.317,25.93322 -18.71181,15.83509 -17.30115,-1.15994 -13.40523,33.04615 42.98656,45.87572 34.05471,75.454 -23.03149,-12.07435 -34.79246,-3.56106 -60.91166,-14.72125 -18.71182,-7.99516 -32.03714,-38.60171 -41.15512,-53.123 -5.14611,-8.19571 -14.01424,-17.41533 -32.916546,-19.3012 43.852776,18.18614 29.750516,53.25939 49.686386,73.43773 -17.25697,-8.60257 -33.20266,2.26561 -46.575356,5.52305 -0.76793,0.18706 15.671056,1.85854 16.455576,1.36592 5.25264,-3.29818 15.29656,-2.22015 21.41499,1.50139 25.22811,15.345 43.87412,14.64333 40.10363,52.48341 26.21407,-7.48395 44.57565,20.22826 39.31828,33.02115 -4.40495,10.71874 -5.84383,18.89182 -1.33935,21.77126 z"
       id="path4794"
       inkscape:connector-curvature="0"
       sodipodi:nodetypes="cscsscsccssccssccssscsc" />
    <path
       style="fill:none;stroke:#000000;stroke-width:1.72304261px;stroke-linecap:butt;stroke-linejoin:miter;stroke-opacity:1"
       d="m 158.02397,770.62533 c -3.83282,-23.05675 -3.47299,-14.93976 1.20329,-24.47738 27.92397,-56.95303 138.19269,-59.11505 189.02795,-71.57279 33.94108,-8.31759 95.16534,-46.03652 123.39542,-77.90996 35.68281,-25.17951 40.81717,-27.05224 67.25871,-53.17605 l -10.25497,20.41228 c 23.34146,-9.59735 83.45276,-0.4298 96.3865,29.81644 -49.47095,-39.5668 -107.68013,-22.09561 -134.77209,0.13525 -27.09195,22.23087 -82.28874,86.74483 -90.29997,133.06457 -1.65969,19.99479 4.47156,27.56815 19.91898,39.48587 -37.77337,-18.06193 -69.93379,-13.26101 -106.07237,-16.26067 -13.90201,-1.15395 -24.10997,-13.32338 -46.83551,-21.28503 -10.84213,-3.79842 -13.38006,-9.7653 -24.52618,-10.59643 -32.72358,-2.4401 -84.95728,8.91522 -84.42976,52.3639 z"
       id="path4796"
       inkscape:connector-curvature="0"
       sodipodi:nodetypes="csscccczccsssc" />
    <path
       style="fill:none;stroke:#000000;stroke-width:1.72304261px;stroke-linecap:butt;stroke-linejoin:miter;stroke-opacity:1"
       d="m 207.53708,733.03668 c 72.8948,-25.17 154.86662,115.93017 224.88745,71.96379 -9.32445,46.89928 70.49992,37.10978 114.48981,37.9467 -92.33676,22.38637 -87.9021,-5.91563 -149.67748,-13.25254 -9.55152,-1.13442 -58.87149,-22.00793 -68.25052,-22.78645 -3.95209,22.1507 9.16774,26.48027 23.3933,40.87883 -35.89592,6.44901 -39.62215,-85.31285 -125.66604,-109.56862 9.33684,4.29652 19.35515,17.01206 22.86218,23.98964 -13.22186,-8.70987 -19.33968,-16.47989 -42.0387,-29.17135 z"
       id="path4798"
       inkscape:connector-curvature="0"
       sodipodi:nodetypes="cccsccccc" />
    <path
       style="fill:none;stroke:#000000;stroke-width:1.72304261px;stroke-linecap:butt;stroke-linejoin:miter;stroke-opacity:1"
       d="m 370.97685,477.35755 c -12.78647,-1.48426 -3.67483,16.2595 -27.22551,51.86538 -43.81126,70.09971 -63.94488,71.62035 -74.50553,69.20437 12.80141,16.62559 12.40913,33.47694 17.47986,58.89002 -0.76959,-12.94108 6.7021,-30.83943 10.49891,-43.31243 4.03745,-13.26345 87.52147,-128.87417 73.75227,-136.64734 z"
       id="path4800"
       inkscape:connector-curvature="0"
       sodipodi:nodetypes="ccccsc" />
    <path
       style="fill:none;stroke:#000000;stroke-width:1.72304261px;stroke-linecap:butt;stroke-linejoin:miter;stroke-opacity:1"
       d="m 335.74567,579.09375 c 27.62429,-22.28917 133.25071,-61.16645 210.76278,-70.5971 25.54446,0.22133 66.51053,-19.49443 98.67931,-17.76708 13.43516,1.11521 28.25132,8.2831 41.59964,14.49899 -16.11069,-2.69175 -32.06824,-9.65499 -47.56181,-5.88095 -30.50955,7.43176 -124.10516,34.18999 -136.94298,71.20162 -55.70271,-4.41756 -88.16938,-22.71592 -163.92446,30.30104 -21.63722,15.14274 -38.17091,44.00139 -46.45352,63.93873 3.98437,-23.71598 20.99005,-67.2575 43.84104,-85.69525 z"
       id="path4837"
       inkscape:connector-curvature="0"
       sodipodi:nodetypes="scccscscs" />
    <path
       style="fill:none;stroke:#000000;stroke-width:1.72304261px;stroke-linecap:butt;stroke-linejoin:miter;stroke-opacity:1"
       d="m 648.14172,508.37217 c 30.14063,4.619 82.47972,56.53618 107.34063,50.8846 -62.091,58.16689 -44.94253,117.94583 -6.61833,169.55864 -61.56794,-38.68416 -38.49134,-121.41372 -51.85975,-150.38768 -6.97398,-15.11499 -16.65646,-43.52154 -48.86255,-70.05556 z"
       id="path4859"
       inkscape:connector-curvature="0"
       sodipodi:nodetypes="cccsc" />
    <path
       transform="matrix(1.4721118,0.89541192,-0.89541192,1.4721118,487.41124,-1066.3806)"
       sodipodi:type="arc"
       style="fill:#803300"
       id="path4861"
       sodipodi:cx="665.89288"
       sodipodi:cy="826.64789"
       sodipodi:rx="5.1785712"
       sodipodi:ry="6.0714288"
       d="m 671.07145,826.64789 a 5.1785712,6.0714288 0 1 1 -10.35714,0 5.1785712,6.0714288 0 1 1 10.35714,0 z" />
    <path
       style="fill:none;stroke:#000000;stroke-width:1.72304261px;stroke-linecap:butt;stroke-linejoin:miter;stroke-opacity:1"
       d="m 762.70968,786.57527 c -0.0606,-17.37906 0.70618,-34.79199 1.09765,-33.18487 -2.94263,4.68938 -6.21248,6.68904 -7.91883,0.58536 -1.39177,-5.71366 -15.44166,-15.05946 -20.62094,-19.38521 34.20701,48.95861 13.1859,99.85727 24.28343,107.50472 0.59952,-15.90679 3.22053,-37.79955 3.15869,-55.52 z"
       id="path4863"
       inkscape:connector-curvature="0"
       sodipodi:nodetypes="sccccs" />
    <path
       style="fill:none;stroke:#000000;stroke-width:1.72304261px;stroke-linecap:butt;stroke-linejoin:miter;stroke-opacity:1"
       d="m 725.2647,722.02389 c -10.25132,13.61587 -13.45004,28.96251 -14.27135,38.85706 -4.51964,54.44982 -7.11398,111.58263 22.2088,158.28206 -16.02585,-16.46349 -28.66981,-44.28966 -37.90302,-67.35091 11.28027,-5.34657 5.81538,-23.92948 4.66954,-47.93852 -0.73848,-15.47399 0.38915,-25.06198 -3.39563,-40.59966 -1.47632,-6.06071 -8.06076,-11.90453 -14.59102,-13.01654 14.36476,-23.91892 21.38309,-37.28357 20.55603,-57.18256 -0.27915,-6.71615 -2.00833,-14.06407 -0.72086,-20.42585 3.58446,18.7886 9.63171,36.10807 23.44751,49.37492 z"
       id="path4865"
       inkscape:connector-curvature="0"
       sodipodi:nodetypes="csccsscscc" />
    <path
       style="fill:none;stroke:#000000;stroke-width:1.72304261px;stroke-linecap:butt;stroke-linejoin:miter;stroke-opacity:1"
       d="m 659.1718,481.94894 c 12.13734,0.31917 38.92079,1.80749 55.58364,5.71838 23.66449,5.55422 32.33094,29.19236 61.91439,5.96769 -16.89649,27.83434 13.32074,71.08777 52.0983,110.91809 -33.81789,-7.52055 -42.50573,-56.65542 -69.25433,-70.37937 -41.34828,-21.21462 -53.78819,-47.99004 -100.342,-52.22479 z"
       id="path4915"
       inkscape:connector-curvature="0"
       sodipodi:nodetypes="csccsc" />
    <path
       style="fill:none;stroke:#000000;stroke-width:1.72304261px;stroke-linecap:butt;stroke-linejoin:miter;stroke-opacity:1"
       d="m 758.79405,552.62792 c 7.9382,13.9806 27.46715,31.02601 34.75393,47.06869 9.65808,21.26331 15.49377,47.90169 23.1284,71.88845 5.93202,18.63741 10.43102,68.5329 11.62803,90.25357 2.75812,50.04863 8.90968,80.32313 23.12493,92.02529 -20.09647,-100.22549 -24.19787,-165.2799 -17.523,-191.44524 1.27505,-4.9982 5.58658,-10.58226 10.50969,-10.17362 -1.99571,-5.39453 -7.71723,-5.56258 -10.4934,-9.98394 -3.94432,-6.28172 -39.27775,-54.60877 -39.76213,-56.59728 -2.05114,-8.42053 -29.04176,-26.63432 -35.36645,-33.03592 z"
       id="path4917"
       inkscape:connector-curvature="0"
       sodipodi:nodetypes="cssscscssc" />
    <path
       style="fill:none;stroke:#000000;stroke-width:1.72304261px;stroke-linecap:butt;stroke-linejoin:miter;stroke-opacity:1"
       d="m 794.46373,745.02715 c 17.69314,24.04426 36.00215,65.29968 33.3988,96.66306 -1.60585,19.34637 34.47185,38.62809 28.1468,40.16882 -5.55225,1.35243 -23.69325,-14.83006 -32.64015,-12.65069 -9.31895,2.26997 -5.54662,10.75608 -9.25222,11.65872 -11.91787,2.90304 -2.81053,-72.11657 -4.9647,-86.57069 -2.35684,-15.81404 -6.52947,-25.98082 -14.68853,-49.26922 z"
       id="path4919"
       inkscape:connector-curvature="0"
       sodipodi:nodetypes="csssssc" />
    <path
       style="fill:none;stroke:#000000;stroke-width:1.72304261px;stroke-linecap:butt;stroke-linejoin:miter;stroke-opacity:1"
       d="m 844.73555,791.45088 c 35.23279,-12.9081 28.38165,64.03777 58.93865,61.77901 -26.19215,39.03217 -47.43475,87.70189 -60.84147,130.81525 -12.21846,-52.61578 62.23172,-146.05056 1.90282,-192.59426 z"
       id="path4927"
       inkscape:connector-curvature="0" />
  </g>
</svg>
