<?xml version="1.0" encoding="UTF-8" standalone="no"?>
<!-- Created with Inkscape (http://www.inkscape.org/) -->

<svg
   xmlns:dc="http://purl.org/dc/elements/1.1/"
   xmlns:cc="http://creativecommons.org/ns#"
   xmlns:rdf="http://www.w3.org/1999/02/22-rdf-syntax-ns#"
   xmlns:svg="http://www.w3.org/2000/svg"
   xmlns="http://www.w3.org/2000/svg"
   xmlns:sodipodi="http://sodipodi.sourceforge.net/DTD/sodipodi-0.dtd"
   xmlns:inkscape="http://www.inkscape.org/namespaces/inkscape"
   width="744.09448819"
   height="1052.3622047"
   id="svg3732"
   version="1.1"
   inkscape:version="0.48.4 r9939"
   sodipodi:docname="New document 24">
  <defs
     id="defs3734" />
  <sodipodi:namedview
     id="base"
     pagecolor="#ffffff"
     bordercolor="#666666"
     borderopacity="1.0"
     inkscape:pageopacity="0.0"
     inkscape:pageshadow="2"
     inkscape:zoom="0.7"
     inkscape:cx="535.7875"
     inkscape:cy="575.61052"
     inkscape:document-units="px"
     inkscape:current-layer="layer1"
     showgrid="false"
     inkscape:window-width="927"
     inkscape:window-height="1028"
     inkscape:window-x="992"
     inkscape:window-y="24"
     inkscape:window-maximized="0" />
  <metadata
     id="metadata3737">
    <rdf:RDF>
      <cc:Work
         rdf:about="">
        <dc:format>image/svg+xml</dc:format>
        <dc:type
           rdf:resource="http://purl.org/dc/dcmitype/StillImage" />
        <dc:title></dc:title>
      </cc:Work>
    </rdf:RDF>
  </metadata>
  <g
     inkscape:label="Layer 1"
     inkscape:groupmode="layer"
     id="layer1">
    <path
       style="fill:#000000;stroke:#000000;stroke-width:1.40007472px;stroke-linecap:butt;stroke-linejoin:miter;stroke-opacity:1"
       d="m 208.92707,138.03922 c 14.41183,34.09519 124.29649,62.75164 185.81757,66.21928 6.67606,3.07516 16.70467,9.23774 20.19051,12.59358 -3.91151,-4.87523 4.72873,-11.5215 11.41704,-14.6735 79.31879,-25.14945 63.55884,-71.36725 51.10579,-83.48688 -6.91547,10.00101 -0.0437,26.98137 -9.55126,36.14597 -24.6179,23.73006 -148.16334,20.48414 -208.372,9.76454 -24.13507,-4.29704 -38.48948,-14.54027 -50.60765,-26.56299 z"
       id="path3389"
       inkscape:connector-curvature="0"
       sodipodi:nodetypes="cccccssc" />
    <path
       style="fill:#000000;stroke:#000000;stroke-width:1.81042874px;stroke-linecap:butt;stroke-linejoin:miter;stroke-opacity:1"
       d="m 237.43891,311.5161 c 6.40814,-8.12168 13.8124,-4.57868 25.56589,-9.24415 -52.54311,46.7172 221.97153,64.07272 237.0461,-5.09317 20.00886,65.40041 -94.13089,59.16402 -108.64072,87.39991 -5.03095,-2.83583 -4.1889,-9.69945 5.32062,-18.29464 -49.45931,17.10714 -173.42285,-26.55698 -177.87896,-70.45345 7.39811,8.18695 10.53856,8.42936 18.58707,15.6855 z"
       id="path3407"
       inkscape:connector-curvature="0"
       sodipodi:nodetypes="ccccccc" />
    <path
       style="fill:#000000;stroke:#000000;stroke-width:1.35015047px;stroke-linecap:butt;stroke-linejoin:miter;stroke-opacity:1"
       d="m 241.44167,421.4225 c -48.13359,47.99198 -17.70912,95.80997 11.69544,112.50887 35.85631,20.36287 132.17035,20.84999 197.07119,-19.91112 29.19412,-18.33542 65.81415,-52.12144 65.69816,-87.23307 1.70164,84.46924 -65.92786,89.13266 -93.52452,124.52711 -6.95049,8.91448 9.28331,8.49851 32.03603,2.58356 -25.02504,20.79611 -66.1318,-3.43174 -110.57594,34.61956 -71.94842,-10.39316 -177.96168,-67.07717 -133.91966,-135.57559 9.60803,-13.74318 19.13379,-19.13379 31.5193,-31.51932 z"
       id="path5340"
       inkscape:connector-curvature="0"
       sodipodi:nodetypes="csscscccc" />
    <path
       style="fill:#000000;stroke:#000000;stroke-width:2.40117216px;stroke-linecap:butt;stroke-linejoin:miter;stroke-opacity:1"
       d="m 471.20615,706.50677 c 30.90347,-37.63631 49.24942,-54.12803 78.06963,-65.40821 -50.09992,15.29368 -100.61852,51.89759 -135.13056,21.94038 -12.22535,23.81962 -51.87182,33.50173 -83.70978,39.38222 -60.27642,10.26378 -108.48981,-9.9816 -132.58027,-48.63222 5.1234,60.77053 116.79587,71.56113 140.55585,72.46132 39.38506,1.49215 94.98647,-9.61281 132.79513,-19.74349 z"
       id="path3654"
       inkscape:connector-curvature="0"
       sodipodi:nodetypes="cccccsc" />
    <path
       style="fill:#000000;stroke:#000000;stroke-width:2.25410557px;stroke-linecap:butt;stroke-linejoin:miter;stroke-opacity:1"
       d="m 492.4731,863.3798 c -5.49813,5.75598 -22.49821,6.42196 -33.83056,9.22359 -27.84988,18.85963 -81.89178,32.36804 -107.01316,37.55012 -96.30145,-21.883 -132.81604,-52.76882 -128.17277,-73.36859 -13.91999,9.08617 -21.97825,19.82362 -40.36499,37.5872 10.51845,-29.74587 36.46036,-30.75659 63.97846,-86.30855 -2.01781,28.70193 -5.49416,34.56684 -1.9331,51.28404 13.4569,63.17327 170.64257,52.38122 204.36233,29.1644 50.09067,-34.41906 58.32182,-49.7588 81.51283,-63.05501 -29.30955,35.30163 -56.57973,45.87395 -65.24682,59.62316 4.48035,-1.24195 15.92475,0.13761 26.70778,-1.70036 z"
       id="path3824"
       inkscape:connector-curvature="0"
       sodipodi:nodetypes="ccccccscccc" />
  </g>
</svg>
