<?xml version="1.0" encoding="UTF-8" standalone="no"?>
<!-- Created with Inkscape (http://www.inkscape.org/) -->

<svg
   xmlns:dc="http://purl.org/dc/elements/1.1/"
   xmlns:cc="http://creativecommons.org/ns#"
   xmlns:rdf="http://www.w3.org/1999/02/22-rdf-syntax-ns#"
   xmlns:svg="http://www.w3.org/2000/svg"
   xmlns="http://www.w3.org/2000/svg"
   xmlns:sodipodi="http://sodipodi.sourceforge.net/DTD/sodipodi-0.dtd"
   xmlns:inkscape="http://www.inkscape.org/namespaces/inkscape"
   width="744.09448819"
   height="1052.3622047"
   id="svg3231"
   version="1.1"
   inkscape:version="0.48.4 r9939"
   sodipodi:docname="Spacers.svg">
  <defs
     id="defs3233" />
  <sodipodi:namedview
     id="base"
     pagecolor="#ffffff"
     bordercolor="#666666"
     borderopacity="1.0"
     inkscape:pageopacity="0.0"
     inkscape:pageshadow="2"
     inkscape:zoom="0.7"
     inkscape:cx="299.33766"
     inkscape:cy="574.80231"
     inkscape:document-units="px"
     inkscape:current-layer="layer1"
     showgrid="false"
     inkscape:window-width="927"
     inkscape:window-height="1028"
     inkscape:window-x="992"
     inkscape:window-y="24"
     inkscape:window-maximized="0" />
  <metadata
     id="metadata3236">
    <rdf:RDF>
      <cc:Work
         rdf:about="">
        <dc:format>image/svg+xml</dc:format>
        <dc:type
           rdf:resource="http://purl.org/dc/dcmitype/StillImage" />
        <dc:title></dc:title>
      </cc:Work>
    </rdf:RDF>
  </metadata>
  <g
     inkscape:label="Layer 1"
     inkscape:groupmode="layer"
     id="layer1">
    <path
       style="fill:#000000;stroke:#000000;stroke-width:3.21976852px;stroke-linecap:butt;stroke-linejoin:miter;stroke-opacity:1"
       d="m 106.81144,396.21897 c 94.55581,-51.85142 23.79174,-191.16669 8.52393,-295.5557 30.73151,68.30467 50.26109,188.96337 73.28949,227.2219 16.25653,1.07219 30.17764,-13.15449 36.45949,-24.47032 -0.64849,35.19469 -93.98155,108.6131 -118.27291,92.80412 z"
       id="path3724"
       inkscape:connector-curvature="0"
       sodipodi:nodetypes="ccccc" />
    <path
       style="fill:#000000;stroke:#000000;stroke-width:3.01344466px;stroke-linecap:butt;stroke-linejoin:miter;stroke-opacity:1"
       d="m 367.95907,636.49891 c -0.22769,28.28771 -10.15445,74.68047 -5.09382,113.61315 7.67173,59.02008 38.93457,101.12253 47.85607,153.58451 -11.10112,-20.10912 -26.82373,-56.37017 -52.1864,-63.30974 -10.3103,-2.82106 -22.67665,5.68927 -36.78091,3.95855 -0.66844,-0.0824 -2.61435,-12.23131 -1.75557,-11.94698 5.04494,1.67058 20.35096,-22.05692 23.23838,-48.52924 1.42168,-13.03404 -1.01909,-31.907 0.96429,-38.95987 11.49299,-40.86936 17.6309,-136.84872 11.22853,-181.67237 6.378,16.75139 12.71516,50.19207 12.52949,73.26195 z"
       id="path3660"
       inkscape:connector-curvature="0"
       sodipodi:nodetypes="sscssssscs" />
    <path
       style="fill:#000000;stroke:#000000;stroke-width:3.25617933px;stroke-linecap:butt;stroke-linejoin:miter;stroke-opacity:1"
       d="m 214.25578,735.12749 c 5.09692,-1.44657 9.8057,0.66182 13.7146,-2.87288 -39.98681,49.74913 -68.69121,106.14766 -46.89307,135.37716 10.07415,2.3159 12.22374,2.808 19.39278,-2.04082 -17.40131,23.25808 -32.95311,30.1613 -59.09547,20.93336 -4.03721,-16.068 -15.40322,-20.64724 -6.09976,-52.6368 7.92522,-27.25049 30.74727,-45.46618 43.63188,-70.17894 39.13775,-75.06533 29.61278,-140.57455 -40.21285,-199.76516 63.46283,23.26032 89.27988,109.26448 75.56189,171.18408 z"
       id="path3685"
       inkscape:connector-curvature="0"
       sodipodi:nodetypes="cccccsscc" />
    <path
       style="fill:#000000;stroke:#000000;stroke-width:2.45681787px;stroke-linecap:butt;stroke-linejoin:miter;stroke-opacity:1"
       d="m 385.0433,157.01664 c -14.61695,19.41433 -19.17788,41.29649 -20.34895,55.40473 -6.44438,77.63782 -10.14354,159.10122 31.66664,225.68808 -22.85062,-23.47464 -40.87914,-63.15086 -54.04441,-96.03298 16.08409,-7.62346 8.29192,-34.1201 6.65812,-68.35363 -1.05297,-22.06375 0.55487,-35.73488 -4.8417,-57.88942 -2.10502,-8.64173 -11.49351,-16.9742 -20.80475,-18.55977 20.48214,-34.10504 30.48929,-53.16116 29.31002,-81.53434 -0.39803,-9.57629 -2.8636,-20.053386 -1.02784,-29.124398 5.11094,26.789908 13.73347,51.485058 33.43287,70.401728 z"
       id="path4865"
       inkscape:connector-curvature="0"
       sodipodi:nodetypes="csccsscscc" />
    <path
       style="fill:#000000;stroke:#000000;stroke-width:1.72304261px;stroke-linecap:butt;stroke-linejoin:miter;stroke-opacity:1"
       d="m 591.49649,909.02687 c 40.1685,-65.83064 -80.1509,-176.06621 -22.23463,-235.07185 -47.80849,-0.91502 -21.18398,-76.80244 -12.5994,-119.95468 -41.60462,85.41828 -13.00879,87.13522 -19.04495,149.05123 -0.93327,9.57327 8.91651,62.21493 7.67241,71.54362 -22.48353,-0.8736 -23.9089,-14.61564 -34.93424,-31.58994 -13.97219,33.68805 74.87281,56.94086 80.17752,146.18072 -2.20163,-10.0394 -12.48208,-22.54395 -18.54884,-27.46129 5.68263,14.77793 11.96551,22.4151 19.51213,47.30219 z"
       id="path4798"
       inkscape:connector-curvature="0"
       sodipodi:nodetypes="cccsccccc" />
    <path
       style="fill:#000000;stroke:#000000;stroke-width:4.24827862px;stroke-linecap:butt;stroke-linejoin:miter;stroke-opacity:1"
       d="m 505.44465,180.59812 c 46.35046,-3.91866 56.19262,-60.4647 62.22546,-93.606402 0.76091,12.269317 -13.61102,72.149362 5.63246,72.417552 -15.64178,16.98704 -20.25954,45.35675 -24.40738,61.95724 -11.35314,45.43751 -6.23754,74.3131 -6.97355,109.43094 -0.84082,40.11922 19.08182,104.85436 51.49691,112.64948 -61.03294,-2.17049 -71.07897,-135.728 -68.12612,-187.74911 0.73503,-12.94917 3.03379,-37.23591 6.97355,-49.61947 -9.40922,-6.31319 -13.47073,-17.13611 -26.82133,-25.48023 z"
       id="path4714"
       inkscape:connector-curvature="0"
       sodipodi:nodetypes="cccsscscc" />
  </g>
</svg>
