<?xml version="1.0" encoding="UTF-8" standalone="no"?>
<!-- Created with Inkscape (http://www.inkscape.org/) -->

<svg
   xmlns:dc="http://purl.org/dc/elements/1.1/"
   xmlns:cc="http://creativecommons.org/ns#"
   xmlns:rdf="http://www.w3.org/1999/02/22-rdf-syntax-ns#"
   xmlns:svg="http://www.w3.org/2000/svg"
   xmlns="http://www.w3.org/2000/svg"
   xmlns:sodipodi="http://sodipodi.sourceforge.net/DTD/sodipodi-0.dtd"
   xmlns:inkscape="http://www.inkscape.org/namespaces/inkscape"
   width="744.09448819"
   height="1052.3622047"
   id="svg3185"
   version="1.1"
   inkscape:version="0.48.4 r9939"
   sodipodi:docname="Tessera and the Forest - Composite.svg">
  <defs
     id="defs3187">
    <inkscape:path-effect
       effect="spiro"
       id="path-effect3395"
       is_visible="true" />
    <inkscape:path-effect
       effect="spiro"
       id="path-effect4060"
       is_visible="true" />
  </defs>
  <sodipodi:namedview
     id="base"
     pagecolor="#ffffff"
     bordercolor="#666666"
     borderopacity="1.0"
     inkscape:pageopacity="0.0"
     inkscape:pageshadow="2"
     inkscape:zoom="0.7"
     inkscape:cx="700.08331"
     inkscape:cy="504.67542"
     inkscape:document-units="px"
     inkscape:current-layer="layer1"
     showgrid="false"
     inkscape:window-width="1855"
     inkscape:window-height="1056"
     inkscape:window-x="65"
     inkscape:window-y="24"
     inkscape:window-maximized="1" />
  <metadata
     id="metadata3190">
    <rdf:RDF>
      <cc:Work
         rdf:about="">
        <dc:format>image/svg+xml</dc:format>
        <dc:type
           rdf:resource="http://purl.org/dc/dcmitype/StillImage" />
        <dc:title></dc:title>
      </cc:Work>
    </rdf:RDF>
  </metadata>
  <g
     inkscape:label="Layer 1"
     inkscape:groupmode="layer"
     id="layer1">
    <path
       style="fill:#000000;stroke:#000000;stroke-width:0.8590551px;stroke-linecap:butt;stroke-linejoin:miter;stroke-opacity:1"
       d="m 213.16892,430.92014 c -3.6053,33.51328 48.10528,76.61678 55.50389,40.34533 -2.38537,29.09157 31.15226,-2.12674 35.96254,-19.28404 -12.03333,43.36865 -46.26675,49.7662 -71.93939,29.30481 -3.47886,3.3429 0.39809,0.28492 -3.62199,10.25779 -8.27386,-38.20125 -61.75077,-35.2173 -98.69577,-23.93771 9.5375,-6.20516 36.01478,-19.68246 47.40254,-25.46668 16.01399,-8.13405 17.35079,2.15349 35.38818,-11.2195 z"
       id="path3387"
       inkscape:connector-curvature="0"
       sodipodi:nodetypes="ccccccsc" />
    <path
       style="fill:#000000;stroke:#000000;stroke-width:0.8590551px;stroke-linecap:butt;stroke-linejoin:miter;stroke-opacity:1"
       d="m 274.22308,472.59495 c 29.19226,-9.13531 49.54515,-58.49556 49.94494,-85.02753 2.40296,-3.11594 7.36176,-7.932 10.14658,-9.7125 -4.09499,2.09527 -10.27533,-1.00515 -13.3172,-3.57999 -25.38099,-31.60886 -65.11415,-20.83526 -75.17738,-14.46298 9.03955,2.0708 23.5912,-2.3485 32.01038,0.90074 21.79992,8.41323 24.24739,61.36803 17.45119,87.97671 -2.72431,10.66629 -11.06569,17.68454 -21.05851,23.90555 z"
       id="path3389"
       inkscape:connector-curvature="0"
       sodipodi:nodetypes="cccccssc" />
    <path
       style="fill:#000000;stroke:#000000;stroke-width:0.8590551px;stroke-linecap:butt;stroke-linejoin:miter;stroke-opacity:1"
       d="m 310.34382,452.72872 c 15.60338,-50.26559 15.52993,-46.7843 25.40539,-57.06513 15.55288,-16.19128 56.87909,-34.65459 61.83108,-68.89448 -3.65838,16.64819 -6.34316,28.16474 -9.7228,31.8726 11.73379,-1.47165 18.72908,3.21907 19.30614,13.42671 -5.46975,-8.01954 -11.71165,-11.94094 -18.11997,-8.36966 -4.34929,2.4238 -8.70062,13.6875 -12.39071,16.53119 -13.69292,10.55224 -32.32783,23.0232 -43.89001,35.87246 -16.80852,18.67962 -15.44859,45.47364 -33.60126,63.3885 9.08733,-15.95803 9.52795,-21.43327 11.18214,-26.76219 z"
       id="path3391"
       inkscape:connector-curvature="0"
       sodipodi:nodetypes="sscccssscs" />
    <path
       style="fill:#000000;stroke:#000000;stroke-width:0.8590551px;stroke-linecap:butt;stroke-linejoin:miter;stroke-opacity:1"
       d="m 201.92608,560.75914 c 9.48882,-15.9243 23.5844,-29.06723 40.1327,-37.42034 16.54831,-8.35311 35.49361,-11.88828 53.94077,-10.06526 16.38485,1.61921 32.05923,7.3108 48.15087,10.79569 8.04581,1.74245 16.25338,2.93737 24.48402,2.77038 8.23063,-0.16699 16.50889,-1.73216 23.92952,-5.29665 9.28759,-4.46128 17.03235,-12.06231 21.66681,-21.26471 -9.12774,11.877 -23.90682,19.20261 -38.88592,19.27476 -12.94105,0.0623 -25.32842,-4.92794 -37.12292,-10.25378 -11.7945,-5.32583 -23.63728,-11.14389 -36.45653,-12.91634 -12.81496,-1.77186 -26.01033,0.66524 -37.89835,5.76794 -11.88803,5.10271 -22.53644,12.78881 -32.04448,21.5615 -11.70449,10.79927 -21.813,23.32542 -29.89649,37.04681"
       id="path3393"
       inkscape:path-effect="#path-effect3395"
       inkscape:original-d="m 201.92608,560.75914 c 0,0 60.23824,-46.2837 94.07347,-47.4856 29.61436,-1.05196 70.26225,9.76453 96.56441,8.26942 25.68259,-1.45989 21.66681,-21.26471 21.66681,-21.26471 0,0 -0.43656,33.68926 -38.88592,19.27476 -38.44937,-14.41448 -40.01759,-28.32227 -73.57945,-23.17012 -33.56188,5.15216 -41.24397,-0.14169 -69.94283,27.32944 -28.69886,27.47113 -29.89649,37.04681 -29.89649,37.04681 z"
       inkscape:connector-curvature="0"
       sodipodi:nodetypes="csscsssc" />
    <path
       style="fill:#000000;stroke:#000000;stroke-width:0.8590551px;stroke-linecap:butt;stroke-linejoin:miter;stroke-opacity:1"
       d="m 205.3042,496.28314 c 2.61798,8.37213 10.89451,15.47252 -5.34271,39.27765 -8.58555,12.58713 -37.00202,40.67337 -52.23071,50.78347 -5.52914,3.67072 -25.98939,10.22443 -33.55681,8.42723 12.45018,22.21982 51.82525,-21.23345 65.24941,4.32081 11.8191,-38.48416 35.83515,-91.53552 80.16223,-101.68698 -4.3103,-1.242 -15.09729,4.18126 -19.999,4.22704 -13.03392,0.12171 -21.97075,5.07217 -34.28241,-5.34922 z"
       id="path3399"
       inkscape:connector-curvature="0"
       sodipodi:nodetypes="csscccsc" />
    <path
       style="fill:#000000;stroke:#000000;stroke-width:0.8590551px;stroke-linecap:butt;stroke-linejoin:miter;stroke-opacity:1"
       d="m 398.13879,502.29982 c -4.74106,-2.13914 -3.08632,-5.32657 -6.13706,-9.81654 27.90716,18.64023 26.35467,-93.22197 -12.42001,-95.48231 35.27474,-11.70453 36.46088,34.75212 52.62878,39.05056 -1.36077,2.18947 -5.18204,2.22932 -10.3101,-1.13653 11.44424,19.03388 -7.62282,71.53158 -31.66286,75.7623 4.21738,-3.44207 4.22382,-4.72421 7.90125,-8.37748 z"
       id="path3407"
       inkscape:connector-curvature="0"
       sodipodi:nodetypes="ccccccc" />
    <path
       style="fill:#000000;stroke:#000000;stroke-width:0.8590551px;stroke-linecap:butt;stroke-linejoin:miter;stroke-opacity:1"
       d="m 384.54325,538.92907 c 20.2319,13.25605 39.15513,-19.41603 52.27704,-2.18025 -2.3514,-4.65053 -2.13937,-12.36217 3.61311,-16.30595 45.99876,-44.21232 32.78111,-70.97169 52.40512,-85.27238 -6.2707,-10.34924 4.86858,-20.17223 1.31848,-36.01588 -9.26275,28.78662 -2.40931,29.88235 -12.52755,36.66376 2.03187,16.42205 -32.03086,62.43552 -22.7015,30.41657 -8.74045,28.32403 -42.24868,58.08863 -44.38438,42.28207 -5.83582,15.92631 -15.81092,25.91311 -30.00032,30.41206 z"
       id="path3411"
       inkscape:connector-curvature="0"
       sodipodi:nodetypes="ccccccccc" />
    <path
       style="fill:#000000;stroke:#000000;stroke-width:0.8590551px;stroke-linecap:butt;stroke-linejoin:miter;stroke-opacity:1"
       d="m 486.21831,531.42056 c -8.54086,-7.77141 -5.08677,-15.72097 -15.47522,-17.32988 8.35917,-11.62435 4.90524,-22.37232 8.14533,-39.07402 10.00848,-19.70005 24.74872,-27.42093 29.69017,-92.75869 7.42729,15.59789 -1.82221,62.96904 18.9835,65.0595 -22.18374,-8.67021 -47.88467,38.83803 -47.48877,59.81008 0.19527,10.3426 3.11936,13.96066 6.14499,24.29301 z"
       id="path3413"
       inkscape:connector-curvature="0"
       sodipodi:nodetypes="cccccsc" />
    <path
       style="fill:#000000;stroke:#000000;stroke-width:0.8590551px;stroke-linecap:butt;stroke-linejoin:miter;stroke-opacity:1"
       d="m 575.3289,325.52655 c -6.80179,-7.4373 -11.30389,-10.43243 -12.03562,-23.37746 4.15569,35.63793 -37.16694,23.11075 -54.49214,47.41168 -1.81542,-5.73344 -4.33643,-13.6025 -9.81092,-15.87719 7.00161,23.83999 -3.14643,16.29646 -28.47523,79.21079 -2.64285,13.96668 -16.09637,18.10266 -31.21718,29.90795 8.54672,2.16704 17.60262,-5.07925 28.04643,-7.95435 9.24201,-2.54424 2.18974,12.36817 -2.58059,13.28075 3.73123,-0.56258 10.21001,0.20766 10.22594,-3.85841 0.0465,-11.87666 3.70323,-29.15671 11.14463,-41.76137 12.7315,-21.56526 61.14074,-76.76442 81.56947,-73.30441 12.17065,2.0613 21.09482,34.5604 21.05206,45.90584 7.70442,-19.01657 -0.0106,-34.91394 -13.42685,-49.58382 z"
       id="path3417"
       inkscape:connector-curvature="0"
       sodipodi:nodetypes="scccccscssscs" />
    <path
       style="fill:#000000;stroke:#000000;stroke-width:2.26699495px;stroke-linecap:butt;stroke-linejoin:miter;stroke-opacity:1"
       d="m 155.68141,619.89746 c -7.43343,-3.46626 -29.59097,-10.09616 -30.44042,-11.22013 -2.61228,-3.45649 49.16475,5.59158 64.79181,14.1385 15.62705,8.54693 43.13256,16.5405 74.28209,-9.94888 4.79327,-4.07617 21.58768,-15.62865 60.71396,-11.4983 42.77964,4.51602 67.84168,57.92398 77.3304,85.73299 -13.86104,-37.50718 -45.1921,-81.46172 -97.76377,-74.01932 -2.9158,0.4127 -25.57706,5.54729 -31.60131,14.00146 -6.02425,8.45416 -45.33106,38.27592 -94.68325,4.98613 -7.0065,-4.72613 -15.19608,-8.70618 -22.62951,-12.17245 z"
       id="path4052"
       inkscape:connector-curvature="0"
       sodipodi:nodetypes="zszsscszsz" />
    <path
       style="fill:#000000;stroke:#000000;stroke-width:2.26699495px;stroke-linecap:butt;stroke-linejoin:miter;stroke-opacity:1"
       d="m 349.32025,591.72612 c 4.02927,8.78811 10.014,17.37221 17.70217,23.5208 31.74512,25.38803 35.57935,31.75537 45.96532,63.92517 6.02741,18.66946 -12.74455,44.92195 5.01205,60.92748 -5.22333,-19.41256 -3.5851,-33.53234 10.30762,-45.31218 7.39811,-6.27298 -2.54693,-26.5924 4.74611,-35.42712 2.73514,-3.31348 11.86093,2.25802 15.54452,0.95374 -6.73884,-0.0954 -6.30833,-5.94964 -12.13118,-7.78677 -5.65873,-1.78535 -10.66683,0.0713 -16.10164,-2.52716 -11.01216,-5.26518 -10.80162,-14.90773 -31.03912,-22.6523 -7.50971,-2.87384 -23.46276,-15.6559 -29.63755,-20.75298 -4.94156,-4.07908 -7.87487,-12.64883 -11.44398,-17.6125"
       id="path4054"
       inkscape:connector-curvature="0"
       sodipodi:nodetypes="csscsscssssc" />
    <path
       style="fill:#000000;stroke:#000000;stroke-width:2.26699495px;stroke-linecap:butt;stroke-linejoin:miter;stroke-opacity:1"
       d="m 187.48573,611.0627 c 2.47775,-8.82621 17.23394,-16.43896 24.62297,-21.06089 20.15816,-3.52885 10.79157,-25.02431 28.2107,-49.46397 7.26636,-9.70643 67.22531,-2.50126 76.32986,0.83533 7.47415,2.73907 24.93772,0.60813 25.0917,0.85427 3.17116,5.06967 -3.28798,6.0053 -4.91856,10.23026 4.99778,11.95554 -3.85938,20.41622 -4.68421,21.18787 -10.009,9.36367 -22.38103,10.77253 -27.63557,-4.06772 9.17124,3.87558 12.80827,8.16442 21.81003,0.55809 7.24683,-6.12346 -7.38121,-18.49978 -12.10782,-22.42902 -4.49947,-3.74044 -50.67176,-13.20241 -58.65641,-3.13511 -8.22533,6.77892 -21.68716,26.53665 -25.64341,38.03514 5.35005,15.10993 48.74335,0.8614 52.29872,-12.32035 3.95552,9.81998 -3.55064,13.03645 -9.42526,18.38783 -10.77854,9.81851 -27.00855,16.30746 -42.92334,14.67731 -3.28447,-0.33641 -5.24379,-3.32267 -7.879,-3.72003 -9.8523,-1.48557 -13.97852,0.25706 -22.8352,3.60664 -8.07486,3.05392 -12.08185,5.78246 -11.6552,7.82438 z"
       id="path4056"
       inkscape:connector-curvature="0"
       sodipodi:nodetypes="cccsccscsscccssssc" />
    <path
       style="fill:#000000;stroke:#000000;stroke-width:2.26699495px;stroke-linecap:butt;stroke-linejoin:miter;stroke-opacity:1"
       d="m 296.2434,653.32755 c 8.17524,-6.45862 18.35312,-10.34477 28.75249,-10.97838 10.39937,-0.63361 20.97376,1.98815 29.87264,7.40648 12.578,7.65846 21.38542,20.52426 26.38559,34.37548 5.00017,13.85122 6.49129,28.71935 6.96549,43.43781 0.60576,18.80185 -0.38163,37.62801 0.22412,56.42986 0.671,20.827 3.2954,41.65332 1.90375,62.44461 -1.35066,20.17885 -6.52161,40.09539 -15.15795,58.38265 l 10.49207,-13.60981 -15.18197,45.37154 c 13.69987,-31.88547 23.22916,-65.55999 28.26883,-99.89614 2.11486,-14.40889 3.44265,-28.93327 3.97547,-43.48679 l 9.84339,-3.38112 -15.5761,-86.35075 c -4.87857,-16.59803 -13.34769,-32.13083 -24.65715,-45.22248 -12.62471,-14.61416 -28.78286,-26.15426 -46.70242,-33.35472 l 10.17564,12.85375 c -6.61066,-0.88983 -13.42389,-0.2384 -19.74617,1.88797 -7.71529,2.59488 -14.67432,7.39732 -19.83772,13.69004"
       id="path4058"
       inkscape:path-effect="#path-effect4060"
       inkscape:original-d="m 296.2434,653.32755 c 0,0 47.29992,-11.43573 58.62513,-3.5719 9.84001,6.83256 31.02069,27.44428 33.35108,77.81329 1.11973,24.20207 1.10122,47.19977 0.22412,56.42986 -6.87792,72.37987 -13.59124,38.15456 1.90375,62.44461 17.03783,26.70872 -14.47245,58.09166 -15.15795,58.38265 l 10.49207,-13.60981 -15.18197,45.37154 c 0,0 22.01142,-52.64987 28.26883,-99.89614 5.69015,-42.96332 3.97547,-43.48679 3.97547,-43.48679 l 9.84339,-3.38112 c -6.82571,-28.83849 -61.35585,-59.27993 -15.5761,-86.35075 0,0 -3.65309,-63.16732 -24.65715,-45.22248 -38.79545,33.14495 -61.16136,4.10963 -46.70242,-33.35472 l 10.17564,12.85375 c 0,0 -6.06559,-3.8934 -19.74617,1.88797 -13.68057,5.78132 -19.83772,13.69004 -19.83772,13.69004 z"
       inkscape:connector-curvature="0"
       sodipodi:nodetypes="csssscccscccsccsc" />
    <path
       style="fill:#000000;stroke:#000000;stroke-width:2.26699495px;stroke-linecap:butt;stroke-linejoin:miter;stroke-opacity:1"
       d="m 448.60777,647.78155 c 35.32877,39.03286 35.29269,108.9107 -26.90425,121.62088 7.48858,3.42134 16.64369,1.22268 19.25524,-0.1157 -3.28063,6.06573 -8.03602,13.63215 -8.03669,27.22362 19.92414,-65.87213 55.63064,-22.95105 48.27652,-84.55655 -2.32961,-19.51497 -18.83409,-62.66803 -32.59082,-64.17225 z"
       id="path4708"
       inkscape:connector-curvature="0"
       sodipodi:nodetypes="ccccsc" />
    <path
       style="fill:#000000;stroke:#000000;stroke-width:2.26699495px;stroke-linecap:butt;stroke-linejoin:miter;stroke-opacity:1"
       d="m 459.51457,785.91622 c 24.42253,-4.43571 26.77881,-34.97307 28.30024,-52.8845 1.02734,6.47886 -3.56582,39.01733 6.67001,38.18244 -7.44622,9.81802 -8.45832,25.12267 -9.81853,34.15158 -3.72311,24.71323 0.46089,39.79222 1.85353,58.48435 1.59097,21.35418 15.46181,54.72988 33.07674,57.22442 -32.53119,1.94677 -44.65096,-68.48932 -45.72451,-96.27308 -0.26722,-6.91595 -0.27962,-19.93393 1.18425,-26.71224 -5.31886,-2.87571 -8.02605,-8.4186 -15.54173,-12.17297 z"
       id="path4714"
       inkscape:connector-curvature="0"
       sodipodi:nodetypes="cccsscscc" />
    <path
       style="fill:#000000;stroke:#000000;stroke-width:2.26699495px;stroke-linecap:butt;stroke-linejoin:miter;stroke-opacity:1"
       d="m 453.08215,784.8059 c 0.77157,13.28458 6.03156,24.05357 14.67997,30.22769 -21.12626,7.86867 -49.04018,15.87835 -59.46205,36.74129 6.91527,-30.41721 35.80035,-15.8829 44.78208,-66.96898 z"
       id="path4716"
       inkscape:connector-curvature="0"
       sodipodi:nodetypes="cccc" />
    <path
       style="fill:#000000;stroke:#000000;stroke-width:2.26699495px;stroke-linecap:butt;stroke-linejoin:miter;stroke-opacity:1"
       d="m 465.84828,868.70205 c 18.75206,15.09541 10.81343,42.62875 -8.42861,68.23797 19.41381,-48.37501 -38.56475,14.34221 -12.73506,36.73083 -3.05936,-0.79195 -14.83235,-7.85047 -10.28708,-21.87717 -4.66485,4.18827 -4.33965,10.85451 -3.77205,19.19563 -9.46174,-38.6235 45.0342,-51.1152 35.2228,-102.28726 z"
       id="path4722"
       inkscape:connector-curvature="0"
       sodipodi:nodetypes="cccccc" />
    <path
       style="fill:#000000;stroke:#000000;stroke-width:0.84028262px;stroke-linecap:butt;stroke-linejoin:miter;stroke-opacity:1"
       d="m 510.2363,223.54052 c 24.96192,-26.58617 8.36958,-57.15245 -11.29025,-70.03277 -23.45618,-15.36748 -78.81267,-2.34981 -110.30474,33.47333 -12.80219,14.56277 -25.50717,31.18943 -22.55023,52.84076 -7.9912,-51.97039 33.3471,-60.40488 47.46322,-84.50798 3.55531,-6.0706 -6.42536,-4.47997 -19.97574,1.03877 13.72931,-14.88587 41.07958,-3.31744 65.37082,-30.44401 8.80566,-9.8335 71.69005,20.34884 40.70034,-42.729968 7.0286,2.197018 19.32078,30.395608 22.49101,62.522598 4.87419,18.1052 12.48808,41.2438 4.95009,55.80446 -4.79795,9.26788 -10.23153,13.37622 -16.85452,22.03481 z"
       id="path5340"
       inkscape:connector-curvature="0"
       sodipodi:nodetypes="csscscsccsc" />
    <path
       style="fill:#000000;stroke:#000000;stroke-width:0.84028262px;stroke-linecap:butt;stroke-linejoin:miter;stroke-opacity:1"
       d="m 276.46286,241.74142 c -9.28263,7.8928 -28.35944,17.5412 -31.5811,21.07674 -3.51614,3.8905 8.18962,1.58773 19.37946,9.09765 -4.3986,5.28418 -12.14103,1.53194 -18.38192,0.82655 -4.27899,-0.48367 -23.70923,4.45804 -28.54054,7.37042 -11.03107,6.64956 -28.46041,19.6374 -30.17178,45.04128 -0.99075,14.70681 3.87826,39.77973 9.00371,52.979 9.48023,24.41387 20.53518,45.9594 48.55121,36.06506 8.22491,-2.90476 19.27996,-5.09929 24.60953,-10.09099 -3.93005,8.78427 -6.05242,9.26797 -14.56921,13.42603 -48.56814,23.71183 -59.1921,-34.64251 -65.73114,-44.28864 -9.80828,-14.46864 -13.80819,-3.62785 -14.23802,0.27448 -4.12733,-10.1417 0.37655,-13.92379 5.73963,-15.3635 -2.99818,-7.4493 -1.53948,-17.57048 -2.39819,-25.30983 -1.72757,-15.56998 12.54263,-41.53864 14.31904,-47.1471 3.36719,-10.63071 -48.8662,19.11907 -55.5561,55.41482 0.11673,-38.48556 57.72578,-73.56202 94.13035,-89.7511 22.9386,-10.20078 32.79635,-8.77045 50.62146,-19.39549 8.0879,-8.6929 39.85496,-34.65734 43.72951,-50.43303 -16.89061,34.19649 -22.64048,37.86632 -48.9159,60.20765 z"
       id="path5358"
       inkscape:connector-curvature="0"
       sodipodi:nodetypes="sccssssscssccsscsccs" />
    <path
       style="fill:#000000;stroke:#000000;stroke-width:0.79523504px;stroke-linecap:butt;stroke-linejoin:miter;stroke-opacity:1"
       d="m 237.11103,398.36938 c -40.50431,-16.34917 -48.59593,-79.01255 -26.18929,-100.74599 -6.64194,7.15573 -15.87819,47.04763 1.19015,45.12379 6.66485,-0.75122 4.04607,-6.79519 8.20766,-7.73724 4.60027,-1.04133 5.70403,8.33442 4.967,11.6583 -6.212,-2.76238 -1.88284,-20.29564 -9.71849,21.12346 1.61277,10.13448 6.64907,15.1132 21.54297,30.57768 z"
       id="path5360"
       inkscape:connector-curvature="0"
       sodipodi:nodetypes="ccssccc" />
    <path
       style="fill:#000000;stroke:#000000;stroke-width:0.84028262px;stroke-linecap:butt;stroke-linejoin:miter;stroke-opacity:1"
       d="m 367.09891,275.33914 c 4.97426,-22.63365 -19.28258,-22.77976 -25.00603,-36.6354 -6.08745,-9.37167 17.25684,-30.85229 10.87295,-40.91391 -3.35687,-5.29066 -13.62207,4.77517 -15.76943,8.84412 2.01456,-4.05609 5.95319,-2.89188 4.20344,6.22032 -4.89832,25.50876 -39.41581,42.6172 -23.98042,17.28556 -8.50044,-1.28272 -8.70342,8.00648 -18.5756,20.11709 11.60868,-0.32076 -14.16236,18.87419 -23.627,25.60357 -20.49135,14.77055 -16.03851,15.38374 -34.19735,29.49269 -12.50219,9.7139 -20.97015,29.13913 22.01697,24.81259 -44.38603,-10.24878 -7.44283,-28.54339 -2.15727,-32.19745 23.16278,-16.35648 9.36401,-8.48003 30.66203,-24.78802 11.63454,-8.90863 30.18118,-30.18342 48.11437,-23.4695 14.73548,5.51672 23.25132,12.4241 27.44334,25.62834 z"
       id="path5362"
       inkscape:connector-curvature="0"
       sodipodi:nodetypes="ccscscccsccssc" />
    <path
       style="fill:#000000;stroke:#000000;stroke-width:0.90660673px;stroke-linecap:butt;stroke-linejoin:miter;stroke-opacity:1"
       d="m 577.48847,603.21763 c -29.21726,0.10963 -52.81153,11.15715 -65.50127,20.36674 -36.35993,-38.46955 -128.03851,-75.71207 -165.0845,-71.70985 42.58178,-12.02163 77.59929,9.29832 89.73827,-5.26546 0.46695,15.43376 55.69957,46.68647 92.78672,55.51644 11.412,2.71706 40.01947,-6.82315 48.06078,1.09213 z"
       id="path3409-6"
       inkscape:connector-curvature="0"
       sodipodi:nodetypes="ccccsc" />
  </g>
</svg>
