<?xml version="1.0" encoding="UTF-8" standalone="no"?>
<!-- Created with Inkscape (http://www.inkscape.org/) -->

<svg
   xmlns:dc="http://purl.org/dc/elements/1.1/"
   xmlns:cc="http://creativecommons.org/ns#"
   xmlns:rdf="http://www.w3.org/1999/02/22-rdf-syntax-ns#"
   xmlns:svg="http://www.w3.org/2000/svg"
   xmlns="http://www.w3.org/2000/svg"
   xmlns:sodipodi="http://sodipodi.sourceforge.net/DTD/sodipodi-0.dtd"
   xmlns:inkscape="http://www.inkscape.org/namespaces/inkscape"
   width="990"
   height="765"
   id="svg4308"
   version="1.1"
   inkscape:version="0.48.4 r9939"
   sodipodi:docname="New document 38">
  <defs
     id="defs4310" />
  <sodipodi:namedview
     id="base"
     pagecolor="#ffffff"
     bordercolor="#666666"
     borderopacity="1.0"
     inkscape:pageopacity="0.0"
     inkscape:pageshadow="2"
     inkscape:zoom="0.7"
     inkscape:cx="814.38764"
     inkscape:cy="379.17956"
     inkscape:document-units="px"
     inkscape:current-layer="layer1"
     showgrid="false"
     inkscape:window-width="1855"
     inkscape:window-height="1056"
     inkscape:window-x="65"
     inkscape:window-y="24"
     inkscape:window-maximized="1" />
  <metadata
     id="metadata4313">
    <rdf:RDF>
      <cc:Work
         rdf:about="">
        <dc:format>image/svg+xml</dc:format>
        <dc:type
           rdf:resource="http://purl.org/dc/dcmitype/StillImage" />
        <dc:title></dc:title>
      </cc:Work>
    </rdf:RDF>
  </metadata>
  <g
     inkscape:label="Layer 1"
     inkscape:groupmode="layer"
     id="layer1"
     transform="translate(0,-287.36218)">
    <g
       transform="matrix(1.3501505,0,0,1.3501505,-173.71514,245.63157)"
       id="g5364"
       style="fill:#000000">
      <path
         sodipodi:nodetypes="csscscsccsc"
         inkscape:connector-curvature="0"
         id="path5340"
         d="m 250.28938,350.04452 c -33.62415,27.4401 -18.85402,66.10508 2.31382,84.38869 25.25539,21.81421 92.60259,15.1564 135.38156,-22.15391 17.39053,-15.16741 34.99071,-32.78472 34.9048,-58.79043 1.26033,62.56283 -48.83001,66.01683 -69.2697,92.23202 -5.14794,6.60258 6.87576,6.29449 23.72775,1.91353 -18.535,15.40281 -48.98106,-2.54174 -81.89898,25.64126 -11.93287,10.21644 -81.37202,-35.2699 -54.72688,44.01113 -7.9461,-3.69616 -18.01558,-38.89242 -16.70699,-77.28931 -2.90486,-22.12391 -8.25068,-50.61589 2.92959,-66.60794 7.11627,-10.179 14.1716,-14.1716 23.34503,-23.34504 z"
         style="fill:#000000;stroke:#000000;stroke-width:1px;stroke-linecap:butt;stroke-linejoin:miter;stroke-opacity:1" />
      <path
         sodipodi:nodetypes="sccssssscssccsscsccs"
         inkscape:connector-curvature="0"
         id="path5358"
         d="m 550.33048,330.52654 c 12.19054,-7.85213 36.21074,-16.23622 40.56678,-19.90068 4.75922,-4.03692 -9.41147,-3.15992 -21.43151,-13.7774 6.01917,-5.5423 14.56295,0.10071 21.81422,1.91352 4.97176,1.24294 28.66924,-1.53338 34.82619,-4.20976 14.05779,-6.1108 37.70219,-19.83869 38.27055,-50.13441 0.3174,-16.91885 1.0085,-47.3882 -2.29623,-63.91182 -5.43424,-27.17124 6.15052,-65.44263 -32.91267,-65.44263 -10.38078,0 -23.54502,2.9858 -30.61644,8.03681 6.01649,-9.74484 16.47179,-14.42039 27.17209,-17.98716 61.01973,-20.339907 37.81304,69.87502 44.01113,82.28168 9.29677,18.60926 15.71881,6.4494 16.83905,1.91353 3.27521,12.61227 -2.63211,16.36612 -9.18494,17.22174 2.3662,9.25873 -0.94496,20.96903 -1.14812,30.23374 -0.40872,18.63869 -16.9238,48.77269 -19.90068,55.10959 -5.64261,12.01146 60.64959,-14.87519 74.24486,-56.64042 -6.18523,45.38135 -79.65598,77.70692 -125.1447,91.08391 -28.66263,8.42889 -40.06658,5.1926 -62.76369,14.92551 -10.90694,8.98367 -52.46113,34.62096 -59.5107,52.62201 25.29868,-37.68595 32.65822,-41.11151 67.16481,-63.33776 z"
         style="fill:#000000;stroke:#000000;stroke-width:1px;stroke-linecap:butt;stroke-linejoin:miter;stroke-opacity:1" />
      <path
         sodipodi:nodetypes="ccssccc"
         inkscape:connector-curvature="0"
         id="path5360"
         d="m 650.98202,131.51969 c -4.52933,67.7708 -37.60008,139.27581 -74.62757,141.98373 11.51365,-1.52464 50.09073,-33.94547 32.91267,-46.69006 -6.70772,-4.97653 -8.84984,3.39414 -13.39469,0.7654 -5.02389,-2.90582 1.02547,-13.34423 4.20976,-16.07363 3.64222,8.14254 -13.56157,22.16002 24.87586,-13.01198 12.19523,-8.13015 21.82084,-38.8736 26.02397,-66.97346 z"
         style="fill:#000000;stroke:#000000;stroke-width:1px;stroke-linecap:butt;stroke-linejoin:miter;stroke-opacity:1" />
      <path
         sodipodi:nodetypes="ccscsccssscssssc"
         inkscape:connector-curvature="0"
         id="path5362"
         d="m 443.17294,291.10787 c -1.52979,27.53609 26.99297,23.08489 36.35703,38.27055 8.93708,9.8489 -14.392,39.53154 -4.97517,50.13442 4.95161,5.57526 15.09199,-8.2056 16.83903,-13.39469 -1.59351,5.14865 -6.44214,4.53172 -6.12328,-6.506 0.89262,-30.8991 38.18034,-57.57511 24.87585,-24.87585 10.23004,-0.11325 8.69815,-11.06409 17.98716,-27.17209 -19.11184,28.39835 -17.31449,5.86425 1.14812,-18.75257 9.88731,-13.18308 25.3474,-21.13764 36.73973,-32.52996 21.25647,-21.25647 16.07206,-37.60426 34.71462,-57.63903 12.83523,-13.79376 19.08059,-38.22673 -30.59249,-24.95173 24.13922,0.33486 39.40735,2.78892 25.66378,21.54177 -14.04027,19.1577 -6.33646,16.11581 -17.15663,32.34608 -18.71862,28.07792 -22.44917,32.52823 -46.30737,51.66524 -13.60342,10.91149 -29.70195,41.20892 -52.04794,36.73972 -18.36138,-3.67227 -29.68151,-10.16354 -37.12244,-24.87586 z"
         style="fill:#000000;stroke:#000000;stroke-width:1px;stroke-linecap:butt;stroke-linejoin:miter;stroke-opacity:1" />
    </g>
  </g>
</svg>
