<?xml version="1.0" encoding="UTF-8" standalone="no"?>
<!-- Created with Inkscape (http://www.inkscape.org/) -->

<svg
   xmlns:dc="http://purl.org/dc/elements/1.1/"
   xmlns:cc="http://creativecommons.org/ns#"
   xmlns:rdf="http://www.w3.org/1999/02/22-rdf-syntax-ns#"
   xmlns:svg="http://www.w3.org/2000/svg"
   xmlns="http://www.w3.org/2000/svg"
   xmlns:sodipodi="http://sodipodi.sourceforge.net/DTD/sodipodi-0.dtd"
   xmlns:inkscape="http://www.inkscape.org/namespaces/inkscape"
   width="744.09448819"
   height="1052.3622047"
   id="svg4090"
   version="1.1"
   inkscape:version="0.48.4 r9939"
   sodipodi:docname="Tessera - Visible.svg">
  <defs
     id="defs4092" />
  <sodipodi:namedview
     id="base"
     pagecolor="#ffffff"
     bordercolor="#666666"
     borderopacity="1.0"
     inkscape:pageopacity="0.0"
     inkscape:pageshadow="2"
     inkscape:zoom="0.35"
     inkscape:cx="375"
     inkscape:cy="520"
     inkscape:document-units="px"
     inkscape:current-layer="layer1"
     showgrid="false"
     inkscape:window-width="1068"
     inkscape:window-height="729"
     inkscape:window-x="787"
     inkscape:window-y="24"
     inkscape:window-maximized="0" />
  <metadata
     id="metadata4095">
    <rdf:RDF>
      <cc:Work
         rdf:about="">
        <dc:format>image/svg+xml</dc:format>
        <dc:type
           rdf:resource="http://purl.org/dc/dcmitype/StillImage" />
        <dc:title />
      </cc:Work>
    </rdf:RDF>
  </metadata>
  <g
     inkscape:label="Layer 1"
     inkscape:groupmode="layer"
     id="layer1">
    <g
       transform="matrix(2.7109694,0,0,2.7109694,-895.78768,-117.33753)"
       id="g4080"
       style="fill:#000000;stroke:#000000">
      <path
         sodipodi:nodetypes="cccscscsscscscccsccccc"
         inkscape:connector-curvature="0"
         id="path4063"
         d="m 448.00266,385.40896 c -0.15528,-18.97484 5.57429,-16.87116 2.52538,-25.00127 11.10235,2.49529 13.90754,-5.67852 14.77348,-14.89976 -0.85357,-14.66908 -13.68873,-30.32513 -29.67323,-32.07234 -16.45623,-1.79877 -22.23921,22.84651 -22.22336,23.23351 -3.71069,-16.94822 14.05629,-21.05274 11.11168,-31.06219 -0.58615,-1.99245 -2.7688,-3.49905 -3.283,-5.55584 1.93774,6.10255 17.62285,4.12287 20.96067,4.29315 5.32227,0.27151 12.13967,6.64642 16.0412,10.54796 7.35064,7.35064 13.29791,26.64894 10.4753,37.93936 0.59066,3.05754 8.52028,-14.70256 -0.25253,-34.21892 -4.04692,-9.00295 -14.37679,-34.18711 -15.78364,-48.48731 1.73971,-10.77792 2.3246,-25.72249 4.92449,-36.23923 3.24854,-13.14055 10.73288,-22.09709 10.73288,-22.09709 -2.75171,7.88281 -4.46531,17.46678 3.40926,20.20306 -7.09395,-1.31485 -12.74663,1.97173 -10.94333,12.45613 -0.96428,11.00811 10.19487,61.86184 16.75171,75.93221 0.64026,1.37394 7.18331,-2.62361 7.57614,-3.40926 -0.57517,3.95508 -2.41918,4.29559 -6.06091,11.74302 -2.58502,4.01393 -3.6065,21.56321 -5.80838,26.1377 -2.16899,-1.14061 -10.5453,4.34493 -15.28855,12.98841 -4.54586,-0.86389 -8.32069,9.09405 -9.96526,17.5687 z"
         style="fill:#000000;stroke:#000000;stroke-width:1px;stroke-linecap:butt;stroke-linejoin:miter;stroke-opacity:1" />
      <path
         sodipodi:nodetypes="ccscc"
         inkscape:connector-curvature="0"
         id="path4065"
         d="m 445.89286,207.63003 c 10.68423,-6.00329 17.54333,-4.42868 24.28571,-3.21428 -5.95701,3.378 -11.86636,9.99734 -13.08527,12.29767 -5.23079,9.87157 -5.30225,23.07181 -6.28972,35.82733 -1.49064,-11.77649 1.8505,-38.56487 -4.91072,-44.91072 z"
         style="fill:#000000;stroke:#000000;stroke-width:1px;stroke-linecap:butt;stroke-linejoin:miter;stroke-opacity:1" />
      <path
         sodipodi:nodetypes="cccccsc"
         inkscape:connector-curvature="0"
         id="path4067"
         d="m 471.23616,184.64114 c -6.48114,0.66692 -10.83711,-1.85348 -26.8953,5.55584 -5.97792,-13.67794 11.27733,-56.7481 -0.12628,-59.599 11.57349,1.20584 37.1494,1.50618 31.8557,-31.562907 3.22785,0.662836 2.61465,25.245237 2.99457,28.784987 -15.0357,7.65007 -18.63438,3.81744 -21.71829,9.97526 -10.19821,20.36336 -3.65296,36.15465 13.8896,46.84582 z"
         style="fill:#000000;stroke:#000000;stroke-width:1px;stroke-linecap:butt;stroke-linejoin:miter;stroke-opacity:1" />
      <path
         sodipodi:nodetypes="cssssscccc"
         inkscape:connector-curvature="0"
         id="path4071"
         d="m 481.07143,162.00504 c -0.78064,-4.38827 18.7222,-4.3435 18.21429,-5.71429 -2.02626,-5.46868 -34.68751,-17.68048 -37.5,-17.67857 -1.02754,7e-4 2.00817,0.53571 3.03571,0.53571 3.01388,0 6.21538,-1.37527 9.28572,-2.14285 7.34993,-1.83749 8.12582,-5.98297 13.03571,-10.89286 14.54965,-14.54965 -1.4137,-39.030886 -14.10714,-46.964288 23.1833,8.61933 36.17081,46.745918 9.82142,63.214278 10.02185,6.22924 18.92445,15.57449 33.21429,18.75001 -11.37866,1.66844 -28.21512,-6.08886 -35,0.89286 z"
         style="fill:#000000;stroke:#000000;stroke-width:1px;stroke-linecap:butt;stroke-linejoin:miter;stroke-opacity:1" />
    </g>
  </g>
</svg>
