<?xml version="1.0" encoding="UTF-8" standalone="no"?>
<!-- Created with Inkscape (http://www.inkscape.org/) -->

<svg
   xmlns:dc="http://purl.org/dc/elements/1.1/"
   xmlns:cc="http://creativecommons.org/ns#"
   xmlns:rdf="http://www.w3.org/1999/02/22-rdf-syntax-ns#"
   xmlns:svg="http://www.w3.org/2000/svg"
   xmlns="http://www.w3.org/2000/svg"
   xmlns:sodipodi="http://sodipodi.sourceforge.net/DTD/sodipodi-0.dtd"
   xmlns:inkscape="http://www.inkscape.org/namespaces/inkscape"
   width="744.09448819"
   height="1052.3622047"
   id="svg3441"
   version="1.1"
   inkscape:version="0.48.4 r9939"
   sodipodi:docname="New document 23">
  <defs
     id="defs3443">
    <inkscape:path-effect
       effect="spiro"
       id="path-effect3395"
       is_visible="true" />
  </defs>
  <sodipodi:namedview
     id="base"
     pagecolor="#ffffff"
     bordercolor="#666666"
     borderopacity="1.0"
     inkscape:pageopacity="0.0"
     inkscape:pageshadow="2"
     inkscape:zoom="0.7"
     inkscape:cx="447.27108"
     inkscape:cy="535.74789"
     inkscape:document-units="px"
     inkscape:current-layer="layer1"
     showgrid="false"
     inkscape:window-width="1855"
     inkscape:window-height="1056"
     inkscape:window-x="65"
     inkscape:window-y="24"
     inkscape:window-maximized="1" />
  <metadata
     id="metadata3446">
    <rdf:RDF>
      <cc:Work
         rdf:about="">
        <dc:format>image/svg+xml</dc:format>
        <dc:type
           rdf:resource="http://purl.org/dc/dcmitype/StillImage" />
        <dc:title></dc:title>
      </cc:Work>
    </rdf:RDF>
  </metadata>
  <g
     inkscape:label="Layer 1"
     inkscape:groupmode="layer"
     id="layer1">
    <path
       style="fill:#000000;stroke:#000000;stroke-width:1.38031375000000001px;stroke-linecap:butt;stroke-linejoin:miter;stroke-opacity:1"
       d="m 467.21613,278.75495 c -53.00101,-11.14054 -130.20883,64.61669 -73.40675,82.2643 -46.1275,-8.48081 -1.59767,50.14594 25.06088,60.58895 -67.40521,-26.19599 -72.14117,-81.95311 -35.30979,-119.71465 -4.78635,-6.09814 -0.51939,0.59074 -15.81858,-7.43635 62.40172,-7.09916 66.2105,-93.07421 54.10438,-153.94968 8.39039,16.24359 25.68946,60.73637 33.11004,79.87056 10.43517,26.90735 -6.22651,27.39413 12.25982,58.37687 z"
       id="path3387"
       inkscape:connector-curvature="0"
       sodipodi:nodetypes="ccccccsc" />
    <path
       style="fill:#000000;stroke:#000000;stroke-width:1.38031375000000001px;stroke-linecap:butt;stroke-linejoin:miter;stroke-opacity:1"
       d="m 390.79343,369.67948 c 9.92175,48.13677 85.57131,88.59494 127.9252,93.49067 4.5961,4.34163 11.50025,13.04217 13.90006,17.78006 -2.69286,-6.88302 3.25547,-16.26645 7.86001,-20.71656 54.60663,-35.50686 43.75677,-100.75876 35.18353,-117.86968 -4.76092,14.11978 -0.0301,38.09324 -6.57552,51.03214 -16.94807,33.50292 -102.00233,28.92022 -143.45269,13.78591 -16.61567,-6.0667 -26.4979,-20.52845 -34.84059,-37.50254 z"
       id="path3389"
       inkscape:connector-curvature="0"
       sodipodi:nodetypes="cccccssc" />
    <path
       style="fill:#000000;stroke:#000000;stroke-width:1.38031375000000001px;stroke-linecap:butt;stroke-linejoin:miter;stroke-opacity:1"
       d="m 416.7597,430.61475 c 77.85896,33.01012 72.30503,32.33418 87.15718,49.77196 23.39066,27.4628 46.2789,96.49525 100.22554,109.90542 -26.0294,-8.51975 -44.0108,-14.65965 -49.39655,-20.65772 0.47035,18.99551 -8.15121,29.42672 -24.56328,28.71167 13.69875,-7.45818 20.96951,-16.80834 16.28801,-27.6266 -3.17729,-7.34228 -20.48706,-16.10603 -24.44142,-22.46178 -14.67361,-23.58451 -31.62197,-55.37784 -50.30982,-75.92432 -27.16747,-29.86946 -70.22264,-31.99386 -95.95179,-63.8896 24.05505,17.08855 32.7379,18.67141 40.99213,22.17097 z"
       id="path3391"
       inkscape:connector-curvature="0"
       sodipodi:nodetypes="sscccssscs" />
    <path
       style="fill:#000000;stroke:#000000;stroke-width:1.38031375000000001px;stroke-linecap:butt;stroke-linejoin:miter;stroke-opacity:1"
       d="m 261.43946,239.95018 c 23.9367,17.72503 42.68762,42.3689 53.38731,70.16564 10.69969,27.79674 13.31211,58.65274 7.43806,87.8527 -5.21736,25.93554 -16.83147,50.08189 -24.98455,75.24933 -4.07654,12.58373 -7.30367,25.51388 -8.35716,38.69942 -1.05348,13.18554 0.12075,26.67153 4.62898,39.10713 5.64246,15.56429 16.55212,29.16568 30.52096,38.0514 -17.524,-16.49843 -26.86481,-41.30178 -24.57704,-65.26123 1.9765,-20.69954 11.94203,-39.70326 22.34893,-57.70532 10.4069,-18.00205 21.60849,-36.00232 26.49881,-56.21277 4.88868,-20.20369 3.10932,-41.69079 -3.14143,-61.51542 -6.25075,-19.82464 -16.83058,-38.08191 -29.33054,-54.69032 -15.38759,-20.44513 -33.79208,-38.61571 -54.43233,-53.74056"
       id="path3393"
       inkscape:path-effect="#path-effect3395"
       inkscape:original-d="m 261.43946,239.95018 c 0,0 64.33206,103.73138 60.82537,158.01834 -3.06925,47.51478 -26.88335,110.76538 -28.71273,153.05588 -1.78628,41.29431 30.52096,38.0514 30.52096,38.0514 0,0 -53.79073,-6.10278 -24.57704,-65.26123 29.21368,-59.15847 51.70038,-59.43443 48.84774,-113.91809 -2.85264,-54.48368 6.84336,-65.91615 -32.47197,-116.20574 -39.31531,-50.2896 -54.43233,-53.74056 -54.43233,-53.74056 z"
       inkscape:connector-curvature="0"
       sodipodi:nodetypes="csscsssc" />
    <path
       style="fill:#000000;stroke:#000000;stroke-width:1.38031375000000001px;stroke-linecap:butt;stroke-linejoin:miter;stroke-opacity:1"
       d="m 353.38704,332.14614 c 12.62613,-27.7528 -13.68251,-52.99117 10.59161,-76.4512 -13.80496,2.84235 -26.48453,14.93534 -61.93808,-14.84304 -18.7463,-15.74553 -59.09034,-65.68234 -72.81073,-91.65122 -4.98151,-9.42862 -12.1768,-43.1909 -8.08947,-55.001014 -37.52141,16.339994 25.63262,86.262234 -17.37598,103.624434 59.63048,25.06989 141.60368,62.88532 151.82112,136.44185"
       id="path3399"
       inkscape:connector-curvature="0"
       sodipodi:nodetypes="ccssccc" />
    <path
       style="fill:#000000;stroke:#000000;stroke-width:1.38031375000000001px;stroke-linecap:butt;stroke-linejoin:miter;stroke-opacity:1"
       d="m 273.35267,358.4407 c 0.60313,6.75879 -4.45526,11.99364 -3.6821,20.65802 1.00894,11.30618 9.68268,22.36973 15.7149,31.62335 -22.15403,-8.45292 -29.70905,-42.75762 -19.40359,-56.07229 6.57258,-38.77081 -8.85303,-86.0745 -67.00156,-156.02215 22.80097,17.35088 39.267,30.21235 58.19342,49.81105 8.68983,24.06131 13.23827,77.04847 16.17893,110.00202 z"
       id="path3405"
       inkscape:connector-curvature="0"
       sodipodi:nodetypes="ssccccs" />
    <path
       style="fill:#000000;stroke:#000000;stroke-width:1.38031375000000001px;stroke-linecap:butt;stroke-linejoin:miter;stroke-opacity:1"
       d="m 323.42274,563.02438 c 4.18057,-7.23661 9.01099,-4.07971 16.67878,-8.23676 -34.27829,41.62615 144.8107,57.09033 154.64511,-4.53814 13.05346,58.27334 -61.4095,52.71657 -70.87548,77.87542 -3.28211,-2.52679 -2.73277,-8.64244 3.47109,-16.30096 -32.26647,15.24287 -113.13831,-23.66291 -116.04541,-62.77572 4.82641,7.29477 6.87519,7.51076 12.12591,13.97616 z"
       id="path3407"
       inkscape:connector-curvature="0"
       sodipodi:nodetypes="ccccccc" />
    <path
       style="fill:#000000;stroke:#000000;stroke-width:1.38031375000000001px;stroke-linecap:butt;stroke-linejoin:miter;stroke-opacity:1"
       d="m 98.207203,763.70872 c -24.70297,-50.6467 5.922407,-125.27853 52.991077,-156.72097 58.68588,-38.92872 98.76252,-82.39278 130.05758,-141.2188 -17.69823,49.2388 -28.51747,74.54956 -55.1939,124.52988 -19.21214,35.99539 -86.02496,57.30926 -119.58945,104.66429 -10.328027,14.5715 -11.059057,28.30969 -8.265307,68.7456 z"
       id="path3409"
       inkscape:connector-curvature="0"
       sodipodi:nodetypes="cccssc" />
    <path
       style="fill:#000000;stroke:#000000;stroke-width:1.38031375000000001px;stroke-linecap:butt;stroke-linejoin:miter;stroke-opacity:1"
       d="m 267.0428,535.41199 c -24.43898,30.21911 24.7597,65.71429 -4.9012,83.92781 7.81227,-3.01322 20.10726,-1.43704 25.48951,8.39246 63.30487,80.63366 108.20701,63.79495 127.92195,97.46316 17.55188,-8.36495 31.46932,11.01992 57.36896,7.88601 -44.53665,-19.42714 -47.38795,-8.64597 -56.60646,-25.91047 -26.58077,0.61385 -94.68016,-61.22603 -44.98652,-41.17385 -43.88085,-18.51788 -86.09129,-76.86441 -60.47791,-77.743 -24.52597,-11.88512 -38.89205,-29.43502 -43.80833,-52.84212 z"
       id="path3411"
       inkscape:connector-curvature="0"
       sodipodi:nodetypes="ccccccccc" />
    <path
       style="fill:#000000;stroke:#000000;stroke-width:1.38031375000000001px;stroke-linecap:butt;stroke-linejoin:miter;stroke-opacity:1"
       d="m 262.73516,699.1698 c 13.79477,-12.40794 25.95001,-5.61034 30.1889,-21.96078 17.24337,15.22916 34.98082,11.43149 61.16291,19.29106 29.88981,19.16159 39.86878,43.96625 143.53489,62.34866 -26.12872,9.37199 -100.37954,-13.01549 -107.05956,19.9123 17.4205,-34.07531 -54.41017,-82.78655 -88.0028,-85.51819 -16.56656,-1.34709 -22.82006,2.74736 -39.82434,5.92695 z"
       id="path3413"
       inkscape:connector-curvature="0"
       sodipodi:nodetypes="cccccsc" />
    <path
       style="fill:#000000;stroke:#000000;stroke-width:1.38031375000000001px;stroke-linecap:butt;stroke-linejoin:miter;stroke-opacity:1"
       d="m 577.61248,874.66743 c 12.98163,-9.6812 18.49238,-16.39842 39.30566,-15.4915 -57.64292,0.92647 -30.98561,-63.12842 -67.05726,-94.72575 9.4576,-1.98257 22.44273,-4.7506 26.95767,-13.13801 -39.23752,7.36914 -25.54922,-7.64484 -122.07009,-58.23274 -21.90527,-6.46596 -26.3593,-28.63836 -42.80717,-54.70671 -4.83574,13.31643 5.29643,28.9571 8.2175,46.1154 2.58489,15.18387 -20.12496,1.51662 -20.81862,-6.25637 0.30081,6.05558 -1.97001,16.28997 4.52807,16.96776 18.98037,1.97982 46.02023,10.59821 64.97813,24.51734 32.43498,23.81426 112.91838,110.06431 104.10926,142.16969 -5.24806,19.12714 -58.63778,28.18081 -76.76947,26.29228 29.16677,15.36832 55.82044,5.58437 81.42632,-13.51139 z"
       id="path3417"
       inkscape:connector-curvature="0"
       sodipodi:nodetypes="scccccscssscs" />
  </g>
</svg>
