<?xml version="1.0" encoding="UTF-8" standalone="no"?>
<!-- Created with Inkscape (http://www.inkscape.org/) -->

<svg
   xmlns:dc="http://purl.org/dc/elements/1.1/"
   xmlns:cc="http://creativecommons.org/ns#"
   xmlns:rdf="http://www.w3.org/1999/02/22-rdf-syntax-ns#"
   xmlns:svg="http://www.w3.org/2000/svg"
   xmlns="http://www.w3.org/2000/svg"
   xmlns:sodipodi="http://sodipodi.sourceforge.net/DTD/sodipodi-0.dtd"
   xmlns:inkscape="http://www.inkscape.org/namespaces/inkscape"
   width="765"
   height="990"
   id="svg4025"
   version="1.1"
   inkscape:version="0.48.4 r9939"
   sodipodi:docname="Tessera and the Forest - Back.svg">
  <defs
     id="defs4027">
    <inkscape:path-effect
       effect="spiro"
       id="path-effect4060"
       is_visible="true" />
  </defs>
  <sodipodi:namedview
     id="base"
     pagecolor="#ffffff"
     bordercolor="#666666"
     borderopacity="1.0"
     inkscape:pageopacity="0.0"
     inkscape:pageshadow="2"
     inkscape:zoom="0.7"
     inkscape:cx="459.2435"
     inkscape:cy="461.92528"
     inkscape:document-units="px"
     inkscape:current-layer="layer1"
     showgrid="false"
     inkscape:window-width="1855"
     inkscape:window-height="1056"
     inkscape:window-x="65"
     inkscape:window-y="24"
     inkscape:window-maximized="1" />
  <metadata
     id="metadata4030">
    <rdf:RDF>
      <cc:Work
         rdf:about="">
        <dc:format>image/svg+xml</dc:format>
        <dc:type
           rdf:resource="http://purl.org/dc/dcmitype/StillImage" />
        <dc:title />
      </cc:Work>
    </rdf:RDF>
  </metadata>
  <g
     inkscape:label="Layer 1"
     inkscape:groupmode="layer"
     id="layer1"
     transform="translate(0,-62.36218)">
    <path
       style="fill:#000000;stroke:#000000;stroke-width:3.64256548999999996px;stroke-linecap:butt;stroke-linejoin:miter;stroke-opacity:1"
       d="M 116.55989,346.19314 C 102.93545,338.71408 70.772913,325.322 73.629631,324.07756 c 14.924647,-6.50154 79.452929,34.63934 101.471479,32.52293 22.01854,-2.1164 63.76609,0.051 120.33473,-4.5532 10.07672,-0.82016 36.9193,-21.69643 98.86964,-9.10645 67.73485,13.76558 99.6536,103.02366 110.57787,148.95491 -16.4346,-62.112 -59.82629,-137.20818 -145.05216,-133.3439 -4.72689,0.21419 -43.33422,-4.72291 -52.68712,17.56238 -9.35291,22.28529 -75.82383,69.8766 -152.20718,-6.5046 -9.60239,-9.60213 -24.75257,-15.93739 -38.377,-23.41649 z"
       id="path4052"
       inkscape:connector-curvature="0"
       sodipodi:nodetypes="zszsscszsz" />
    <path
       style="fill:#000000;stroke:#000000;stroke-width:3.64256548999999996px;stroke-linecap:butt;stroke-linejoin:miter;stroke-opacity:1"
       d="m 434.63389,331.23261 c 5.10079,14.67266 13.36053,29.31806 24.71736,40.32841 46.89333,45.46257 52.05237,56.23342 63.74489,109.27693 6.78566,30.78332 -27.25462,69.90308 -1.30087,98.21919 -5.3859,-31.84892 -0.60627,-54.1828 23.41645,-70.89992 12.79251,-8.90214 -0.007,-42.92366 13.00921,-55.93938 4.88154,-4.88159 18.62607,5.42556 24.71739,3.90271 -10.76411,-1.18307 -9.18021,-10.48111 -18.21283,-14.31007 -8.77803,-3.72103 -17.07237,-1.51716 -25.36788,-6.50456 -16.80862,-10.10568 -14.99724,-25.49661 -46.18248,-40.97887 -11.57218,-5.74512 -35.13415,-28.62954 -44.23117,-37.72656 -7.28014,-7.28014 -10.66135,-21.43595 -15.61101,-29.92108"
       id="path4054"
       inkscape:connector-curvature="0"
       sodipodi:nodetypes="csscsscssssc" />
    <path
       style="fill:#000000;stroke:#000000;stroke-width:3.64256548999999996px;stroke-linecap:butt;stroke-linejoin:miter;stroke-opacity:1"
       d="m 172.8245,337.41197 c 5.31294,-13.73848 30.07947,-23.65832 42.60498,-29.92105 32.78236,-2.56156 21.0879,-38.3757 52.68712,-74.80274 13.10686,-14.41407 107.90852,6.28 121.96088,13.00917 11.53594,5.52413 39.79456,4.7864 40.0032,5.20366 4.29692,8.59383 -6.17746,9.10258 -9.43165,15.61097 6.16548,19.88706 -9.29528,32.06529 -10.73257,33.17336 -17.44126,13.44642 -37.44561,13.80783 -43.58071,-10.73253 14.07662,7.60149 19.2381,15.01764 34.79954,4.228 12.52766,-8.68614 -8.97699,-30.71896 -15.93626,-37.72656 -6.6248,-6.67089 -79.02979,-28.86631 -93.3407,-13.98487 -14.193,9.5849 -38.74659,39.12844 -46.83301,56.91509 6.2466,24.98632 77.83263,8.83209 85.53527,-11.70823 4.82505,16.31185 -7.67285,20.30862 -17.88762,27.9697 -18.74165,14.05622 -45.69372,21.95316 -70.89991,16.91192 -5.20202,-1.04043 -7.87924,-6.11649 -12.03347,-7.15506 -15.53143,-3.88286 -22.39777,-1.72657 -37.07615,2.27661 -13.38267,3.64981 -20.20909,7.40129 -19.83894,10.73256 z"
       id="path4056"
       inkscape:connector-curvature="0"
       sodipodi:nodetypes="cccsccscsscccssssc" />
    <path
       style="fill:#000000;stroke:#000000;stroke-width:3.64256548999999996px;stroke-linecap:butt;stroke-linejoin:miter;stroke-opacity:1"
       d="m 340.31746,421.64629 c 14.06391,-9.08024 30.9376,-13.7396 47.66816,-13.16268 16.73055,0.57692 33.24321,6.38754 46.64823,16.41499 18.94714,14.17316 31.06693,36.09874 36.94638,59.01826 5.87945,22.91952 5.9907,46.92894 4.4983,70.54345 -1.90644,30.16595 -6.36483,60.12716 -8.27129,90.29311 -2.11181,33.41516 -1.09906,67.12796 -6.5046,100.17055 -5.2463,32.06923 -16.56299,63.13467 -33.17335,91.06414 l 18.86328,-20.16422 -31.222,70.24949 c 26.78899,-48.90529 47.18079,-101.30995 60.49267,-155.45948 5.58622,-22.72341 9.9312,-45.75191 13.0091,-68.94859 l 16.26146,-3.90272 -11.70822,-140.49895 c -5.26488,-27.29441 -16.43571,-53.43411 -32.52294,-76.10358 -17.95813,-25.30586 -42.03806,-46.23516 -69.599,-60.49263 l 14.31007,22.11558 c -10.43758,-2.43424 -21.43487,-2.43424 -31.87245,0 -12.73734,2.97059 -24.60266,9.58778 -33.8238,18.86328"
       id="path4058"
       inkscape:path-effect="#path-effect4060"
       inkscape:original-d="m 340.31746,421.64629 c 0,0 77.40447,-11.05777 94.31639,3.25231 14.69408,12.43342 45.42017,48.64074 41.44468,129.56171 -1.9102,38.88213 -5.45682,75.66384 -8.27129,90.29311 -22.07015,114.71889 -27.57396,58.94917 -6.5046,100.17055 23.16726,45.32579 -32.03239,90.7036 -33.17335,91.06414 l 18.86328,-20.16422 -31.222,70.24949 c 0,0 43.25867,-80.84663 60.49267,-155.45948 15.67167,-67.84908 13.0091,-68.94859 13.0091,-68.94859 l 16.26146,-3.90272 c -6.50737,-47.17064 -89.07227,-104.20057 -11.70822,-140.49895 0,0 3.81708,-101.59399 -32.52294,-76.10358 -67.12166,47.08195 -98.4553,-2.78007 -69.599,-60.49263 l 14.31007,22.11558 c 0,0 -9.10641,-7.15505 -31.87245,0 -22.76603,7.15502 -33.8238,18.86328 -33.8238,18.86328 z"
       inkscape:connector-curvature="0"
       sodipodi:nodetypes="csssscccscccsccsc" />
    <path
       style="fill:#000000;stroke:#000000;stroke-width:3.64256548999999996px;stroke-linecap:butt;stroke-linejoin:miter;stroke-opacity:1"
       d="m 252.79138,235.54125 c 39.18632,-83.69824 165.14197,-2.71473 231.81141,19.31762 23.36152,7.72031 58.80513,13.79829 83.70972,13.79829 -78.91884,4.00759 -286.74956,-157.33838 -315.52113,-33.11591 z"
       id="path4700"
       inkscape:connector-curvature="0"
       sodipodi:nodetypes="cscc" />
    <path
       style="fill:#000000;stroke:#000000;stroke-width:3.64256548999999996px;stroke-linecap:butt;stroke-linejoin:miter;stroke-opacity:1"
       d="m 232.55387,284.29524 c -1.68421,-36.05855 15.68868,-73.87847 15.63808,-105.78698 43.70583,-5.94332 91.48664,2.53289 122.34492,-23.91705 -38.61975,37.98915 -130.19895,10.62121 -172.0188,6.43922 14.92362,7.81851 35.21592,13.76012 33.11591,28.51648 -3.65597,25.68999 -90.79838,154.6414 -123.2648,134.30346 61.50004,20.72634 71.68778,-52.45942 124.18469,-39.55513 z"
       id="path4702"
       inkscape:connector-curvature="0"
       sodipodi:nodetypes="ccccscc" />
    <path
       style="fill:#000000;stroke:#000000;stroke-width:3.64256548999999996px;stroke-linecap:butt;stroke-linejoin:miter;stroke-opacity:1"
       d="m 584.87048,436.07654 c 50.53863,67.83535 39.79455,179.59854 -61.63242,190.41656 11.45466,6.61763 26.43438,4.50097 30.81621,2.75964 -6.17495,9.20036 -14.93827,20.57551 -17.01789,42.31477 41.94221,-102.31463 92.49042,-28.20234 90.14887,-127.8642 -0.74177,-31.57023 -20.54112,-103.11702 -42.31477,-107.62677 z"
       id="path4708"
       inkscape:connector-curvature="0"
       sodipodi:nodetypes="ccccsc" />
    <path
       style="fill:#000000;stroke:#000000;stroke-width:3.64256548999999996px;stroke-linecap:butt;stroke-linejoin:miter;stroke-opacity:1"
       d="m 581.19091,658.68912 c 39.74188,-3.35994 48.18076,-51.84373 53.35345,-80.26014 0.65242,10.51998 -11.67038,61.86241 4.82939,62.09237 -13.4116,14.56505 -17.37096,38.88985 -20.92741,53.12346 -9.73443,38.9591 -5.3482,63.71765 -5.97927,93.82844 -0.72094,34.39908 16.36116,89.90438 44.15455,96.58809 -52.33095,-1.86103 -60.94463,-116.37611 -58.41279,-160.98012 0.63023,-11.1029 2.60123,-31.92687 5.97927,-42.5448 -8.06767,-5.41307 -11.5501,-14.69287 -22.99719,-21.8473 z"
       id="path4714"
       inkscape:connector-curvature="0"
       sodipodi:nodetypes="cccsscscc" />
    <path
       style="fill:#000000;stroke:#000000;stroke-width:3.64256548999999996px;stroke-linecap:butt;stroke-linejoin:miter;stroke-opacity:1"
       d="m 571.07215,655.92947 c -0.7975,21.36652 5.96889,39.39573 18.85771,50.59378 -34.99453,9.35498 -80.86739,17.89752 -100.72761,49.67384 15.71257,-47.59441 59.69116,-19.92964 81.8699,-100.26762 z"
       id="path4716"
       inkscape:connector-curvature="0"
       sodipodi:nodetypes="cccc" />
    <path
       style="fill:#000000;stroke:#000000;stroke-width:3.64256548999999996px;stroke-linecap:butt;stroke-linejoin:miter;stroke-opacity:1"
       d="m 578.66122,792.07268 c 27.68513,27.01261 10.77675,69.83778 -23.91705,107.85673 38.45008,-74.40625 -63.87716,17.04254 -25.98679,56.80297 -4.77231,-1.73459 -22.52358,-14.82506 -13.10839,-36.5655 -8.10187,5.98576 -8.60119,16.698 -8.96891,30.12631 -9.22727,-63.22473 79.84864,-74.87107 71.98114,-158.22051 z"
       id="path4722"
       inkscape:connector-curvature="0"
       sodipodi:nodetypes="cccccc" />
  </g>
</svg>
